<svg xmlns="http://www.w3.org/2000/svg" viewBox="0 0 1156.66 1349.92"><defs><style>.cls-1{fill:#fff;}.cls-2{fill:#180f1b;}</style></defs><g id="black"><path class="cls-1" d="M1066.78,575.23,55,574.66s-32.69,3.79-35.65,39.53c0,0,1.38,39.07,34.38,39.37l1012.12,1.79,12.44-28.47L1054,610.45l25.17-12.88Z"/><path class="cls-1" d="M1006.3,478.92c17.09-17.78,32.15-36.47,31.56-99s-14.13-71.41-14.13-71.41-10.61-11-19.33-15.35c-8.27-4.1-20.29-2.56-20.29-2.56L962,299.09c11.65-35.65,16.64-51.88-2.5-74.85s-94.6-30-110.25-32.72-38.86-9.61-38.86-9.61l-6.92-3.33c-11.57-15.7-1.57-49.2-1.57-49.2l8-2.66,25.3,17.8,27,19.64,12.65,2.43,6-2.61V159l-10.17-11.82L817.07,94.15,796.79,80l-22-6.21-34.43-2.1-6,1.5-7.92,6.24L721.78,87l-5.46,37L671.76,45.8l-6.7-6.1c-14.93-6.82-103.94-5.61-103.94-5.61v.44l-5.83.09v-.53S495.91,35.41,466,35.81c-.42-.41-2.15.37-3,.4-11.86.34-17.15,7.68-17.15,7.68L427.65,76l-.55,1-17.24,30.18-9.77,16.78-5.45-37-4.59-8.63-7.84-5.53-7.11-1.22-13,.39L339.65,74l-20,5.91-20.27,14.2-53.58,53.07L235.59,159V164l6,2.61,12.63-3.43,27-18.64,25.3-17.8,8,2.66s10,33.5-1.57,49.2L306,181.91s-23.22,6.88-38.87,9.61S176,201.27,156.88,224.24s-14.15,39.2-2.5,74.85l-22.07-8.46s-12.26-2-20.29,2.56c-8.2,4.62-18.92,14.28-18.92,14.28s-14,10-14.55,72.48,14.48,81.19,31.56,99c0,0-25,18.37-18.06,95.14,7.6,83.6,105.78,169.8,179.55,198.79,0,0,9.92-.48,24.58-8s125-68.89,125-68.89l10.21,11.11,5.23,11.28s3,8.09-4,18.93-37.05,73.06-37.05,73.06-5,4.79,1.17,13S415.26,854,415.26,854l15.32,1.45,77.87-.1s14.31,1.22,18.43-17.72c3.47-15.93,7.58-84.73,7.58-84.73s-1.33-10.08-12.48-2.1c-12.62,9-15.92,33.32-15.92,33.32l-5.32,18.58s-7.13,28.42-36.88,18.33l-11.17-3.3-.69-6.08,40.89-50.39,41.57-55.77s10.95-15.6,3.34-32.78-57.43-100.1-57.43-100.1-7.5-13.34-3.5-20.82,38-66.58,78.42-69.55V482a43,43,0,0,1,5.83-.22v.53c40.39,3,74.43,62.08,78.43,69.55S636,572.65,636,572.65s-49.82,82.92-57.43,100.1S582,705.53,582,705.53l41.57,55.77,40.9,50.39-.7,6.08-11.17,3.3c-29.74,10.09-36.88-18.33-36.88-18.33l-4.89-18.63s-4-25.05-15.89-33.6c-11.18-8.06-12.94,2.43-12.94,2.43s5.94,71.2,7.89,87.39,13.44,15.06,13.44,15.06l82.56.1L701.16,854s12.37-22.45,18.58-30.68,1.18-13,1.18-13-30.07-62.22-37.06-73.06-3.75-20.7-3.75-20.7l14.34-21s111.12,61.72,125.78,69.24,24.58,8,24.58,8c96.91-47.82,173.3-122,179.55-198.79S1006.3,478.92,1006.3,478.92ZM381.4,656.1a47.93,47.93,0,0,1-5.67.77,5.92,5.92,0,0,1-.84,0,99.35,99.35,0,0,1-14.82-.43,164,164,0,0,0-21.49-.53c-14.91.68-30.38,3.06-45.23.63a3.47,3.47,0,0,1-2.63-2.77c-5.23-2.32-9.84-5.91-14.17-9.61a3.28,3.28,0,0,1-1.06-2.13c-1.15-.84-2.3-1.68-3.4-2.58a110.52,110.52,0,0,1-17-17.35c-10.09-12.86-15.81-28.36-15.41-45,.07-3.12,1.82-4.1,4-3.23,3.48-.48,6.48.45,9.9,1,5.61,1,11.4.67,17.07.35,12.77-.74,25.2-1.85,38-2,5.14-4,16.53-2.9,17.78,5.88,1.81,1.12,2.31,4.41,2.95,7.18,1.57,7.45,10.78,15.68,15.43,21.68l.47.63c1.68.07,2.52,1.61,3.69,3.41,1.37,2.1,3.5,3.52,4.61,5.8.94.64,3.15,2,3.64,3.34,1.69,4.5,5.27,8.48,8.56,11.88,4.51,4.66,8.86,9.48,13.52,14a5.88,5.88,0,0,1,1.17,1.61C384.43,648.94,385.83,655.21,381.4,656.1Zm25.22-316.58a15.45,15.45,0,0,0,.61,1.73,5,5,0,0,1,.25,1.8,1.19,1.19,0,0,1-.33.85,14.74,14.74,0,0,1,1,3.57,1.29,1.29,0,0,1-1.28,1.27.79.79,0,0,1-.22-.05,8.59,8.59,0,0,1-2.55,5.4c-2.44,2.38-5.89,3.67-9.13,4.49-6.09,1.56-13.6,2.38-19.74.53-3.69-1.12-7-3.39-10.32-5.52a3.86,3.86,0,0,1-4.42-.44c-1-.79-1.93-1.52-2.94-2.22a1.52,1.52,0,0,1-.78-.13c-2.48-1.16-4.85-2.56-7.34-3.71a57.76,57.76,0,0,1-7.13-3.77,1.24,1.24,0,0,1-.59-1.06c-1.87-1-3.71-2-5.5-3.08A53.66,53.66,0,0,1,325.36,330a8,8,0,0,1-3.2-2.08,1.28,1.28,0,0,1-.15-.25,3.32,3.32,0,0,1-1.55-.49A32.65,32.65,0,0,1,310.78,317c-.73-1.12-1.42-2.26-2.11-3.39a4,4,0,0,1-3.34-2.74c-.05-.15-.08-.22-.09-.25v0l-.42-.85c-.28-.52-.58-1-.9-1.52s-.74-1.12-1.14-1.67l-.61-.83-.2-.25c-1.65-2.12-3.49-4.14-4.94-6.41-1.21-1.89-2.21-3.91-3.35-5.84l-.11-.16a3.93,3.93,0,0,1-1.93-1,27.35,27.35,0,0,1-4.17-5.45,8.78,8.78,0,0,1-1.63-1.7c-.66-.75-1.61-1.23-2.05-2.18a1.72,1.72,0,0,1-.15-.57,10.1,10.1,0,0,1-2.64-3l-.21,0a1.31,1.31,0,0,1-1.27-1.27,11.53,11.53,0,0,1,.45-4,6,6,0,0,1,1.75-3.16c1-.74,1.47-1.92,2.29-2.79a15.83,15.83,0,0,1,1.32-1.27c.18-.16.37-.31.55-.48l.22-.23s.09-.19.05-.06a1.43,1.43,0,0,1,.13-.28,1.39,1.39,0,0,1,.17-.67,1.35,1.35,0,0,1,.76-.59c.67-.17,1.36-.27,2-.5a2.7,2.7,0,0,0,.44-.24l0,0a1.25,1.25,0,0,1,.73-.26,17.55,17.55,0,0,1,3.06-1.05A1.28,1.28,0,0,1,294,262c1.47-.45,3-.85,4.45-1.23s2.95-.92,4.44-1.35a16.88,16.88,0,0,1,2-.36c.8-.13,1.57-.41,2.36-.58s1.3-.24,2-.31a3.32,3.32,0,0,0,1.49-.41,1,1,0,0,1,1.16-.1,3.67,3.67,0,0,1,1.73-1.09,4.06,4.06,0,0,1,2.21.06l.06,0c3.7-.8,7.46-1.21,11.2-1.79,5-1.15,10.09-1.94,15.18-2.65,12.11-1.69,24.4-3,35.88-7.47a3.24,3.24,0,0,1,2.79.32,5.11,5.11,0,0,1,1.71-.17,2.48,2.48,0,0,1,1.65,1.09,11.09,11.09,0,0,0,.81,1.21,16.05,16.05,0,0,1,1.24,1.49,10,10,0,0,1,1.2,3.67c.26,1.29.38,2.61.65,3.9a4,4,0,0,1,.24.64c0,.16.1.3.14.46a3.89,3.89,0,0,1,.34.36,13.14,13.14,0,0,1,1.92,4.84c.09.45.17.91.24,1.36,1.84,4,4,7.8,5.47,11.93,2.29,6.47,6.13,12.17,8.51,18.61a1.84,1.84,0,0,1,0,.25,3.55,3.55,0,0,1-.6,4.31,8.06,8.06,0,0,0-.58,2.57,31,31,0,0,0,.25,5.53,46.51,46.51,0,0,0,2.3,10.15,27,27,0,0,1,1.42,13c-.32,2.3,0,4.69-.84,6.85a12.6,12.6,0,0,0-.54,2Zm305.7,14.57c-3.08-3-2.83-7-2.36-11a12,12,0,0,0-.58-6c-.8-2.16-.08-5.62-.4-7.93a22.62,22.62,0,0,1,1-11.93,47.09,47.09,0,0,0,2.3-10.15,31,31,0,0,0,.25-5.53,8,8,0,0,0-.59-2.57,3.58,3.58,0,0,1-.6-4.31,1.83,1.83,0,0,1,.06-.25c2.37-6.44,6.22-12.14,8.51-18.61,1.46-4.13,3.63-8,5.47-11.93.06-.45.14-.91.24-1.36a12.81,12.81,0,0,1,1.92-4.84,3.89,3.89,0,0,1,.34-.36c0-.16.1-.3.14-.46.29-1.11-.18-2.51.59-2.93.67-3.06,1.8-7.08,4.07-9.41.28-.3,2-.86,2.18-.07,1-.92,2.19-.23,3.45.26,11.47,4.5,23.76,5.78,35.88,7.47,6.14.85,12.37,1.53,18.36,3.12,2.28.61,4.41.26,6.69.82.21-.19.44,1,.67.84a3.89,3.89,0,0,1,2.93-.38,3.8,3.8,0,0,1,1.86,1.23l0-.05c.24.3.79-.21,1.08,0,.63.09,1.31.1,1.94.19,1,.05,1.74.67,2.73.91l.67.1a2.69,2.69,0,0,1,.85.3c2.07.61,3.06.5,5.69,1.32s6,1.56,8.75,2.93h.18a1.27,1.27,0,0,1,.79.28l.47.12a4.35,4.35,0,0,1,.76.28l.29.1a1.34,1.34,0,0,1,.76.58s0,.05,0,.07l.14.1a26.15,26.15,0,0,1,2.58,3.16,33.15,33.15,0,0,0,2.56,3.12,4.41,4.41,0,0,1,1.29,1.77,15,15,0,0,1,.35,1.87,5.12,5.12,0,0,1,.05,1.87,1.23,1.23,0,0,1,.09,1.72.82.82,0,0,1,0,.17,1.32,1.32,0,0,1-1.48.92l-.06.08a.64.64,0,0,0,0,.07,20.35,20.35,0,0,1-3,3.45c-1.15,1.1-2.12,2.36-3.2,3.53l-.1.07a26.08,26.08,0,0,1-4,5.2,4.11,4.11,0,0,1-1.07.72l-.12.26a2.83,2.83,0,0,1-.32.45l-.18.17a3.79,3.79,0,0,1-.45.34c-.16.1-.32.18-.49.27-.91,1.61-1.76,3.25-2.76,4.8-1.45,2.27-3.28,4.29-4.94,6.41l-.2.25-.61.83c-.39.55-.78,1.1-1.14,1.67s-.62,1-.89,1.52c-.15.28-.29.57-.42.85l0,0s0,.1-.09.25a4,4,0,0,1-3.33,2.74c-.69,1.13-1.39,2.27-2.11,3.39A32.76,32.76,0,0,1,796,327.2a3.47,3.47,0,0,1-2.68.41c-3.89,4.34-8,8.45-13.07,11.57-1,.6-2,1.17-2.94,1.72a1.11,1.11,0,0,1-.19,1.49c-1.64,1.52-3.61,1.54-5.57,2.35s-3.59,2.18-5.54,3a30.14,30.14,0,0,0-3,1.34,29.32,29.32,0,0,1-2.8,1.55,11.34,11.34,0,0,1-1.64.56c-.88.62-1.74,1.27-2.58,2a3.85,3.85,0,0,1-4.41.44c-3.3,2.13-6.63,4.4-10.33,5.52-6.13,1.85-13.64,1-19.73-.53C718.22,357.76,714.77,356.47,712.32,354.09Zm149,268.06a109.65,109.65,0,0,1-17,17.35c-1.1.9-2.24,1.74-3.4,2.58a3.28,3.28,0,0,1-1.06,2.13c-4.32,3.7-8.93,7.29-14.16,9.61-.32,1.33-1.4,1.23-2.77,1.45-14.84,2.43-30.19,1.37-45.1.69a164,164,0,0,0-21.49.53c-5,.43-9.91-.42-14.83-.73a5.92,5.92,0,0,1-.84,0c-1.9-.15-3.77.77-5.66.39-4.42-.89-3-7.16,1-7.4a5.88,5.88,0,0,1,1.17-1.61c4.67-4.52,9-9.34,13.53-14,3.29-3.4,7.17-7.7,8.86-12.2.49-1.3,3.39-2.59,4.33-3.23a45.55,45.55,0,0,1,3.61-5.59c1.17-1.8,3-4.62,4.64-4.69l.47-.63c4.65-6,12.92-13,14.48-20.4.65-2.77,1.29-7.4,3.1-8.51,1.25-8.79,12.49-8.52,17.64-4.55,12.78.17,25.21,1.28,38,2,5.68.32,11.47.61,17.07-.35,3.43-.58,6.43-1.51,9.91-1,2.22-.87,4.6-.47,4.67,2.65C877.81,593.22,871.46,609.29,861.36,622.15Z"/><polygon class="cls-1" points="1066.78 575.23 1117.05 602.7 1117.05 625.21 1064.73 657.31 1078.31 626.88 1055.14 610.77 1079.14 597.57 1066.78 575.23"/><path class="cls-1" d="M395.16,969v73.51a28.78,28.78,0,0,1-28.64,28.65H353.08a28.77,28.77,0,0,1-28.64-28.65V969a28.77,28.77,0,0,1,28.64-28.64h13.44A28.77,28.77,0,0,1,395.16,969Zm-28.39,0a.24.24,0,0,0-.25-.25H353.08l-.25.25v73.51a.25.25,0,0,0,.25.26h13.44c.25,0,.25,0,.25-.26Z"/><path class="cls-1" d="M476,969v15.46H447.63V969a.25.25,0,0,0-.26-.25H433.94l-.25.25v73.51a.25.25,0,0,0,.25.26h13.43c.26,0,.26,0,.26-.26v-15.46H476v15.46a28.78,28.78,0,0,1-28.65,28.65H433.94a28.77,28.77,0,0,1-28.64-28.65V969a28.77,28.77,0,0,1,28.64-28.64h13.43A28.77,28.77,0,0,1,476,969Z"/><path class="cls-1" d="M514.8,1042.8h27.88v28.39H514.8a28.78,28.78,0,0,1-28.65-28.65V890.45h28.39v49.94h26.11v28.39H514.54v73.76A.25.25,0,0,0,514.8,1042.8Z"/><path class="cls-1" d="M619.74,969v102.16H591.35v-12.42h-.76a19.9,19.9,0,0,1-19,12.42c-22.82,0-24.08-26.11-24.08-28.65v-31.18c0-2.28,1.26-28.64,24.08-28.64a20,20,0,0,1,19,12.67h.76V969l-.25-.25H578.93a.24.24,0,0,0-.25.25v4.31H550V969a28.83,28.83,0,0,1,28.9-28.64H591.1A28.77,28.77,0,0,1,619.74,969Zm-28.39,42.08H575.89v31.69h15.46Z"/><path class="cls-1" d="M672.21,940.39H700.6v71.23c0,.5-1.77,12.42-4.56,24.84-3.8,17.49-8.87,34.73-24.08,34.73H658.78c-16.48,0-21-21.3-24.34-35.24-2.53-12.42-4.31-24.59-4.31-25.09l-.25-1V940.39h28.64v67.42c1.78,12.93,4.57,26.62,6.85,34,2.28-7.35,5.07-20.53,6.84-33.21Z"/><path class="cls-1" d="M711.24,940.39h28.39v130.8H711.24Z"/><path class="cls-1" d="M822,969v102.16H793.63v-12.42h-.76a19.9,19.9,0,0,1-19,12.42c-22.81,0-24.08-26.11-24.08-28.65v-31.18c0-2.28,1.27-28.64,24.08-28.64a20,20,0,0,1,19,12.67h.76V969l-.26-.25H781.21a.25.25,0,0,0-.26.25v4.31H752.31V969a28.82,28.82,0,0,1,28.9-28.64h12.16A28.77,28.77,0,0,1,822,969Zm-28.39,42.08H778.16v31.69h15.47Z"/><path class="cls-1" d="M904.15,969v102.16H875.76V968.78H860.55v101.9l-28.39.51V940.39h28.39v12.67h.5a20.49,20.49,0,0,1,19.27-12.67C903.13,940.39,904.15,966.75,904.15,969Z"/><path class="cls-2" d="M221.49,450.43S184.14,442.84,169,436s-42.13-22.42-58.71-23.64c0,0-5.43,2.65-5.13,10.69s1.63,19.64,4,26.11,4.31,12.73,11.45,16.15l10.87-6.84s14.58-4.92,36.16-4.77S221.49,450.43,221.49,450.43Z"/><path class="cls-2" d="M354.74,518.9l-23.52,35.46-11.53,17.95-33.79,3.26s-37.53,5-46.8-.73c0,0,1.88-21.24,17.24-25.16,10.57-2.7,62.41-17.24,102.68-49.14Z"/><path class="cls-2" d="M895.64,449.23s37.66-8.35,53.16-15.2,32.13-21.78,56-22.71c0,0,8.66,2.17,8.35,10.21s-1.15,18.26-3.59,24.73-5.13,14.78-12.43,18.21L986.78,458s-14.83-5.49-36.86-5.34S895.64,449.23,895.64,449.23Z"/><path class="cls-2" d="M761.2,518.9l23.52,35.46,11.54,17.95L830,575.57s38.1,2.76,47.37-2.93c0,0-3.44-19.34-16.07-22.75-10.53-2.84-64.14-17.45-104.41-49.35Z"/><path class="cls-1" d="M434,314.89s14.11,41.34,64.43,31.84l4.94-3.63S470.09,305.62,434,314.89Z"/><path class="cls-1" d="M682.67,314.89s-14.12,41.34-64.44,31.84l-4.94-3.63S646.55,305.62,682.67,314.89Z"/><polygon class="cls-2" points="434.56 126.25 422.49 123.84 412.39 129.96 410.19 141.03 417.16 150.55 429.22 152.96 439.32 146.84 441.53 135.77 434.56 126.25"/><polygon class="cls-2" points="442.06 167.87 434.48 166.36 428.15 170.2 426.76 177.15 431.14 183.13 438.71 184.64 445.05 180.8 446.44 173.85 442.06 167.87"/><polygon class="cls-2" points="391.52 493.05 385.81 491.91 381.03 494.8 379.99 500.04 383.29 504.55 389 505.68 393.77 502.79 394.81 497.55 391.52 493.05"/><polygon class="cls-2" points="418.09 192.52 412.38 191.38 407.61 194.27 406.57 199.51 409.86 204.01 415.57 205.15 420.35 202.26 421.39 197.02 418.09 192.52"/><polygon class="cls-2" points="428.79 454.81 415.31 452.12 403.94 459.44 401.34 472.47 409.03 483.59 422.51 486.28 433.89 478.97 436.49 465.93 428.79 454.81"/><polygon class="cls-2" points="398.74 171.79 394.47 170.94 390.9 173.11 390.12 177.02 392.58 180.39 396.85 181.24 400.42 179.08 401.2 175.16 398.74 171.79"/><polygon class="cls-2" points="438.87 88.66 434.6 87.81 431.03 89.97 430.25 93.88 432.72 97.25 436.98 98.1 440.55 95.94 441.33 92.03 438.87 88.66"/><polygon class="cls-2" points="405.52 222.32 401.25 221.47 397.68 223.64 396.9 227.55 399.37 230.92 403.63 231.77 407.2 229.6 407.98 225.69 405.52 222.32"/><path class="cls-1" d="M272,940.39h37.87V1270.2H272v-16.57h-.68s-5.74,16.57-25.35,16.57c-30.43,0-32.12-34.82-32.12-38.2v-98c0-3,1.69-38.2,32.12-38.2a26.61,26.61,0,0,1,25.35,16.9H272Zm0,193.23H251.72v98.72H272Z"/><path class="cls-1" d="M417.71,1134v68H361.25V1232c0,.34,0,.34.33.34h17.58c.34,0,.68,0,.68-.34v-20.62h37.87V1232a38.46,38.46,0,0,1-38.55,38.2H361.58a38.38,38.38,0,0,1-38.2-38.2v-98a38.38,38.38,0,0,1,38.2-38.2h17.58A38.46,38.46,0,0,1,417.71,1134Zm-37.87,0a1.19,1.19,0,0,0-.68-.34H361.58a.33.33,0,0,0-.33.34v30.09h18.59Z"/><path class="cls-1" d="M525.54,1134v20.62H487.68V1134l-.34-.34H469.42l-.34.34V1162l56.46,16.23V1232a38.38,38.38,0,0,1-38.2,38.2H469.42a38.38,38.38,0,0,1-38.2-38.2v-18.26h37.86V1232a.33.33,0,0,0,.34.34h17.92a.33.33,0,0,0,.34-.34v-25l-56.46-16.23V1134a38.38,38.38,0,0,1,38.2-38.2h17.92A38.38,38.38,0,0,1,525.54,1134Z"/><path class="cls-1" d="M539.73,1095.76H577.6V1270.2H539.73Z"/><path class="cls-1" d="M649.26,1095.76h37.87v197.77a38.16,38.16,0,0,1-38.2,38.2H633.37a38.23,38.23,0,0,1-38.53-38.2v-14.88H633v14.88c0,.34,0,.34.33.34h15.56a.33.33,0,0,0,.33-.34v-39.9h-1s-5.75,16.57-25.35,16.57c-30.43,0-31.78-34.82-31.78-38.2v-98c0-3,1.35-38.2,31.78-38.2a26.62,26.62,0,0,1,25.35,16.9h1Zm0,37.86H629v98.72h20.28Z"/><path class="cls-1" d="M796.66,1134V1270.2H758.79V1133.62H738.51v135.9l-37.86.68V1095.76h37.86v16.9h.68s6.08-16.9,25.69-16.9C795.31,1095.76,796.66,1130.92,796.66,1134Z"/><path class="cls-1" d="M904.5,1134v20.62H866.63V1134l-.33-.34H848.38l-.34.34V1162l56.46,16.23V1232a38.38,38.38,0,0,1-38.2,38.2H848.38a38.38,38.38,0,0,1-38.2-38.2v-18.26H848V1232a.33.33,0,0,0,.34.34H866.3a.33.33,0,0,0,.33-.34v-25l-56.45-16.23V1134a38.38,38.38,0,0,1,38.2-38.2H866.3A38.38,38.38,0,0,1,904.5,1134Z"/><polygon class="cls-2" points="473.19 558.23 473.19 558.23 473.19 558.23 473.19 558.23"/><path class="cls-2" d="M529.81,331.1a44.5,44.5,0,0,1-.15,5.3,21.48,21.48,0,0,1-1.09,5.08,9.63,9.63,0,0,1-2.71,4.13,7.39,7.39,0,0,1-2.06,1.21,5.87,5.87,0,0,1-2.24.38h-.19A16.64,16.64,0,0,1,513.2,346l-3.4-1.61c-.89-.5-1.76-1-2.61-1.61l-7-5.57c-1.49-1.36-2.92-2.77-4.37-4.22s-3.06-2.86-4.65-4.21A124,124,0,0,0,481.4,321a99.22,99.22,0,0,0-21.92-11.9,78.11,78.11,0,0,0-12-3.5,50.16,50.16,0,0,0-12.4-1.11l0,.2a36.84,36.84,0,0,1,12.16,3.09,99.64,99.64,0,0,0-18.49,3.47,29.91,29.91,0,0,0,4.38,12.82c4.58,9,13.75,20.12,31.75,24.35,1.28.36,2.56.73,3.85,1.07a71.43,71.43,0,0,0,13.11,1.79,46.9,46.9,0,0,0,13.19-1.25,40.88,40.88,0,0,0,5.37-1.82,97.26,97.26,0,0,1,11-.81,18.8,18.8,0,0,0,10.19,1.43h-.18a7.47,7.47,0,0,0,3-.59,7.87,7.87,0,0,0,2.45-1.6,10.87,10.87,0,0,0,2.8-4.86,19.1,19.1,0,0,0,.74-5.39,35.28,35.28,0,0,0-.36-5.35Zm-36.3,15.95c-16.43,3-26.81-2.08-26.81-2.08-19.17-4.07-25.13-24.37-25.13-24.37,20.43-9.52,32.5,2.52,46.21,13.49h0l.2.14,1.21,1c1.88,1.57,5.12,4.66,6.61,8.34A3.86,3.86,0,0,1,493.51,347.05Z"/><path class="cls-2" d="M685.11,320.87l.06-.11,0,0a28.55,28.55,0,0,0,2.6-9.49A100.77,100.77,0,0,0,670,307.88a44.8,44.8,0,0,1,11.44-3.15,60.63,60.63,0,0,0-6.08.32,39.9,39.9,0,0,1,6.08-.32l0-.2a50.16,50.16,0,0,0-12.4,1.11,77.78,77.78,0,0,0-12,3.5l-1,.38c-.51.19-.79.31-.79.31h0A101,101,0,0,0,635.16,321a124,124,0,0,0-9.81,7.74c-1.59,1.35-3.11,2.79-4.65,4.21s-2.88,2.86-4.37,4.22l-7,5.57c-.85.57-1.72,1.11-2.61,1.61l-3.4,1.61a16.67,16.67,0,0,1-8.17,1.21H595a5.92,5.92,0,0,1-2.25-.38,7.48,7.48,0,0,1-2-1.21,9.54,9.54,0,0,1-2.71-4.13,21,21,0,0,1-1.09-5.08,42.49,42.49,0,0,1-.15-5.3h-.2a35.28,35.28,0,0,0-.37,5.35,19.11,19.11,0,0,0,.75,5.39,10.69,10.69,0,0,0,2.8,4.86,7.82,7.82,0,0,0,2.44,1.6,7.52,7.52,0,0,0,3,.59H595a18.8,18.8,0,0,0,10.19-1.43,97.26,97.26,0,0,1,11,.81,40.75,40.75,0,0,0,5.36,1.82,41.29,41.29,0,0,0,4.49.86c8.08,1.24,20.4.6,38-6.51,0,0,9.18-3.34,18.7-19.12A33.13,33.13,0,0,0,685.11,320.87ZM649.85,345s-10.37,5.09-26.8,2.08a3.86,3.86,0,0,1-2.26-3.53c1.48-3.68,4.73-6.77,6.6-8.34l1.22-1,.2-.14h0c13.72-11,25.79-23,46.22-13.49A49.7,49.7,0,0,1,649.85,345Z"/><path class="cls-2" d="M1012.21,420.61l-.3,4.22C1012.15,422.24,1012.21,420.61,1012.21,420.61Z"/><path class="cls-2" d="M296.49,239.22c.06-.54.07-.84.07-.84C296.54,238.66,296.51,238.93,296.49,239.22Z"/><path class="cls-2" d="M820.7,242.37c-.14-1.2-.26-2.42-.36-3.71A22.05,22.05,0,0,0,820.7,242.37Z"/><path class="cls-2" d="M1067,574.23l-41.42,0h0a1.3,1.3,0,0,0-.21,0,174,174,0,0,0,1.54-22.45,189.74,189.74,0,0,0-2.77-33.14c-.43-2.36-.91-4.72-1.44-7.06-1.76-10.76-4.9-21.31-11-29.93l-.12-.16c-.59-1.06-1.21-2.1-1.85-3.13a64.23,64.23,0,0,0,11.32-15.46,70.58,70.58,0,0,0,5.76-9.3,104.09,104.09,0,0,0,9.2-27.7,186.44,186.44,0,0,0,3-29c.33-9.72.15-19.45-.32-29.14a263.84,263.84,0,0,0-2.75-29.07,118.83,118.83,0,0,0-3.26-14.34c-.72-2.35-1.51-4.69-2.47-7a51.7,51.7,0,0,0-3.27-6.69,41.82,41.82,0,0,0-9.61-11.46,57.69,57.69,0,0,0-12.69-7.67l-1.67-.76-1.76-.71A29.5,29.5,0,0,0,997.6,289a31.25,31.25,0,0,0-7.52-.62,47.16,47.16,0,0,0-14.53,3.05,70.56,70.56,0,0,0-10.35,4.82l1-3q1.88-4.58,3.44-9.27a121.25,121.25,0,0,0,3.92-14.86,81.08,81.08,0,0,0,1.6-15.3c0-1.57,0-3.14-.17-4.71a30.21,30.21,0,0,0-.64-5.11,42.46,42.46,0,0,0-1.34-5.42,32.41,32.41,0,0,0-7.9-13.19,59.68,59.68,0,0,0-12.49-9.05,143.82,143.82,0,0,0-28.5-11.56,284.22,284.22,0,0,0-29.93-7.12q-7.56-1.39-15.19-2.44l-3.82-.48c-1.27-.13-2.51-.35-3.78-.53L863.81,193c-10.08-1.68-20.14-3.56-30.11-5.82-5-1.13-9.94-2.36-14.83-3.78a98.79,98.79,0,0,1-14.18-5.09,10.29,10.29,0,0,1-1.29-1.72,18.57,18.57,0,0,1-1.13-2.11,29.84,29.84,0,0,1-1.65-4.56,48.19,48.19,0,0,1-1.56-9.66,91.87,91.87,0,0,1,1.08-19.71c.05-.41.12-.82.17-1.24s.12-.79.19-1.18c.14-.79.32-1.58.53-2.36a19.4,19.4,0,0,1,1.74-4.4,7.7,7.7,0,0,1,3-3.17,5.46,5.46,0,0,1,4.14-.25,16.83,16.83,0,0,1,4.19,2.11c1.39.87,2.75,1.81,4.1,2.76,2.7,1.91,5.36,3.89,8,5.88,5.32,4,10.62,8,16,11.92s10.89,7.73,16.71,11.12a54.17,54.17,0,0,0,9.21,4.39,21,21,0,0,0,2.57.68c.44.08.9.14,1.36.18l.71,0h.65a18.42,18.42,0,0,0,5.28-.73,7.05,7.05,0,0,0,2.64-1.47,4.49,4.49,0,0,0,1.39-3,7.12,7.12,0,0,0-.56-2.95,14.93,14.93,0,0,0-1.26-2.42,44.47,44.47,0,0,0-6.76-7.68c-4.6-4.71-9.09-9.67-13.66-14.5s-9.19-9.65-13.87-14.4A393.7,393.7,0,0,0,817.4,92.55a136.79,136.79,0,0,0-16.29-11.8,46.74,46.74,0,0,0-9.23-4.36c-1.68-.53-3.29-.83-4.92-1.23s-3.28-.69-4.92-1a189.87,189.87,0,0,0-19.85-2.77,199.63,199.63,0,0,0-20-.84h.07A19.37,19.37,0,0,0,734,72.18a17.66,17.66,0,0,0-3.61,2.17l-1.59,1.33-1.49,1.44a35.79,35.79,0,0,0-8.13,14.17,66.86,66.86,0,0,0-2.77,15.9,106.85,106.85,0,0,0-.67,12.74l-.87-1.55L693.51,80.55,671.94,42.83l0-.07,0,0a8.89,8.89,0,0,0-.73-.85c-.24-.26-.49-.46-.73-.7a17.54,17.54,0,0,0-1.53-1.2A24.56,24.56,0,0,0,665.62,38a37.34,37.34,0,0,0-7-2.55,62.61,62.61,0,0,0-14.5-1.73c-2.45,0-4.8,0-7.18,0l-7.14,0c-4.76,0-9.53,0-14.29-.1-9.54-.11-19.07-.31-28.6-.49l-14.3-.31c-1.21,0-2.35-.07-3.61-.08l-3.59.12-7.15.21c-19.07.54-38.14,1.09-57.21,1.33-9.54.13-19.06.25-28.62.15a62.16,62.16,0,0,0-14.29,1.69,37,37,0,0,0-6.81,2.48,23.75,23.75,0,0,0-3.15,1.87,12.94,12.94,0,0,0-2.78,2.53h0v0L423.64,80.88c-7.24,12.55-14.53,25.06-21.7,37.65-.38.66-.76,1.32-1.13,2a107.67,107.67,0,0,0-.66-13.33,66.77,66.77,0,0,0-2.77-15.9,35.79,35.79,0,0,0-8.13-14.17l-1.49-1.44-1.59-1.33a17.66,17.66,0,0,0-3.61-2.17,19.41,19.41,0,0,0-8.23-1.67h.07a199.63,199.63,0,0,0-20,.84,190.42,190.42,0,0,0-19.86,2.77c-1.63.35-3.28.64-4.91,1s-3.24.7-4.92,1.23a46.74,46.74,0,0,0-9.23,4.36,136.9,136.9,0,0,0-16.3,11.8,395.68,395.68,0,0,0-29.28,27.29q-7,7.13-13.86,14.4c-4.57,4.83-9.07,9.79-13.66,14.5a44.47,44.47,0,0,0-6.76,7.68,14.18,14.18,0,0,0-1.26,2.42,7.12,7.12,0,0,0-.56,2.95,4.49,4.49,0,0,0,1.39,3,7,7,0,0,0,2.63,1.47,18.53,18.53,0,0,0,5.29.73h.64l.71,0c.47,0,.93-.1,1.37-.18a21,21,0,0,0,2.57-.68,54.53,54.53,0,0,0,9.21-4.39c5.82-3.39,11.3-7.22,16.71-11.12s10.71-7.93,16-11.92c2.66-2,5.33-4,8-5.88,1.35-1,2.71-1.89,4.09-2.76a17.06,17.06,0,0,1,4.2-2.11,5.46,5.46,0,0,1,4.14.25,7.76,7.76,0,0,1,3,3.17,19.4,19.4,0,0,1,1.74,4.4c.21.78.39,1.57.53,2.36.07.39.13.79.18,1.18s.12.83.18,1.24a91.87,91.87,0,0,1,1.08,19.71,48.91,48.91,0,0,1-1.56,9.66,29.84,29.84,0,0,1-1.65,4.56,22.4,22.4,0,0,1-1.13,2.11,10.86,10.86,0,0,1-1.29,1.72,98.79,98.79,0,0,1-14.18,5.09c-4.89,1.42-9.85,2.65-14.83,3.78-10,2.26-20,4.14-30.12,5.82l-7.57,1.21c-1.28.18-2.51.4-3.78.53l-3.82.48q-7.63,1-15.19,2.44a284.22,284.22,0,0,0-29.93,7.12A143.82,143.82,0,0,0,164,216.35a59.68,59.68,0,0,0-12.49,9.05,32.41,32.41,0,0,0-7.9,13.19,42.46,42.46,0,0,0-1.34,5.42,30.21,30.21,0,0,0-.64,5.11q-.18,2.35-.18,4.71a81.92,81.92,0,0,0,1.61,15.3A119.47,119.47,0,0,0,146.93,284q1.56,4.69,3.44,9.27l1,3A70.56,70.56,0,0,0,141,291.43a47.16,47.16,0,0,0-14.53-3.05A31.21,31.21,0,0,0,119,289a29,29,0,0,0-3.67,1.05l-1.77.71-1.67.76a57.92,57.92,0,0,0-12.69,7.67,42,42,0,0,0-9.6,11.46,51.7,51.7,0,0,0-3.27,6.69c-1,2.29-1.75,4.63-2.47,7a118.83,118.83,0,0,0-3.26,14.34,261.43,261.43,0,0,0-2.75,29.07c-.47,9.69-.65,19.42-.32,29.14a186.44,186.44,0,0,0,3,29,103.74,103.74,0,0,0,9.2,27.7,71.58,71.58,0,0,0,5.75,9.3,64.53,64.53,0,0,0,11.33,15.46c-.64,1-1.26,2.07-1.86,3.13l-.11.16c-6.09,8.62-9.22,19.17-11,29.93-.52,2.34-1,4.7-1.43,7.06a189.74,189.74,0,0,0-2.77,33.14,176.7,176.7,0,0,0,1.43,21.68l-31.94,0a40.74,40.74,0,0,0,0,81.48c.8,0,1.59-.06,2.36-.11l.36,0,60,.17h0c1.45,2,2.92,4,4.42,6q5.09,6.6,10.53,12.91c7.24,8.43,14.93,16.45,22.94,24.14a415.28,415.28,0,0,0,109.06,75.11l.14.11c.13.09.26.19.38.26a6.59,6.59,0,0,0,.76.43,8.6,8.6,0,0,0,1.54.6,12.08,12.08,0,0,0,3.05.47,19.26,19.26,0,0,0,5.73-.78,30.16,30.16,0,0,0,5.17-2c1.59-.81,3.22-1.58,4.74-2.43,6.19-3.28,12.26-6.7,18.35-10.1Q326.86,749.45,345,739l24.11-14L421,696.44q2.37,2.74,4.34,5.06a23.06,23.06,0,0,1,2.63,2.78,31.71,31.71,0,0,1,4.48,7.17,27.68,27.68,0,0,1,2,5.91,16.84,16.84,0,0,1,0,10.82c-3.28,7.3-10.26,21.52-17.6,36.22l.51-1.12s-.64,1.31-1.69,3.49c-8.14,16.27-16.48,32.69-20.49,40.56a21.1,21.1,0,0,0-1.34,2.63l-1.1,2.16a9.86,9.86,0,0,0-.21,6.49,5.86,5.86,0,0,0,.16.83l.19.34a18,18,0,0,0,1.37,3.05,243,243,0,0,0,14.33,23.42c1.07,1.69,1.94,3,2.46,3.65a15,15,0,0,0,1.9,1.92c.69.79,1.37,1.52,2,2.15.27.66,1.67,2.77,8.84,3.09.68,0,1.92.05,3.62.05,17.72,0,85.12-1.55,85.87-1.57l.14,0c.11,0,11.25-3.76,13.78-18,2.49-14,7.84-84.14,7.9-84.93,0-.15-.39-3.68-3.19-5.1-2.22-1.13-5.26-.57-9,1.67-10.79,6.4-15.53,23.59-19.06,41.21-3.41,17.08-11.12,28.36-21.2,31.14-16.5,3.17-24.74-3.6-28.12-5.56a45.46,45.46,0,0,0,1.05-7c.79-1.53,1.72-3.1,2.62-4.51,11.53-13,69.45-84.73,78.45-101.69a29.81,29.81,0,0,0,4.59-15.19c0-.45,0-.92,0-1.41A38,38,0,0,0,536.91,669c-1.59-4.07-3.52-8.41-5.69-12.89l54,.16c-2.14,4.42-4,8.71-5.61,12.73a38.1,38.1,0,0,0-4.33,17.21c0,.44,0,.86,0,1.27a32.22,32.22,0,0,0,1.26,7.83v.07h0a25.91,25.91,0,0,0,3.27,7.29,102.2,102.2,0,0,0,5.82,9.2h0c9.48,13.79,27,36.37,42.68,56h0c13.35,16.73,25.37,31.31,30,36.52l.23.36,1.76,3,.22.59a44.86,44.86,0,0,0,1.21,7.75c-3.53,2.12-11.76,8.51-27.87,5.41-10.08-2.78-17.79-14.07-21.2-31.14-3.53-17.62-8.28-34.81-19.06-41.21-3.78-2.24-6.83-2.8-9-1.67-2.8,1.42-3.17,4.95-3.19,5.19.06.73,5.41,73.42,7.9,87.44,2.54,14.38,13.78,15.46,13.92,15.47.75,0,68.16,1.57,85.87,1.57,1.69,0,2.93,0,3.62-.05,7.17-.32,8.57-2.43,8.83-3.09,8.39-8.1,20.22-30.2,20.71-31.13a18.47,18.47,0,0,0,1.39-3.09l.18-.31a5.84,5.84,0,0,0,.16-.84,9.84,9.84,0,0,0-.22-6.49c0-.07-.42-.83-1.1-2.16a22.33,22.33,0,0,0-1.33-2.62c-4-7.86-12.35-24.28-20.49-40.56-1-2.18-1.69-3.49-1.69-3.49l.51,1.12c-8.78-17.59-17.06-34.49-19.07-39.66l0-1.91c1.1-6.43,4.83-13.31,8.24-18.54,1.83-2.2,4.08-4.84,6.68-7.85L747.48,725l24.11,14q18.09,10.49,36.36,20.7c6.09,3.4,12.16,6.82,18.35,10.1,1.52.85,3.15,1.62,4.73,2.43a30.81,30.81,0,0,0,5.17,2,19.28,19.28,0,0,0,5.74.78,12.08,12.08,0,0,0,3-.47,8.23,8.23,0,0,0,1.53-.6,5.25,5.25,0,0,0,.76-.43,4.4,4.4,0,0,0,.39-.26l.14-.11A415.07,415.07,0,0,0,956.86,698c8-7.69,15.71-15.71,22.95-24.14q5.43-6.3,10.53-12.91c.92-1.21,1.82-2.41,2.72-3.63l.09,0,73.91.2,71.23-44.36ZM973,295c1.1-.47,2.22-.91,3.35-1.32a44.47,44.47,0,0,1,13.79-2.77,28.39,28.39,0,0,1,6.9.64,25.17,25.17,0,0,1,3.31,1l1.59.66,1.63.75a55,55,0,0,1,12,7.42,39,39,0,0,1,8.85,10.77c4.62,8.21,6.91,17.64,8.47,27.06a263.67,263.67,0,0,1,2.82,28.72c1,18.23,1.35,36.61-1.32,54.64l-1.07,1.82q-.39,2.64-.93,5.18c-14.62,29.67-25.7,34.91-32,34.62,1.73-1.62,4-4.52,6.4-9.74a46.48,46.48,0,0,0,3.75-10,102.17,102.17,0,0,0,2.12-11.85c.25-2,.46-4,.67-5.95l.3-3a24.72,24.72,0,0,0,.16-3.14,11.13,11.13,0,0,0-1.93-6.49,8.14,8.14,0,0,0-2.78-2.34,11,11,0,0,0-3.29-1.06,21.49,21.49,0,0,0-6.41,0,47.91,47.91,0,0,0-6,1.26,142.51,142.51,0,0,0-22.44,8.82c-3.59,1.75-7.14,3.58-10.66,5.45s-7,3.71-10.53,5.43-7.16,3.27-10.81,4.75-7.35,2.85-11.08,4.14A188.72,188.72,0,0,1,905,446.81q-4.87,1.06-9.8,1.85c-3.21-.26-6.45-.55-9.68-.85h0c-3.33-.31-6.65-.64-9.93-1-84.74-10.33-137-65.6-137.62-70-.31-2.1.79-2.77,2.08-2.88l3.38.53c6.37,1.08,13.91,2.66,20.39,4.11l.16.11c2.08.64,4.11,1.23,6.12,1.81l1.44.47,3.8,1.09c2.55.71,5.08,1.47,7.63,2.13,5.14,1.21,10.24,2.58,15.45,3.48a256.61,256.61,0,0,0,31.35,4.11v-.1c14.81,1.11,22.94.24,22.94.24A379.71,379.71,0,0,1,790.1,384c14.72,1.95,32.2,2,46.76-4.4,31.95-14,40.21-24,45.41-27.87C887.27,348,962.45,304.3,973,295Zm19.25,165.14a40,40,0,0,0-13.9-5.7,62.54,62.54,0,0,0-8.34-1.06h-.15c-7.06-.81-8.19-.87-19.61-1.35-3.44-.14-11.56-.48-22.13-1.07-3.43-.7-6-1.51-6.25-2.42-.49-1.63,6.46-5.41,15.37-9.65q6.72-2.53,13.24-5.57c3.53-1.66,7-3.46,10.44-5.28A112.77,112.77,0,0,0,971,422.93c.24-.12.49-.25.74-.36a141.89,141.89,0,0,1,22.06-8.85,46.11,46.11,0,0,1,5.8-1.26,20,20,0,0,1,5.88-.08,7.49,7.49,0,0,1,5,2.71,9.75,9.75,0,0,1,1.69,5.52,59.08,59.08,0,0,1-.33,5.93c-.11,1.27-.23,2.53-.35,3.8l.38-5.51c-.95,10.53-4.83,37-19.66,35.28ZM775.05,380.25c.88.22,1.76.45,2.64.64l-.92-.16ZM735.64,73a17.86,17.86,0,0,1,6.48-1h.07c6.6,0,13.24.44,19.83,1.13s13.15,1.64,19.63,3c1.61.36,3.24.66,4.84,1.07s3.26.73,4.75,1.23A44.25,44.25,0,0,1,800,82.63a135.77,135.77,0,0,1,15.91,11.73c10.12,8.55,19.65,17.81,29,27.28,4.65,4.74,9.23,9.55,13.8,14.38s9.06,9.71,13.77,14.51c1.24,1.21,2.38,2.27,3.48,3.49a28.92,28.92,0,0,1,3,3.74,7.64,7.64,0,0,1,1.46,3.9,2.07,2.07,0,0,1-.63,1.39,4.67,4.67,0,0,1-1.7.93,16.33,16.33,0,0,1-4.57.63H872.3a10.56,10.56,0,0,1-1.11-.15,17.46,17.46,0,0,1-2.26-.58,51.3,51.3,0,0,1-8.8-4.14c-5.71-3.28-11.17-7.05-16.58-10.89s-10.72-7.84-16.08-11.8c-2.68-2-5.36-4-8.11-5.87-1.37-1-2.76-1.9-4.19-2.79-.72-.45-1.45-.89-2.22-1.3a13,13,0,0,0-2.49-1,7.46,7.46,0,0,0-5.57.41,9.73,9.73,0,0,0-3.79,4,26.85,26.85,0,0,0-2.82,9.88,93.5,93.5,0,0,0-1,20.08,50.23,50.23,0,0,0,1.67,10,31.21,31.21,0,0,0,1.77,4.81,21,21,0,0,0,1.24,2.28,11.83,11.83,0,0,0,1.66,2.15l.08.08.12.06A99.32,99.32,0,0,0,818.42,185c5,1.41,9.94,2.63,15,3.74,10,2.22,20.1,4.05,30.22,5.69l7.6,1.17c1.26.17,2.55.4,3.83.51l3.8.47c5.06.66,10.11,1.46,15.14,2.35,5.79,1,11.56,2.22,17.28,3.58,11.48,3.87,43.24,15.19,48.91,23.89,3.48,5.33,8.12,8.7,9.74,18-2.4,13.37-13.46,58.27-57.15,84.88q-18.24,11.36-36.64,22.46l-1.79,1.07C780.36,396,740.78,366.46,740.78,366.46s-.54.07-1.25.22l-.48-.22c-3.54-1.55-7-3.19-10.51-4.88,21.11-1.06,34.18-9.19,39.49-13.29,1.15-.58,2.3-1.18,3.43-1.8A117.14,117.14,0,0,0,794.17,330,160.69,160.69,0,0,0,813,309.17l0,0,0,0c1.52-2.32,3.11-4.59,4.75-6.84a120.8,120.8,0,0,0,10.38-11c6.5-8.14,10.65-11.08,10.65-11.08,15.56-16.38,29.2-26.28,40.29-32.23.56-.27,1.12-.56,1.69-.82a104,104,0,0,1,14.54-5.31,87.56,87.56,0,0,1,15.28-2.57l0-.2c-.37,0-.74.07-1.11.1a42.6,42.6,0,0,0-13.17,1.75,81.05,81.05,0,0,1,9.23-1.36,90.23,90.23,0,0,0-10.31,1.88c-2,.52-3.89,1.12-5.81,1.76a69.81,69.81,0,0,1,6.89-2.28C862.24,248,839,275.61,839,275.61c-2.87-15,4.27-26.05,10.18-32.31l1.48-1.5.77-.73,2.81-2.39c1.12-.88,1.83-1.33,1.83-1.33-.36.21-.7.44-1,.66l.63-.53-.91.71c-18.59,12-19.71,29.94-19.71,29.94-10.4-10.29-13.43-20.48-14.32-25.76.14,1.18.3,2.34.47,3.43l-.16-.71-.16-1.1-.31-2.18.25,2.19.13,1.1.21,1.09.45,2.17.23.8a51.63,51.63,0,0,0,4.31,12.68l-18.6-4.34-1.2-.31c-1.11-.27-2.22-.54-3.34-.79h0c-1.47-.34-3-.67-4.42-1l-.74-.17h0q-4.07-.87-8.14-1.63c-47-12.51-43.58-44.35-43.58-44.35v0c.47-1.66.92-3.32,1.39-5,.59-2.21,1-4.48,1.52-6.71l0,.13a32.23,32.23,0,0,0,.42-11.31,41.56,41.56,0,0,0-3-10.78c-.73-1.72-1.57-3.4-2.43-5l-2.59-4.8-5.24-9.52q-3.15-5.72-6.34-11.41c-3.09-9.89-.79-16.43-3.61-37.43S732.31,76.11,735.64,73ZM146.14,249.41c.62-13.33,6.22-16.87,10.26-23.06,5.68-8.7,37.44-20,48.91-23.89,5.73-1.36,11.5-2.54,17.29-3.58,5-.89,10.08-1.69,15.14-2.35l3.8-.47c1.28-.11,2.57-.34,3.83-.51l7.6-1.17c10.11-1.64,20.2-3.47,30.22-5.69,5-1.11,10-2.33,14.95-3.74a99.2,99.2,0,0,0,14.58-5.17l.13-.06.08-.08a11.83,11.83,0,0,0,1.66-2.15,22.89,22.89,0,0,0,1.24-2.28,32.29,32.29,0,0,0,1.77-4.81,50.23,50.23,0,0,0,1.67-10,93.5,93.5,0,0,0-1-20.08,26.66,26.66,0,0,0-2.82-9.88,9.64,9.64,0,0,0-3.78-4,7.46,7.46,0,0,0-5.57-.41,13.38,13.38,0,0,0-2.5,1c-.76.41-1.49.85-2.21,1.3-1.44.89-2.82,1.84-4.2,2.79-2.74,1.92-5.43,3.89-8.11,5.87-5.35,4-10.67,7.94-16.07,11.8s-10.88,7.61-16.59,10.89a50.61,50.61,0,0,1-8.8,4.14,16.91,16.91,0,0,1-2.25.58,10.92,10.92,0,0,1-1.11.15h-1.13a16.33,16.33,0,0,1-4.57-.63,4.72,4.72,0,0,1-1.71-.93,2.06,2.06,0,0,1-.62-1.39,7.55,7.55,0,0,1,1.46-3.9,27.29,27.29,0,0,1,3-3.74c1.1-1.22,2.24-2.28,3.48-3.49,4.71-4.8,9.18-9.69,13.77-14.51s9.14-9.64,13.8-14.38c9.31-9.47,18.85-18.73,29-27.28a134.12,134.12,0,0,1,15.91-11.73,44,44,0,0,1,8.74-4.23c1.49-.5,3.16-.83,4.74-1.23s3.23-.71,4.85-1.07c6.48-1.33,13-2.27,19.63-3S367.77,72,374.37,72h.07a17.86,17.86,0,0,1,6.63,1.06c3.55,3.22,13,13.92,10.19,34.76s-1,27.23-4.17,36.88q-3.29,5.82-6.54,11.66l-5.25,9.52-2.6,4.78c-.87,1.59-1.71,3.26-2.45,5a41.83,41.83,0,0,0-3,10.76,32,32,0,0,0,.4,11.28l0-.12c.51,2.24.92,4.51,1.5,6.71.33,1.17.64,2.34,1,3.52l-.37,1.49s3.53,32.85-45.82,44.93c-2.79.54-5.58,1.12-8.35,1.75l-2.77.46.15.15-2.72.64a213,213,0,0,0-20.86,6.29c3.12-5,6.13-12.76,7.11-24.26-.08.65-.23,1.66-.52,3l0-.39-.08.51c-1.2,5.33-4.71,15.33-14.95,25.47,0,0-.78-18.83-20.65-30.79a34.72,34.72,0,0,1,3.46,2.72l-2.88-2.24,4.53,3.86c.79.81,1.59,1.61,2.38,2.41,5.63,6.38,11.95,17.11,9.19,31.52,0,0-22.45-26.94-56-34.26a72.9,72.9,0,0,1,7.12,2.47c-2.26-.77-4.54-1.48-6.85-2.1a86.52,86.52,0,0,0-10.36-1.88A78,78,0,0,1,221,241c-7.25-2.07-12.09-2-14.08-1.91l-1-.09v.2a87.88,87.88,0,0,1,15.28,2.57,104,104,0,0,1,14.54,5.31c.74.34,1.48.71,2.21,1.07,10.84,6,24.09,15.7,39.22,31.64,0,0,4.15,2.94,10.65,11.08A138.3,138.3,0,0,0,299.29,303q2.18,3,4.21,6.1l0,0,0,0A160.69,160.69,0,0,0,322.39,330a116.84,116.84,0,0,0,22.71,16.54c1.13.62,2.28,1.22,3.43,1.8,5.31,4.1,18.38,12.23,39.49,13.29-3.48,1.69-7,3.33-10.51,4.88-4.78,2.17-9.63,4.16-14.47,6.2l-.71.28c-20,5.53-60.59,8.19-126.39-23.95Q213.36,335.33,191,321.28l-1.32-.83C160.16,296.72,149.64,264.73,146.14,249.41Zm-62.74,180c-.34-1.6-.64-3.24-.88-4.91l-.38-1.94c-2.67-18-2.36-36.41-1.32-54.64a263.67,263.67,0,0,1,2.82-28.72c1.56-9.42,3.85-18.85,8.47-27.06A39,39,0,0,1,101,301.34a55.31,55.31,0,0,1,12-7.42l1.63-.75,1.59-.66a25.48,25.48,0,0,1,3.3-1,28.52,28.52,0,0,1,6.91-.64,44.47,44.47,0,0,1,13.79,2.77c1.13.41,2.25.85,3.35,1.32,4.72,4.16,22.34,15.18,40.83,26.43l11.53,7.92h1.56c18.27,11,34.58,20.69,36.82,22.37,5.2,3.89,13.46,13.84,45.41,27.87,14.3,6.28,31.42,6.34,46,4.5a380.19,380.19,0,0,1-62.18,7.8s8.26.89,23.29-.26v.12a256.87,256.87,0,0,0,31.35-4.11c5.2-.9,10.3-2.27,15.45-3.48,2.55-.66,5.08-1.42,7.62-2.13l3.81-1.09,3.77-1.23.91-.29,2.53-.76c6.76-1.51,14.76-3.2,21.4-4.3l-.24.08.29-.09,2.91-.45c1.36.07,2.57.7,2.25,2.89-.65,4.4-52.09,58.89-135.72,69.8-7.92.88-16.1,1.64-24.06,2.28q-3.84-.56-7.65-1.25A187.6,187.6,0,0,1,166.21,433c-3.58-1.7-7.1-3.53-10.61-5.39s-7.06-3.65-10.65-5.37a141.9,141.9,0,0,0-22.14-8.83,46.34,46.34,0,0,0-5.84-1.26,20.38,20.38,0,0,0-6-.07,7.86,7.86,0,0,0-5.2,2.85,10,10,0,0,0-1.73,5.7,53.71,53.71,0,0,0,.34,6c.17,2,.34,4,.56,5.94a97.86,97.86,0,0,0,1.87,11.78,44.69,44.69,0,0,0,4.05,11.2,28.36,28.36,0,0,0,6.76,8.33C111.89,465.38,99.88,462.91,83.4,429.38Zm37.79,32.56c-7.26-3.52-11.24-11.53-13.36-18.12a99.27,99.27,0,0,1-1.55-11.46q-.25-3-.43-5.92l-.18-3a21.93,21.93,0,0,1,0-2.8,8.5,8.5,0,0,1,1.5-4.74,6.16,6.16,0,0,1,4.12-2.16,19,19,0,0,1,5.46.12,44.62,44.62,0,0,1,5.6,1.25c2.87.83,5.7,1.84,8.51,2.94,8.72,4.84,26.31,14.72,34.38,20.17,8.66,5.85,23.08,9.71,23.89,12.64-10.91.62-19.29,1-22.8,1.11-11.42.48-11.42.48-19.61,1.35h-.15a50.06,50.06,0,0,0-8.35,1.06,43.87,43.87,0,0,0-15.36,6.66c-.47.32-.92.66-1.37,1l-.24-.12.21-.25A3,3,0,0,1,121.19,461.94ZM61.76,652.79l-.44,0c-.76.06-1.48.11-2.21.11a38.74,38.74,0,0,1,0-77.48l32.23,0c.46,3.17,1,6.33,1.68,9.47s1.58,6.2,2.47,9.26c-2.5-.08-5-.15-7.49-.18l-8,0-8,.06q-4,.06-8,.2,4,.13,8,.19l8,.05,8-.06q3.75-.06,7.5-.19,1,3.39,2,6.77c1.17,3.74,2.44,7.45,3.74,11.14Q95.92,612,90.56,612l-11.32-.05L67.92,612c-3.77,0-7.54.1-11.32.2q5.67.14,11.32.18l11.32.06,11.32-.07c3.57,0,7.15-.1,10.72-.19.54,1.53,1.07,3.06,1.63,4.58,1.9,5.06,3.91,10.08,6.11,15q-4.12-.12-8.25-.17l-9.12-.05-9.11.06q-4.56.06-9.12.2c3,.09,6.08.16,9.12.19l9.11,0,9.12-.06c2.76,0,5.51-.1,8.27-.18a165.8,165.8,0,0,0,7.72,15.29c1.15,2,2.39,3.95,3.67,5.88ZM479.54,822.13c-1.33.23-2.68.43-4,.55C477,822.53,478.33,822.33,479.54,822.13Zm104.4-172.56c-4.93.5-37,.89-48.33,0-3.37-.27-7.5-3.32-11.65-7.46-2-3.56-4-7.09-6-10.52l7,.07,11,0,22,.06,22-.09,11,0,7.72-.1c-1.82,3.1-3.63,6.28-5.4,9.49C589.25,645.72,585.65,649.39,583.94,649.57ZM508.55,594.1l16.88,0,33.75.07,33.75-.11L609.8,594l12.51-.1c-2.22,3.77-4.56,7.53-7,11.12-1.36,2-2.87,4.27-4.5,6.76l-10.38-.08-14.06,0-28.13-.06-28.14.1-14.06,0-10.24.09c-1.63-2.51-3.17-4.81-4.53-6.82-2.44-3.57-4.77-7.31-7-11.06ZM494.26,594c-3.7-6.3-7-12.61-9.79-18.19L632,575.9c-2.75,5.52-6,11.76-9.68,18l-12.55-.08-16.87,0-33.75-.06-33.75.1-16.88.05ZM516,612l14.06,0,28.14.06,28.13-.1,14.07,0,10.33-.09c-3.67,5.63-7.89,12.38-12.11,19.56l-7.76-.08-11,0-22-.06-22,.09-11,.06-7,.08c-4.21-7.18-8.42-13.92-12.09-19.55ZM641,822.68c-1.35-.12-2.69-.32-4-.55C638.23,822.33,639.59,822.52,641,822.68ZM992.77,652.42c-1.54,2.21-3.27,4.38-4.95,6.54q-5.13,6.45-10.61,12.61c-7.32,8.2-15,16.12-23,23.66S937.92,710,929.35,716.86s-17.46,13.38-26.52,19.6a457.7,457.7,0,0,1-57,33.21l-.55.4c0-.05,0,0,0,0l-.05,0a1,1,0,0,1-.15.11,4,4,0,0,1-.37.22l-.06,0c-123.86-52.06-114.55-82.27-114-83.58C748,662.67,790,658.36,809.59,657.7c-18.49,18.95-45.67,31.57-51.27,34-.4.11-.79.23-1.19.33a.12.12,0,0,0-.08.12.11.11,0,0,0,.12.08,75.58,75.58,0,0,0,12.56-3.76c4.09-1.55,8.09-3.35,12-5.26s7.81-3.94,11.64-6,7.58-4.38,11.29-6.68c7.43-4.62,14.7-9.51,21.67-14.8a232.57,232.57,0,0,0,20.09-16.87c3.18-3,6.27-6.1,9.22-9.34A112.44,112.44,0,0,0,864,619.39,55.68,55.68,0,0,0,870.48,608,104.93,104.93,0,0,0,875,595.67a69.31,69.31,0,0,0,2.76-12.86,45.87,45.87,0,0,0,.09-9.94h0c-.11-1.09-.27-2.18-.47-3.26a29.46,29.46,0,0,0-5.25-12.22,26.48,26.48,0,0,0-4.67-4.85,23.26,23.26,0,0,0-2.76-1.95,18.69,18.69,0,0,0-3.1-1.55h0l-.09,0a224.72,224.72,0,0,1-33.43-10,289.16,289.16,0,0,1-32-14.15q-6.08-3.08-12-6.47c-8.12-5-32.59-21.68-55.57-53.78-1.31-2.82-3.66-5.62-5.27-7.82-13.16-17.9-21.14-29.49-21.14-29.49.31,4.41,5.59,17.95,8.79,21l54.61,78.49c5.92,8.78,11.14,16.69,14.76,22.44,5.17,11.71,8.63,27.55,1.27,43.48l-37.27,44.74c-1.36,1.63-5.38,5.9-10.68,11.58l0,0-6,6.43,0,0c-13.74,14.83-31.63,34.67-37.57,45.07-1.88,2.2-4.34,5.36-7.5,9.9a13.29,13.29,0,0,0-3.82,10.06l-.34.75c-2.18,10.43,28,62.94,36.47,77.41,3.17,7.45,5.57,13.47,5.66,14.7.26,3.67-7.35,19.68-8.66,20.47s-10.76,16.8-12.86,18.37-50.93,1-56.18,1.5c-4.11.41-22.46.85-34.17.78l33.37.84c-20-.4-38.26-.82-38.64-.82-.06,0-.37,0-.84-.14,1.65.07,3.74.1,6.11.12l-6.32-.16c-2.73-.62-10-3.28-11.94-14.47-2.48-14-7.83-86.61-7.88-87.26,0,0,.34-3.15,2.64-4.32,1.9-1,4.62-.4,8.08,1.65,10.45,6.2,15.11,23.15,18.59,40.54,3.56,17.85,11.8,29.56,22.6,32.12,10,2.36,21.6,1.26,28.73-2.63a18.81,18.81,0,0,0,3.22,5.44s-1.45-4.69-.71-7.83a4.58,4.58,0,0,0,.27-.86c0-.1,0-.22,0-.33,4.85,5.77,12.37,8.25,12.37,8.25A50.29,50.29,0,0,1,665,810.46a51,51,0,0,0-4.42-8.76h0C655.4,793.29,647,782.81,637,771.89c-17.7-19.35-51.41-62-57.28-73.15-3.15-6-2.92-13.83-2-19.8a44.93,44.93,0,0,1,5.83-12.89s45-72.19,52-85.33a46,46,0,0,0,4.88-14.47h0a33.22,33.22,0,0,0,.57-5.8l.19.29c5.52,34.45-4.3,62.14-4.3,62.14,35.65-70.5-37.22-126-37.22-126h0c-22.28-18.83-41.33-20.56-41.33-20.56-16.45,3.55-30.35,11.52-41.85,21.16l.4-.61S490.69,516.81,477.38,548a57,57,0,0,0-4.19,10.27h0a74.71,74.71,0,0,0-3.28,21.22c-.65,13.49,2,28.1,9.72,43.43,0,0-9.82-27.69-4.3-62.14l.38-.58h0a43.28,43.28,0,0,0,5.34,20.55c5.3,10,32.89,54.64,45.57,75.06h0c3.9,6.28,6.39,10.27,6.39,10.27a48.65,48.65,0,0,1,7.19,19,29.53,29.53,0,0,1-4.43,17.09c-9.19,17.31-69.14,91.4-79,102.26a40.82,40.82,0,0,0-2.74,3.31c-3.35,3.89-9,10.17-16.19,17.43,0,0,7.95-2.62,12.77-8.75,0,.05,0,.1,0,.14l-.37.69c1.31,3-.44,8.69-.44,8.69a19.3,19.3,0,0,0,3.44-6c7.16,4,18.89,5.1,28.91,2.72,10.79-2.56,19-14.27,22.6-32.12,3.48-17.39,8.14-34.34,18.59-40.54,3.46-2.05,6.18-2.61,8.07-1.65,2.29,1.16,2.64,4.23,2.65,4.23-.06.73-5.41,70.77-7.88,84.74-2.33,13.13-12.15,16.94-13,17.26l-9.39.21c-10.84-.52-25.42-1.87-29.23-2.25-5.25-.52-54.85,1.31-56.95-.26s-11.55-17.58-12.86-18.37-8.92-16.8-8.66-20.47c.09-1.23,2.49-7.25,5.66-14.7,8-13.61,35.14-60.87,36.53-75.12h0c2.62-12-16.76-30.49-16.76-30.49v0h0l0-.06c-7.87-10.56-20.87-25-31.6-36.57l0,0h0c-8.56-9.25-15.68-16.71-17.58-19L335,592.71c-7.35-15.93-3.89-31.77,1.28-43.48,3.62-5.75,8.86-13.68,14.78-22.48L405.82,448c3.7-3.8,11.47-20.56,10.6-23.86,0,0-8.84,11.73-23,32.43-1.54,2.25-3.12,5-5.42,8-23,32.1-47.45,48.78-55.58,53.78q-5.91,3.39-12,6.47a289.16,289.16,0,0,1-32,14.15,224.72,224.72,0,0,1-33.43,10l-.1,0h0a18.21,18.21,0,0,0-3.09,1.55,24.22,24.22,0,0,0-2.77,1.95,26.75,26.75,0,0,0-4.66,4.85,29.33,29.33,0,0,0-5.25,12.22,44,44,0,0,0-.38,13.21,66.84,66.84,0,0,0,2.31,11.32h0c.15.52.29,1,.45,1.54A103.16,103.16,0,0,0,246.08,608c.28.7.59,1.39.91,2.08l0,.05,0,0a59.68,59.68,0,0,0,5.53,9.25,110.77,110.77,0,0,0,8.34,10.13c3,3.24,6,6.34,9.22,9.34q7,6.6,14.54,12.58h0c1.62,1.44,4,2.86,5.71,4.26a19.88,19.88,0,0,0,2.36,1.86c6.21,4.59,12.63,8.88,19.17,13,3.72,2.3,7.48,4.54,11.29,6.68s7.71,4.14,11.65,6,7.92,3.71,12,5.26a75.58,75.58,0,0,0,12.56,3.76.09.09,0,0,0,.11-.08.1.1,0,0,0-.07-.12l-.58-.16c-4.57-2-32.74-14.78-51.71-34.26,19,.52,62.44,4.46,80.18,29.2.52,1.31,9.87,31.64-114.74,83.87a5.65,5.65,0,0,1-.79-.31,4.27,4.27,0,0,1-.38-.22l-.14-.11-.06,0,0,0-.55-.4a458.55,458.55,0,0,1-57-33.21q-13.59-9.33-26.51-19.6c-8.57-6.89-16.91-14.07-24.89-21.63s-15.66-15.46-23-23.66q-5.47-6.17-10.61-12.61c-1.68-2.16-3.41-4.33-5-6.54s-3-4.52-4.4-6.87a205,205,0,0,1-13.9-29.79q-3-7.69-5.5-15.56c-1.55-4.82-3-9.7-4.29-14.58-5-72.93,4.94-81.63,18.08-107.91,8.69-17.38,28.47-21.83,41.07-22.84h0l10-.16,1.21.06-1-.07q11.43-.18,22.86-.47c9.29-.24,18.59-.53,27.88-.93,13.67.51,46-2.1,87.24-17.1,13.36-4.86,25.49-12.64,37.19-20.68,1.69-1.17,3.37-2.37,5-3.58a198.87,198.87,0,0,0,23.48-19.27c2.46-2.26,4.9-4.56,7.28-6.9q6.35-6.28,12.25-13c7.69-7.27,16.16-15.2,19.34-17.91,9.49,28.81,17.07,35,17.07,35C414,372,409.85,348.45,408.35,336.19c0-.52,0-1,.06-1.54.07-1.37.18-2.73.32-4.1,12.06,25.66,29.66,31.63,29.66,31.63-16.85-14.45-24.51-28.82-27.51-35.82.59.56,1.18,1.11,1.79,1.64a63.58,63.58,0,0,0,14.81,9.8c-4.42-3.91-8.72-7.84-12.63-12a62,62,0,0,1-5.34-6.58,29.88,29.88,0,0,1-2.12-3.52,15.94,15.94,0,0,1-.76-1.63v-.14h-.07a15.44,15.44,0,0,1-.62-1.89,12.41,12.41,0,0,1,.28-7.47,24.25,24.25,0,0,1,3.93-7.09,50.09,50.09,0,0,1,5.81-6.24,87.31,87.31,0,0,1,6.7-5.62,41.72,41.72,0,0,0-7.91,4.08,44,44,0,0,0-4.67,3.56c-1.91-.94-5.57-4.78-11.95-18.2l-6.2-13c-.12-.3-.24-.61-.37-.92-1.7-4.18-3.34-8.39-5-12.6-.5-1.26-1-2.53-1.46-3.8h.06l-2.71-7.48-.13.08q-2.62-7.08-5.07-14.23l-2.13-6.42-2-6.46c-.64-2.15-1.18-4.33-1.77-6.5s-.94-4.36-1.42-6.54l0-.08v0a24.56,24.56,0,0,1-.58-5.09,36.72,36.72,0,0,1,.32-5.23,39.25,39.25,0,0,1,2.86-10.09c.7-1.61,1.5-3.16,2.38-4.75l2.62-4.74,5.31-9.47,21.25-37.89,21.11-38c7-12.65,14-25.32,21.13-37.92a12.32,12.32,0,0,1,2.48-2.27,23,23,0,0,1,3-1.8,36.19,36.19,0,0,1,6.59-2.45,60.65,60.65,0,0,1,14-1.75c2.36-.05,4.76,0,7.14,0h7.16l14.31-.08,57.23-.7,7.16-.11,3.55-.05c1.13,0,2.37.09,3.55.13l14.3.55q14.29.52,28.61.84c9.53.22,19.14.34,28.62.31a59.8,59.8,0,0,1,13.83,1.73,34.68,34.68,0,0,1,6.41,2.38,22.24,22.24,0,0,1,2.87,1.72,16.18,16.18,0,0,1,1.27,1c.19.18.4.36.57.54a6.14,6.14,0,0,1,.41.47l21.29,37.77,21.45,37.78,21.38,37.81,5.33,9.46,2.63,4.73c.88,1.59,1.68,3.14,2.39,4.75a39.66,39.66,0,0,1,2.88,10.06,36.58,36.58,0,0,1,.32,5.22,24.47,24.47,0,0,1-.56,5.08v.06l0,.07c-.47,2.18-.84,4.37-1.4,6.54s-1.12,4.34-1.75,6.5l-2,6.46-2.12,6.42q-2.43,7.16-5,14.24l0,0-2.73,7.44-1.46,3.8q-2.52,6.5-5.12,13L718.43,275c-6.38,13.42-10,17.26-12,18.2a43,43,0,0,0-4.67-3.56,41.34,41.34,0,0,0-7.9-4.08,87.31,87.31,0,0,1,6.7,5.62,50.09,50.09,0,0,1,5.81,6.24,24.48,24.48,0,0,1,3.93,7.09,12.48,12.48,0,0,1,.28,7.47,15.51,15.51,0,0,1-.63,1.89h-.06V314c-.22.55-.48,1.09-.76,1.63a29.88,29.88,0,0,1-2.12,3.52,64.57,64.57,0,0,1-5.34,6.58c-3.91,4.19-8.21,8.12-12.64,12a63.43,63.43,0,0,0,14.82-9.8c.5-.44,1-.89,1.48-1.35-3.08,7.1-10.75,21.28-27.38,35.53,0,0,17.75-6,29.81-31.95.15,1.47.27,2.95.35,4.42,0,.13,0,.27,0,.4-1.38,11.9-5.43,36.37-16.58,54.88,0,0,7.6-6.25,17.11-35.16,3.08,2.6,11.68,10.66,19.48,18q5.91,6.68,12.25,13a269.89,269.89,0,0,0,35.8,29.75c11.7,8,23.75,16,37.19,20.68,41.74,14.5,73.57,17.61,87.24,17.1,9.29.4,18.58.69,27.88.93q16.58.43,33.16.64l7.4.7c18,3.09,26.35,7.45,33.69,22.14,13.14,26.28,23.11,35,18.08,107.91-1.25,4.88-2.75,9.76-4.3,14.58q-2.55,7.86-5.49,15.56a206,206,0,0,1-13.9,29.79Q995.1,649.08,992.77,652.42Zm-201-75.9,35.89.05c27.1,6,43.22,1.68,48.45-.25a9.2,9.2,0,0,1,0,1.25c.06-.4.09-.78.12-1.17a55.9,55.9,0,0,1-2.11,17.36l-10.79-.11-11.62,0-23.24-.07-23.24.09-11.62.06-9.88.1c.54-.74,1-1.44,1.43-2.07A43.56,43.56,0,0,0,791.79,576.52Zm-1.16-26.78a377.79,377.79,0,0,1-24.38-34.54s-1.28-3.41,10.38.68q9.06,5.72,18.56,10.74A284.49,284.49,0,0,0,827.33,541q8.25,3.06,16.72,5.55,4.07,1.19,8.17,2.24c14.52,6.69,20.26,15.19,22.51,21.22C829.24,581,798.57,557,790.63,549.74Zm-6.28,41.45c-.51.77-1.12,1.66-1.83,2.63h0c.73-1,1.48-2.11,2.22-3.23Zm-.61,2.65,9.9.1,11.62,0,23.24.07,23.24-.1,11.62-.05,10.78-.12a65.13,65.13,0,0,1-8.09,17.91l-10.45-.1-12.56,0-25.13-.07-25.12.1-12.56,0-10.74.11C775.67,604.36,780.69,598.12,783.74,593.84Zm-3.51,18,12.56,0,25.12.07,25.13-.1,12.56,0,10.43-.11a80.21,80.21,0,0,1-18.14,19.58l-7.75-.07-12.66,0-25.33-.06-25.33.1-12.67,0-11.47.12c6.08-7,11.8-13.68,16.78-19.62Zm-16.08,19.65,12.67,0,25.33.07,25.33-.1,12.66-.06,7.63-.08a120.73,120.73,0,0,1-27.92,16L737.35,649c5.18-5.9,10.36-11.82,15.31-17.53ZM295.4,576.1l29.3,0a43.08,43.08,0,0,0,6.67,15.58c.45.7,1,1.48,1.6,2.32l-9.89-.09-11.75,0-23.51-.07-23.51.1-11.75,0-4.84,0a95.23,95.23,0,0,1-5.11-14.6C263.31,582.92,282.22,579.8,295.4,576.1Zm-55.19-3.42c1.45-5.84,6.31-15.78,22.43-23.48,3.32-.81,6.6-1.7,9.87-2.65Q281,544,289.23,541a285.29,285.29,0,0,0,32.14-14.38q9.48-5,18.56-10.74c11.66-4.09,10.38-.68,10.38-.68a102.2,102.2,0,0,1-10.46,25.9l-7.24,10.42c-7.71,9.26-15.35,13.65-19.29,15.46l-.15.06-5.15,1.7c-2.91.85-5.84,1.63-8.79,2.32l-31.08,4-3.14.12q-5.91.13-11.83-.08A95.15,95.15,0,0,1,240.21,572.68Zm91.63,17.93c.8,1.2,1.6,2.36,2.39,3.46h0c-.78-1.07-1.46-2-2-2.88Zm-79.28,3.63,11.75,0,23.51.07,23.51-.1,11.75,0,9.92-.11c3.1,4.32,8.12,10.55,14.27,17.9l-11.09-.1-12.58,0-25.16-.07-25.16.1-12.58,0-4.2,0c-3.81-7-6.64-12.92-8.72-17.77Zm8.14,17.93,12.58,0,25.16.07,25.16-.1,12.58,0,11.11-.11c5,5.94,10.7,12.61,16.76,19.6l-11.9-.11-12.72,0L314,631.4l-25.44.1-12.73,0-5.15.06a55.16,55.16,0,0,1-8.58-9.77c-2-3.45-3.85-6.68-5.49-9.7Zm15.11,19.63,12.73,0,25.44.07,25.45-.1,12.72,0,11.92-.12c5.61,6.47,11.5,13.19,17.36,19.85l-77.69-1.16a83.6,83.6,0,0,1-32.92-18.57Zm718.68,23.53c.27-.38.55-.75.82-1.14q2.38-3.48,4.49-7.11a167.21,167.21,0,0,0,7.93-15.77c3.86.06,7.73.12,11.59.14l14.73,0,14.72-.07q7.37,0,14.73-.2-7.37-.13-14.73-.18l-14.72,0-14.73.07c-3.85,0-7.7.09-11.55.16,2.11-4.78,4.05-9.62,5.87-14.5.63-1.68,1.21-3.37,1.81-5.06,2.16.06,4.32.12,6.49.15l8.25,0,8.24-.06q4.13-.06,8.25-.2c-2.75-.09-5.5-.16-8.25-.19l-8.24,0-8.25.06c-2.16,0-4.31.09-6.46.16q1.86-5.28,3.55-10.6c.75-2.42,1.48-4.83,2.18-7.25,2.2,0,4.4.11,6.6.14l8.72,0,8.72-.06c2.91,0,5.81-.11,8.72-.2-2.91-.09-5.81-.16-8.72-.19l-8.72-.05-8.72.06c-2.19,0-4.38.09-6.57.15.83-2.87,1.61-5.76,2.31-8.7s1.15-5.9,1.6-8.87a.91.91,0,0,0,.46.13l40.91,0,.34.19,11.6,21-24.32,13.41,23.55,16.26-12.28,28.1.85.37Zm72,.19h-.15l12.6-28.82L1056,610.89l23.78-13.12-11.32-20.45,42.16,23V626.6l14-7.3Z"/></g></svg>