<svg xmlns="http://www.w3.org/2000/svg" viewBox="0 0 1224.49 1349.92"><defs><style>.cls-1{fill:#fff;}.cls-2{fill:#3b3b3b;}</style></defs><g id="black"><path class="cls-1" d="M1116,575.23,104.2,574.66s-32.7,3.79-35.66,39.53c0,0,1.38,39.07,34.38,39.37l1012.13,1.79,12.44-28.47-24.34-16.43,25.17-12.88Z"/><path class="cls-2" d="M1055.48,478.92c17.08-17.78,32.14-36.47,31.56-99s-14.13-71.41-14.13-71.41-10.61-11-19.34-15.35c-8.26-4.1-20.29-2.56-20.29-2.56l-22.07,8.46c11.65-35.65,16.64-51.88-2.5-74.85s-94.6-30-110.24-32.72-38.87-9.61-38.87-9.61l-6.92-3.33c-11.57-15.7-1.57-49.2-1.57-49.2l8-2.66,25.29,17.8,27,19.64L924,166.59l6-2.61V159l-10.18-11.82L866.24,94.15,846,80l-22-6.21-34.43-2.1-6,1.5-7.91,6.24L771,87l-5.46,37L720.93,45.8l-6.7-6.1C699.3,32.88,610.3,34.09,610.3,34.09v.44l-5.83.09v-.53s-59.38,1.32-89.25,1.72c-.42-.41-2.15.37-3,.4-11.86.34-17.14,7.68-17.14,7.68L476.83,76l-.55,1L459,107.15l-9.76,16.78-5.46-37-4.58-8.63-7.84-5.53-7.11-1.22-13,.39L388.83,74,368.8,80l-20.28,14.2-53.58,53.07L284.77,159V164l6,2.61,12.64-3.43,27-18.64,25.3-17.8,8,2.66s10,33.5-1.57,49.2l-6.92,3.33s-23.22,6.88-38.86,9.61-91.11,9.75-110.25,32.72-14.15,39.2-2.5,74.85l-22.07-8.46s-12.25-2-20.29,2.56c-8.19,4.62-18.92,14.28-18.92,14.28s-14,10-14.54,72.48,14.47,81.19,31.56,99c0,0-25,18.37-18.06,95.14,7.59,83.6,105.78,169.8,179.55,198.79,0,0,9.91-.48,24.58-8s125-68.89,125-68.89l10.2,11.11,5.24,11.28s2.94,8.09-4,18.93-37.06,73.06-37.06,73.06-5,4.79,1.18,13S464.43,854,464.43,854l15.32,1.45,77.87-.1s14.32,1.22,18.44-17.72c3.46-15.93,7.58-84.73,7.58-84.73s-1.33-10.08-12.49-2.1c-12.62,9-15.92,33.32-15.92,33.32l-5.31,18.58s-7.14,28.42-36.88,18.33l-11.17-3.3-.7-6.08,40.9-50.39,41.57-55.77s11-15.6,3.34-32.78-57.43-100.1-57.43-100.1S522,559.31,526,551.83s38-66.58,78.43-69.55V482a42.9,42.9,0,0,1,5.83-.22v.53c40.39,3,74.42,62.08,78.42,69.55s-3.51,20.82-3.51,20.82-49.81,82.92-57.42,100.1,3.33,32.78,3.33,32.78L672.7,761.3l40.89,50.39-.69,6.08-11.17,3.3c-29.75,10.09-36.88-18.33-36.88-18.33L660,784.11s-4-25.05-15.89-33.6c-11.19-8.06-13,2.43-13,2.43s5.94,71.2,7.89,87.39,13.45,15.06,13.45,15.06l82.55.1L750.33,854s12.38-22.45,18.59-30.68,1.17-13,1.17-13S740,748.12,733,737.28s-3.76-20.7-3.76-20.7l14.34-21s111.12,61.72,125.79,69.24,24.57,8,24.57,8c96.91-47.82,173.3-122,179.56-198.79S1055.48,478.92,1055.48,478.92ZM430.58,656.1a47.93,47.93,0,0,1-5.67.77,6,6,0,0,1-.85,0,99.18,99.18,0,0,1-14.81-.43,164,164,0,0,0-21.49-.53c-14.91.68-30.38,3.06-45.23.63a3.48,3.48,0,0,1-2.64-2.77c-5.23-2.32-9.84-5.91-14.16-9.61a3.28,3.28,0,0,1-1.06-2.13c-1.16-.84-2.3-1.68-3.4-2.58a109.65,109.65,0,0,1-17-17.35c-10.1-12.86-15.81-28.36-15.42-45,.08-3.12,1.82-4.1,4-3.23,3.48-.48,6.48.45,9.91,1,5.6,1,11.39.67,17.07.35,12.76-.74,25.19-1.85,38-2,5.15-4,16.53-2.9,17.78,5.88,1.81,1.12,2.31,4.41,3,7.18C380.1,593.8,389.31,602,394,608l.46.63c1.68.07,2.53,1.61,3.7,3.41,1.37,2.1,3.5,3.52,4.6,5.8.94.64,3.16,2,3.64,3.34,1.69,4.5,5.27,8.48,8.56,11.88,4.52,4.66,8.86,9.48,13.53,14a5.88,5.88,0,0,1,1.17,1.61C433.61,648.94,435,655.21,430.58,656.1Zm25.21-316.58a17.75,17.75,0,0,0,.61,1.73,4.77,4.77,0,0,1,.26,1.8,1.19,1.19,0,0,1-.33.85,15.19,15.19,0,0,1,1,3.57,1.28,1.28,0,0,1-1.27,1.27.86.86,0,0,1-.23-.05,8.54,8.54,0,0,1-2.55,5.4c-2.44,2.38-5.89,3.67-9.13,4.49-6.09,1.56-13.6,2.38-19.73.53-3.7-1.12-7-3.39-10.33-5.52a3.85,3.85,0,0,1-4.41-.44c-1-.79-1.94-1.52-2.94-2.22a1.57,1.57,0,0,1-.79-.13c-2.48-1.16-4.84-2.56-7.33-3.71a57.89,57.89,0,0,1-7.14-3.77,1.25,1.25,0,0,1-.58-1.06c-1.87-1-3.72-2-5.5-3.08A53.39,53.39,0,0,1,374.54,330a8,8,0,0,1-3.2-2.08,1.32,1.32,0,0,1-.16-.25,3.32,3.32,0,0,1-1.55-.49A32.76,32.76,0,0,1,360,317c-.72-1.12-1.42-2.26-2.11-3.39a4,4,0,0,1-3.33-2.74c-.06-.15-.08-.22-.09-.25l0,0c-.13-.28-.27-.57-.42-.85-.27-.52-.58-1-.89-1.52s-.75-1.12-1.14-1.67c-.2-.28-.41-.55-.62-.83l-.19-.25c-1.66-2.12-3.49-4.14-4.94-6.41-1.21-1.89-2.21-3.91-3.36-5.84,0-.06-.07-.11-.1-.16a3.93,3.93,0,0,1-1.93-1,27.4,27.4,0,0,1-4.18-5.45,8.45,8.45,0,0,1-1.62-1.7c-.67-.75-1.61-1.23-2.06-2.18a1.49,1.49,0,0,1-.14-.57,9.83,9.83,0,0,1-2.64-3l-.21,0a1.3,1.3,0,0,1-1.27-1.27,11.28,11.28,0,0,1,.44-4,6,6,0,0,1,1.75-3.16c.95-.74,1.47-1.92,2.29-2.79a17.55,17.55,0,0,1,1.32-1.27c.19-.16.38-.31.55-.48l.22-.23s.1-.19.05-.06a1.47,1.47,0,0,1,.14-.28,1.29,1.29,0,0,1,.17-.67,1.32,1.32,0,0,1,.76-.59c.67-.17,1.35-.27,2-.5a2.06,2.06,0,0,0,.44-.24l0,0a1.23,1.23,0,0,1,.73-.26,17.17,17.17,0,0,1,3.05-1.05,1.26,1.26,0,0,1,.59-.38c1.46-.45,3-.85,4.45-1.23s2.94-.92,4.43-1.35a17.61,17.61,0,0,1,2-.36c.8-.13,1.57-.41,2.37-.58.65-.13,1.3-.24,1.95-.31a3.36,3.36,0,0,0,1.5-.41,1,1,0,0,1,1.15-.1,3.72,3.72,0,0,1,1.73-1.09,4.1,4.1,0,0,1,2.22.06l.06,0c3.69-.8,7.46-1.21,11.19-1.79,5-1.15,10.1-1.94,15.18-2.65,12.12-1.69,24.41-3,35.88-7.47a3.24,3.24,0,0,1,2.79.32,5.14,5.14,0,0,1,1.71-.17,2.47,2.47,0,0,1,1.66,1.09,12.66,12.66,0,0,0,.8,1.21,16.16,16.16,0,0,1,1.25,1.49,10.23,10.23,0,0,1,1.2,3.67c.26,1.29.37,2.61.65,3.9a4,4,0,0,1,.23.64c0,.16.1.3.14.46a3.89,3.89,0,0,1,.34.36,13,13,0,0,1,1.92,4.84c.1.45.18.91.24,1.36,1.84,4,4,7.8,5.47,11.93,2.29,6.47,6.14,12.17,8.51,18.61a1.83,1.83,0,0,1,.06.25,3.58,3.58,0,0,1-.6,4.31,7.73,7.73,0,0,0-.59,2.57,31,31,0,0,0,.25,5.53,47.09,47.09,0,0,0,2.3,10.15,27,27,0,0,1,1.43,13c-.33,2.3-.05,4.69-.85,6.85a12.6,12.6,0,0,0-.54,2ZM761.5,354.09c-3.09-3-2.84-7-2.36-11a12,12,0,0,0-.59-6c-.8-2.16-.08-5.62-.4-7.93a22.72,22.72,0,0,1,1-11.93,46.51,46.51,0,0,0,2.3-10.15,31,31,0,0,0,.25-5.53,8.06,8.06,0,0,0-.58-2.57,3.55,3.55,0,0,1-.6-4.31,1.84,1.84,0,0,1,0-.25c2.38-6.44,6.22-12.14,8.51-18.61,1.47-4.13,3.63-8,5.47-11.93.07-.45.14-.91.24-1.36a13.14,13.14,0,0,1,1.92-4.84,3.89,3.89,0,0,1,.34-.36c0-.16.1-.3.14-.46.29-1.11-.18-2.51.6-2.93.66-3.06,1.79-7.08,4.06-9.41.29-.3,2-.86,2.19-.07,1-.92,2.19-.23,3.44.26,11.48,4.5,23.77,5.78,35.88,7.47,6.14.85,12.37,1.53,18.37,3.12,2.27.61,4.4.26,6.69.82.2-.19.43,1,.66.84a3.89,3.89,0,0,1,2.93-.38,3.75,3.75,0,0,1,1.86,1.23l0-.05c.24.3.8-.21,1.09,0,.62.09,1.31.1,1.93.19,1,.05,1.75.67,2.73.91l.67.1a2.69,2.69,0,0,1,.85.3c2.07.61,3.07.5,5.69,1.32s6,1.56,8.76,2.93h.18a1.29,1.29,0,0,1,.79.28l.46.12a3.83,3.83,0,0,1,.76.28l.29.1a1.3,1.3,0,0,1,.76.58s0,.05,0,.07a.71.71,0,0,1,.14.1,27.21,27.21,0,0,1,2.59,3.16,33.15,33.15,0,0,0,2.56,3.12,4.61,4.61,0,0,1,1.29,1.77,15,15,0,0,1,.34,1.87,5.36,5.36,0,0,1,.06,1.87,1.24,1.24,0,0,1,.09,1.72s0,.08-.05.17a1.33,1.33,0,0,1-1.49.92s0,.05-.05.08,0,0,0,.07a19.91,19.91,0,0,1-3,3.45c-1.15,1.1-2.12,2.36-3.2,3.53l-.1.07a26.41,26.41,0,0,1-4,5.2,4.16,4.16,0,0,1-1.08.72c0,.09-.08.17-.12.26a2.31,2.31,0,0,1-.32.45,1,1,0,0,1-.18.17,3.79,3.79,0,0,1-.45.34c-.15.1-.32.18-.48.27-.91,1.61-1.77,3.25-2.76,4.8-1.45,2.27-3.29,4.29-4.94,6.41l-.2.25-.61.83c-.4.55-.78,1.1-1.14,1.67s-.62,1-.9,1.52c-.15.28-.29.57-.42.85v0s0,.1-.09.25a4,4,0,0,1-3.34,2.74c-.69,1.13-1.38,2.27-2.11,3.39a32.65,32.65,0,0,1-9.68,10.17,3.45,3.45,0,0,1-2.68.41c-3.89,4.34-8,8.45-13.06,11.57-1,.6-1.95,1.17-2.95,1.72a1.1,1.1,0,0,1-.19,1.49c-1.63,1.52-3.61,1.54-5.57,2.35s-3.58,2.18-5.53,3a29.16,29.16,0,0,0-3,1.34,30.75,30.75,0,0,1-2.81,1.55,10.94,10.94,0,0,1-1.64.56c-.88.62-1.74,1.27-2.57,2a3.86,3.86,0,0,1-4.42.44c-3.29,2.13-6.63,4.4-10.32,5.52-6.14,1.85-13.65,1-19.74-.53C767.39,357.76,763.94,356.47,761.5,354.09Zm149,268.06a110.52,110.52,0,0,1-17,17.35c-1.1.9-2.25,1.74-3.4,2.58a3.28,3.28,0,0,1-1.06,2.13c-4.33,3.7-8.94,7.29-14.17,9.61-.32,1.33-1.39,1.23-2.76,1.45-14.85,2.43-30.19,1.37-45.1.69a163.92,163.92,0,0,0-21.49.53c-5,.43-9.91-.42-14.83-.73a6,6,0,0,1-.85,0c-1.89-.15-3.77.77-5.65.39-4.43-.89-3-7.16.94-7.4a6.14,6.14,0,0,1,1.18-1.61c4.66-4.52,9-9.34,13.52-14,3.29-3.4,7.18-7.7,8.87-12.2.48-1.3,3.38-2.59,4.32-3.23a45.62,45.62,0,0,1,3.62-5.59c1.17-1.8,3-4.62,4.63-4.69l.47-.63c4.65-6,12.92-13,14.49-20.4.64-2.77,1.28-7.4,3.1-8.51,1.25-8.79,12.49-8.52,17.63-4.55,12.78.17,25.21,1.28,38,2,5.67.32,11.46.61,17.07-.35,3.42-.58,6.42-1.51,9.9-1,2.22-.87,4.6-.47,4.68,2.65C927,593.22,920.63,609.29,910.54,622.15Z"/><polygon class="cls-2" points="1115.95 575.23 1166.22 602.7 1166.22 625.21 1113.9 657.31 1127.49 626.88 1104.31 610.77 1128.32 597.57 1115.95 575.23"/><path class="cls-2" d="M444.33,969v73.51a28.77,28.77,0,0,1-28.64,28.65H402.25a28.78,28.78,0,0,1-28.64-28.65V969a28.77,28.77,0,0,1,28.64-28.64h13.44A28.77,28.77,0,0,1,444.33,969Zm-28.39,0a.24.24,0,0,0-.25-.25H402.25L402,969v73.51a.25.25,0,0,0,.25.26h13.44c.25,0,.25,0,.25-.26Z"/><path class="cls-2" d="M525.19,969v15.46H496.8V969a.24.24,0,0,0-.25-.25H483.11l-.25.25v73.51a.25.25,0,0,0,.25.26h13.44c.25,0,.25,0,.25-.26v-15.46h28.39v15.46a28.78,28.78,0,0,1-28.64,28.65H483.11a28.78,28.78,0,0,1-28.64-28.65V969a28.77,28.77,0,0,1,28.64-28.64h13.44A28.77,28.77,0,0,1,525.19,969Z"/><path class="cls-2" d="M564,1042.8h27.89v28.39H564a28.78,28.78,0,0,1-28.64-28.65V890.45h28.39v49.94h26.11v28.39H563.72v73.76A.25.25,0,0,0,564,1042.8Z"/><path class="cls-2" d="M668.92,969v102.16h-28.4v-12.42h-.76a19.9,19.9,0,0,1-19,12.42c-22.81,0-24.08-26.11-24.08-28.65v-31.18c0-2.28,1.27-28.64,24.08-28.64a20,20,0,0,1,19,12.67h.76V969l-.25-.25H628.1a.24.24,0,0,0-.25.25v4.31H599.2V969a28.83,28.83,0,0,1,28.9-28.64h12.17A28.77,28.77,0,0,1,668.92,969Zm-28.4,42.08H625.06v31.69h15.46Z"/><path class="cls-2" d="M721.39,940.39h28.39v71.23c0,.5-1.78,12.42-4.57,24.84-3.8,17.49-8.87,34.73-24.08,34.73H708c-16.48,0-21-21.3-24.33-35.24-2.54-12.42-4.31-24.59-4.31-25.09l-.26-1V940.39H707.7v67.42c1.77,12.93,4.56,26.62,6.84,34,2.28-7.35,5.07-20.53,6.85-33.21Z"/><path class="cls-2" d="M760.42,940.39h28.39v130.8H760.42Z"/><path class="cls-2" d="M871.19,969v102.16H842.8v-12.42H842a19.9,19.9,0,0,1-19,12.42c-22.81,0-24.08-26.11-24.08-28.65v-31.18c0-2.28,1.27-28.64,24.08-28.64a20,20,0,0,1,19,12.67h.76V969l-.25-.25H830.38a.24.24,0,0,0-.25.25v4.31H801.48V969a28.83,28.83,0,0,1,28.9-28.64h12.17A28.77,28.77,0,0,1,871.19,969Zm-28.39,42.08H827.34v31.69H842.8Z"/><path class="cls-2" d="M953.32,969v102.16H924.93V968.78H909.72v101.9l-28.39.51V940.39h28.39v12.67h.51a20.47,20.47,0,0,1,19.26-12.67C952.31,940.39,953.32,966.75,953.32,969Z"/><path d="M270.67,450.43s-37.35-7.59-52.53-14.43S176,413.58,159.43,412.36c0,0-5.43,2.65-5.13,10.69s1.64,19.64,4,26.11,4.32,12.73,11.46,16.15l10.86-6.84s14.58-4.92,36.16-4.77S270.67,450.43,270.67,450.43Z"/><path d="M403.91,518.9l-23.52,35.46-11.53,17.95-33.79,3.26s-37.52,5-46.8-.73c0,0,1.89-21.24,17.24-25.16,10.57-2.7,62.41-17.24,102.68-49.14Z"/><path d="M944.82,449.23S982.47,440.88,998,434s32.13-21.78,56-22.71c0,0,8.66,2.17,8.36,10.21s-1.16,18.26-3.59,24.73-5.14,14.78-12.43,18.21L1036,458s-14.82-5.49-36.86-5.34S944.82,449.23,944.82,449.23Z"/><path d="M810.38,518.9l23.52,35.46,11.53,17.95,33.79,3.26s38.09,2.76,47.37-2.93c0,0-3.45-19.34-16.07-22.75-10.53-2.84-64.15-17.45-104.42-49.35Z"/><path class="cls-1" d="M483.15,314.89s14.12,41.34,64.43,31.84l4.95-3.63S519.26,305.62,483.15,314.89Z"/><path class="cls-1" d="M731.84,314.89s-14.11,41.34-64.43,31.84l-4.94-3.63S695.73,305.62,731.84,314.89Z"/><polygon points="483.73 126.25 471.66 123.84 461.57 129.96 459.36 141.03 466.33 150.55 478.4 152.96 488.49 146.84 490.7 135.77 483.73 126.25"/><polygon points="491.23 167.87 483.66 166.36 477.32 170.2 475.93 177.15 480.31 183.13 487.89 184.64 494.22 180.8 495.61 173.85 491.23 167.87"/><polygon points="440.69 493.05 434.98 491.91 430.21 494.8 429.16 500.04 432.46 504.55 438.17 505.68 442.94 502.79 443.99 497.55 440.69 493.05"/><polygon points="467.27 192.52 461.56 191.38 456.79 194.27 455.74 199.51 459.04 204.01 464.75 205.15 469.52 202.26 470.56 197.02 467.27 192.52"/><polygon points="477.97 454.81 464.49 452.12 453.11 459.44 450.51 472.47 458.21 483.59 471.69 486.28 483.06 478.97 485.66 465.93 477.97 454.81"/><polygon points="447.91 171.79 443.64 170.94 440.07 173.11 439.29 177.02 441.76 180.39 446.02 181.24 449.59 179.08 450.37 175.16 447.91 171.79"/><polygon points="488.04 88.66 483.78 87.81 480.21 89.97 479.43 93.88 481.89 97.25 486.16 98.1 489.73 95.94 490.51 92.03 488.04 88.66"/><polygon points="454.69 222.32 450.43 221.47 446.86 223.64 446.07 227.55 448.54 230.92 452.81 231.77 456.38 229.6 457.16 225.69 454.69 222.32"/><path class="cls-2" d="M321.17,940.39H359V1270.2H321.17v-16.57h-.67s-5.75,16.57-25.36,16.57c-30.42,0-32.11-34.82-32.11-38.2v-98c0-3,1.69-38.2,32.11-38.2a26.63,26.63,0,0,1,25.36,16.9h.67Zm0,193.23H300.89v98.72h20.28Z"/><path class="cls-2" d="M466.88,1134v68H410.42V1232c0,.34,0,.34.34.34h17.58c.34,0,.67,0,.67-.34v-20.62h37.87V1232a38.45,38.45,0,0,1-38.54,38.2H410.76a38.38,38.38,0,0,1-38.2-38.2v-98a38.38,38.38,0,0,1,38.2-38.2h17.58A38.45,38.45,0,0,1,466.88,1134ZM429,1134a1.15,1.15,0,0,0-.67-.34H410.76a.33.33,0,0,0-.34.34v30.09H429Z"/><path class="cls-2" d="M574.72,1134v20.62H536.85V1134l-.34-.34H518.6l-.34.34V1162l56.46,16.23V1232a38.38,38.38,0,0,1-38.21,38.2H518.6a38.37,38.37,0,0,1-38.2-38.2v-18.26h37.86V1232a.33.33,0,0,0,.34.34h17.91a.33.33,0,0,0,.34-.34v-25l-56.45-16.23V1134a38.37,38.37,0,0,1,38.2-38.2h17.91A38.38,38.38,0,0,1,574.72,1134Z"/><path class="cls-2" d="M588.91,1095.76h37.86V1270.2H588.91Z"/><path class="cls-2" d="M698.44,1095.76H736.3v197.77a38.16,38.16,0,0,1-38.2,38.2H682.55a38.23,38.23,0,0,1-38.54-38.2v-14.88h38.2v14.88c0,.34,0,.34.34.34H698.1a.33.33,0,0,0,.34-.34v-39.9h-1s-5.75,16.57-25.36,16.57c-30.43,0-31.78-34.82-31.78-38.2v-98c0-3,1.35-38.2,31.78-38.2a26.63,26.63,0,0,1,25.36,16.9h1Zm0,37.86H678.15v98.72h20.29Z"/><path class="cls-2" d="M845.84,1134V1270.2H808V1133.62H787.69v135.9l-37.87.68V1095.76h37.87v16.9h.67s6.09-16.9,25.69-16.9C844.48,1095.76,845.84,1130.92,845.84,1134Z"/><path class="cls-2" d="M953.68,1134v20.62H915.81V1134l-.34-.34H897.55l-.33.34V1162l56.46,16.23V1232a38.39,38.39,0,0,1-38.21,38.2H897.55a38.38,38.38,0,0,1-38.2-38.2v-18.26h37.87V1232a.33.33,0,0,0,.33.34h17.92a.33.33,0,0,0,.34-.34v-25l-56.46-16.23V1134a38.38,38.38,0,0,1,38.2-38.2h17.92A38.39,38.39,0,0,1,953.68,1134Z"/><polygon points="522.37 558.23 522.37 558.23 522.37 558.23 522.37 558.23"/><path d="M579,331.1a42.49,42.49,0,0,1-.15,5.3,21.47,21.47,0,0,1-1.08,5.08,9.65,9.65,0,0,1-2.72,4.13,7.2,7.2,0,0,1-2,1.21,5.92,5.92,0,0,1-2.25.38h-.19a16.67,16.67,0,0,1-8.17-1.21L559,344.39c-.89-.5-1.76-1-2.62-1.61l-7-5.57c-1.49-1.36-2.92-2.77-4.37-4.22s-3-2.86-4.65-4.21a122.17,122.17,0,0,0-9.81-7.74,99.15,99.15,0,0,0-21.91-11.9,78.23,78.23,0,0,0-12-3.5,50.08,50.08,0,0,0-12.39-1.11v.2a36.92,36.92,0,0,1,12.17,3.09A99.64,99.64,0,0,0,478,311.29a29.91,29.91,0,0,0,4.37,12.82c4.59,9,13.76,20.12,31.75,24.35,1.28.36,2.57.73,3.86,1.07a71.32,71.32,0,0,0,13.1,1.79,47,47,0,0,0,13.2-1.25,40.88,40.88,0,0,0,5.37-1.82,97.25,97.25,0,0,1,11-.81,18.83,18.83,0,0,0,10.2,1.43h-.19a7.52,7.52,0,0,0,3-.59,7.71,7.71,0,0,0,2.44-1.6,10.69,10.69,0,0,0,2.8-4.86,19.11,19.11,0,0,0,.75-5.39,35.28,35.28,0,0,0-.37-5.35Zm-36.29,15.95c-16.44,3-26.81-2.08-26.81-2.08-19.18-4.07-25.13-24.37-25.13-24.37,20.42-9.52,32.5,2.52,46.21,13.49h0l.19.14,1.22,1c1.87,1.57,5.12,4.66,6.6,8.34A3.86,3.86,0,0,1,542.69,347.05Z"/><path d="M734.29,320.87a.54.54,0,0,0,.05-.11v0a28.79,28.79,0,0,0,2.6-9.49,101,101,0,0,0-17.76-3.41,44.68,44.68,0,0,1,11.43-3.15,60.27,60.27,0,0,0-6.07.32,39.71,39.71,0,0,1,6.07-.32l0-.2a50.16,50.16,0,0,0-12.4,1.11,78.44,78.44,0,0,0-12,3.5l-1,.38c-.51.19-.79.31-.79.31h0A100.89,100.89,0,0,0,684.34,321a122.32,122.32,0,0,0-9.82,7.74c-1.59,1.35-3.11,2.79-4.65,4.21s-2.88,2.86-4.37,4.22l-7,5.57c-.85.57-1.72,1.11-2.61,1.61L652.54,346a16.69,16.69,0,0,1-8.18,1.21h-.18a5.92,5.92,0,0,1-2.25-.38,7.39,7.39,0,0,1-2.06-1.21,9.63,9.63,0,0,1-2.71-4.13,21,21,0,0,1-1.08-5.08,42.49,42.49,0,0,1-.15-5.3h-.2a34,34,0,0,0-.37,5.35,19.47,19.47,0,0,0,.74,5.39,10.87,10.87,0,0,0,2.8,4.86,7.87,7.87,0,0,0,2.45,1.6,7.48,7.48,0,0,0,3,.59h-.19a18.85,18.85,0,0,0,10.2-1.43,97.25,97.25,0,0,1,11,.81,40.88,40.88,0,0,0,5.37,1.82,40.39,40.39,0,0,0,4.49.86c8.07,1.24,20.4.6,38-6.51,0,0,9.19-3.34,18.7-19.12A34.28,34.28,0,0,0,734.29,320.87ZM699,345s-10.38,5.09-26.81,2.08a3.86,3.86,0,0,1-2.26-3.53c1.49-3.68,4.73-6.77,6.61-8.34l1.21-1,.2-.14h0c13.71-11,25.78-23,46.21-13.49A49.71,49.71,0,0,1,699,345Z"/><path d="M1061.38,420.61l-.29,4.22C1061.32,422.24,1061.38,420.61,1061.38,420.61Z"/><path d="M345.66,239.22c.06-.54.08-.84.08-.84C345.71,238.66,345.68,238.93,345.66,239.22Z"/><path d="M869.88,242.37c-.14-1.2-.27-2.42-.36-3.71A22.05,22.05,0,0,0,869.88,242.37Z"/><path d="M1116.21,574.23l-41.43,0h0a1.18,1.18,0,0,0-.2,0,175.78,175.78,0,0,0,1.53-22.45,187.83,187.83,0,0,0-2.77-33.14c-.42-2.36-.9-4.72-1.43-7.06-1.77-10.76-4.9-21.31-11-29.93l-.12-.16c-.59-1.06-1.21-2.1-1.85-3.13a64.53,64.53,0,0,0,11.33-15.46,72.76,72.76,0,0,0,5.76-9.3,104.07,104.07,0,0,0,9.19-27.7,184,184,0,0,0,3-29c.34-9.72.15-19.45-.32-29.14a261.43,261.43,0,0,0-2.75-29.07,118.83,118.83,0,0,0-3.26-14.34c-.71-2.35-1.51-4.69-2.46-7a51.77,51.77,0,0,0-3.28-6.69,41.78,41.78,0,0,0-9.6-11.46,57.92,57.92,0,0,0-12.69-7.67l-1.67-.76-1.77-.71a29.35,29.35,0,0,0-3.66-1.05,31.33,31.33,0,0,0-7.53-.62,47.16,47.16,0,0,0-14.53,3.05,71.54,71.54,0,0,0-10.35,4.82l1-3q1.89-4.58,3.44-9.27a121.29,121.29,0,0,0,3.93-14.86,82.76,82.76,0,0,0,1.6-15.3q0-2.36-.18-4.71a30.21,30.21,0,0,0-.64-5.11,42.46,42.46,0,0,0-1.34-5.42,32.5,32.5,0,0,0-7.89-13.19,60.2,60.2,0,0,0-12.49-9.05,144.15,144.15,0,0,0-28.51-11.56,284.64,284.64,0,0,0-29.92-7.12q-7.58-1.39-15.2-2.44l-3.82-.48c-1.27-.13-2.5-.35-3.78-.53L913,193c-10.09-1.68-20.15-3.56-30.11-5.82-5-1.13-9.94-2.36-14.84-3.78a98.79,98.79,0,0,1-14.18-5.09,11.51,11.51,0,0,1-1.29-1.72,22.4,22.4,0,0,1-1.13-2.11,28.78,28.78,0,0,1-1.64-4.56,48.2,48.2,0,0,1-1.57-9.66,91.87,91.87,0,0,1,1.08-19.71c.06-.41.13-.82.18-1.24s.11-.79.18-1.18c.15-.79.32-1.58.53-2.36a19.43,19.43,0,0,1,1.75-4.4,7.74,7.74,0,0,1,3-3.17,5.46,5.46,0,0,1,4.14-.25,17.06,17.06,0,0,1,4.2,2.11c1.38.87,2.74,1.81,4.09,2.76,2.7,1.91,5.37,3.89,8,5.88,5.32,4,10.63,8,16,11.92s10.9,7.73,16.71,11.12a54.9,54.9,0,0,0,9.21,4.39,21,21,0,0,0,2.57.68c.45.08.9.14,1.37.18l.71,0h.65a18.51,18.51,0,0,0,5.28-.73,6.94,6.94,0,0,0,2.63-1.47,4.49,4.49,0,0,0,1.39-3,7.12,7.12,0,0,0-.56-2.95,14.18,14.18,0,0,0-1.26-2.42,44.85,44.85,0,0,0-6.75-7.68c-4.6-4.71-9.1-9.67-13.67-14.5s-9.18-9.65-13.86-14.4a393.7,393.7,0,0,0-29.28-27.29,136.09,136.09,0,0,0-16.3-11.8,46.93,46.93,0,0,0-9.22-4.36c-1.69-.53-3.29-.83-4.93-1.23s-3.28-.69-4.91-1a190.05,190.05,0,0,0-19.86-2.77,199.63,199.63,0,0,0-20-.84h.07a19.33,19.33,0,0,0-8.22,1.67,17.73,17.73,0,0,0-3.62,2.17L778,75.68l-1.49,1.44a35.81,35.81,0,0,0-8.14,14.17,66.86,66.86,0,0,0-2.77,15.9,106.53,106.53,0,0,0-.66,12.74l-.87-1.55L742.68,80.55,721.12,42.83l0-.07,0,0a7.63,7.63,0,0,0-.74-.85c-.23-.26-.48-.46-.72-.7a19.19,19.19,0,0,0-1.53-1.2A24.67,24.67,0,0,0,714.79,38a37.24,37.24,0,0,0-7-2.55,62.63,62.63,0,0,0-14.51-1.73c-2.44,0-4.8,0-7.18,0l-7.14,0c-4.76,0-9.52,0-14.29-.1-9.53-.11-19.06-.31-28.6-.49l-14.3-.31c-1.21,0-2.35-.07-3.61-.08l-3.59.12-7.15.21c-19.07.54-38.14,1.09-57.21,1.33-9.54.13-19.05.25-28.61.15a62.1,62.1,0,0,0-14.29,1.69,37.11,37.11,0,0,0-6.82,2.48,25.1,25.1,0,0,0-3.15,1.87,12.89,12.89,0,0,0-2.77,2.53h0l0,0L472.81,80.88c-7.24,12.55-14.52,25.06-21.7,37.65l-1.13,2a103.86,103.86,0,0,0-.66-13.33,66.77,66.77,0,0,0-2.77-15.9,35.67,35.67,0,0,0-8.13-14.17l-1.49-1.44-1.59-1.33a17.66,17.66,0,0,0-3.61-2.17,19.34,19.34,0,0,0-8.23-1.67h.07a199.63,199.63,0,0,0-20,.84,190.24,190.24,0,0,0-19.85,2.77c-1.64.35-3.29.64-4.91,1s-3.25.7-4.93,1.23a46.4,46.4,0,0,0-9.22,4.36,136.09,136.09,0,0,0-16.3,11.8,393.7,393.7,0,0,0-29.28,27.29q-7,7.13-13.87,14.4c-4.56,4.83-9.06,9.79-13.66,14.5a44.47,44.47,0,0,0-6.76,7.68,14.93,14.93,0,0,0-1.26,2.42,7.12,7.12,0,0,0-.56,2.95,4.5,4.5,0,0,0,1.4,3,6.94,6.94,0,0,0,2.63,1.47,18.46,18.46,0,0,0,5.28.73h.65l.71,0c.46,0,.92-.1,1.36-.18a21,21,0,0,0,2.57-.68,54.17,54.17,0,0,0,9.21-4.39c5.82-3.39,11.3-7.22,16.71-11.12s10.71-7.93,16-11.92c2.66-2,5.32-4,8-5.88,1.36-1,2.72-1.89,4.1-2.76a16.83,16.83,0,0,1,4.19-2.11,5.46,5.46,0,0,1,4.14.25,7.7,7.7,0,0,1,3,3.17,19,19,0,0,1,1.74,4.4c.21.78.39,1.57.53,2.36.08.39.14.79.19,1.18s.12.83.18,1.24a92.52,92.52,0,0,1,1.08,19.71,48.93,48.93,0,0,1-1.57,9.66,29.84,29.84,0,0,1-1.65,4.56,18.57,18.57,0,0,1-1.13,2.11,10.29,10.29,0,0,1-1.29,1.72,98.67,98.67,0,0,1-14.17,5.09c-4.9,1.42-9.86,2.65-14.84,3.78-10,2.26-20,4.14-30.11,5.82l-7.58,1.21c-1.27.18-2.51.4-3.78.53l-3.82.48q-7.62,1-15.19,2.44a284.82,284.82,0,0,0-29.93,7.12,143.82,143.82,0,0,0-28.5,11.56,59.68,59.68,0,0,0-12.49,9.05,32.39,32.39,0,0,0-7.89,13.19,40.88,40.88,0,0,0-1.35,5.42,31.27,31.27,0,0,0-.64,5.11c-.11,1.57-.17,3.14-.17,4.71a81.91,81.91,0,0,0,1.6,15.3A121.25,121.25,0,0,0,196.1,284q1.56,4.69,3.45,9.27l1,3a71.54,71.54,0,0,0-10.35-4.82,47.16,47.16,0,0,0-14.54-3.05,31.25,31.25,0,0,0-7.52.62,29.35,29.35,0,0,0-3.66,1.05l-1.77.71-1.67.76a57.69,57.69,0,0,0-12.69,7.67,42,42,0,0,0-9.61,11.46,51.7,51.7,0,0,0-3.27,6.69c-1,2.29-1.75,4.63-2.47,7a118.79,118.79,0,0,0-3.25,14.34A261.45,261.45,0,0,0,127,367.73c-.47,9.69-.65,19.42-.32,29.14a185.25,185.25,0,0,0,3,29,103.71,103.71,0,0,0,9.19,27.7,70.58,70.58,0,0,0,5.76,9.3A64,64,0,0,0,156,478.37c-.65,1-1.27,2.07-1.86,3.13l-.11.16c-6.09,8.62-9.23,19.17-11,29.93-.53,2.34-1,4.7-1.43,7.06a187.83,187.83,0,0,0-2.77,33.14,174.74,174.74,0,0,0,1.42,21.68l-31.94,0a40.74,40.74,0,0,0,0,81.48c.81,0,1.6-.06,2.36-.11l.36,0,60,.17h0c1.44,2,2.91,4,4.41,6q5.09,6.6,10.53,12.91c7.24,8.43,14.94,16.45,23,24.14a415.4,415.4,0,0,0,109.05,75.11l.14.11a4.4,4.4,0,0,0,.39.26,5.25,5.25,0,0,0,.76.43,8.81,8.81,0,0,0,1.53.6,12.16,12.16,0,0,0,3.06.47,19.26,19.26,0,0,0,5.73-.78,30.81,30.81,0,0,0,5.17-2c1.58-.81,3.21-1.58,4.73-2.43,6.19-3.28,12.26-6.7,18.36-10.1Q376,749.45,394.14,739l24.11-14,51.88-28.56c1.59,1.83,3,3.52,4.34,5.06a23.06,23.06,0,0,1,2.63,2.78,31.36,31.36,0,0,1,4.48,7.17,27.71,27.71,0,0,1,2,5.91,16.84,16.84,0,0,1,0,10.82c-3.27,7.3-10.26,21.52-17.59,36.22.32-.73.5-1.12.5-1.12l-1.69,3.49c-8.14,16.27-16.47,32.69-20.48,40.56A21.1,21.1,0,0,0,443,810c-.68,1.32-1.06,2.08-1.1,2.16s-1.22,2.54-.22,6.49c.08.53.16.83.16.83l.19.34a18.8,18.8,0,0,0,1.37,3.05,245.22,245.22,0,0,0,14.33,23.42c1.07,1.69,1.94,3,2.47,3.65a13.76,13.76,0,0,0,1.9,1.92c.69.79,1.36,1.52,2,2.15.26.66,1.66,2.77,8.84,3.09.68,0,1.92.05,3.61.05,17.72,0,85.13-1.55,85.87-1.57l.14,0c.11,0,11.25-3.76,13.79-18,2.48-14,7.84-84.14,7.89-84.93,0-.15-.39-3.68-3.18-5.1-2.22-1.13-5.27-.57-9.05,1.67-10.78,6.4-15.53,23.59-19,41.21-3.42,17.08-11.13,28.36-21.2,31.14-16.51,3.17-24.74-3.6-28.13-5.56a45.46,45.46,0,0,0,1.05-7c.79-1.53,1.73-3.1,2.62-4.51,11.53-13,69.45-84.73,78.46-101.69a29.86,29.86,0,0,0,4.58-15.19q0-.68,0-1.41A38,38,0,0,0,586.08,669c-1.58-4.07-3.51-8.41-5.68-12.89l54,.16c-2.14,4.42-4,8.71-5.6,12.73a38,38,0,0,0-4.33,17.21c0,.44,0,.86,0,1.27a32.71,32.71,0,0,0,1.26,7.83l0,.07h0a26.09,26.09,0,0,0,3.26,7.29,104.55,104.55,0,0,0,5.82,9.2h0c9.47,13.79,27,36.37,42.67,56h0c13.35,16.73,25.38,31.31,30,36.52.08.12.16.24.23.36l1.76,3,.23.59a43.89,43.89,0,0,0,1.21,7.75c-3.53,2.12-11.77,8.51-27.88,5.41-10.08-2.78-17.78-14.07-21.2-31.14-3.52-17.62-8.27-34.81-19.06-41.21-3.78-2.24-6.82-2.8-9-1.67-2.8,1.42-3.17,4.95-3.18,5.19,0,.73,5.41,73.42,7.89,87.44,2.55,14.38,13.78,15.46,13.93,15.47.74,0,68.15,1.57,85.86,1.57,1.7,0,2.94,0,3.62-.05,7.17-.32,8.57-2.43,8.84-3.09,8.38-8.1,20.21-30.2,20.71-31.13a17.59,17.59,0,0,0,1.38-3.09l.19-.31a8.38,8.38,0,0,0,.16-.84,9.92,9.92,0,0,0-.22-6.49c0-.07-.43-.83-1.1-2.16a22.48,22.48,0,0,0-1.34-2.62c-4-7.86-12.34-24.28-20.48-40.56l-1.7-3.49s.19.39.51,1.12c-8.78-17.59-17-34.49-19.07-39.66l.05-1.91c1.09-6.43,4.82-13.31,8.23-18.54,1.83-2.2,4.09-4.84,6.69-7.85L796.65,725l24.11,14q18.11,10.49,36.36,20.7c6.09,3.4,12.16,6.82,18.35,10.1,1.52.85,3.16,1.62,4.74,2.43a30.16,30.16,0,0,0,5.17,2,19.26,19.26,0,0,0,5.73.78,12.22,12.22,0,0,0,3.06-.47,8.81,8.81,0,0,0,1.53-.6,5.85,5.85,0,0,0,.76-.43,4.28,4.28,0,0,0,.38-.26l.14-.11A415.28,415.28,0,0,0,1006,698c8-7.69,15.7-15.71,22.94-24.14q5.44-6.3,10.54-12.91c.91-1.21,1.82-2.41,2.72-3.63l.08,0,73.91.2,71.24-44.36Zm-94-279.25c1.11-.47,2.22-.91,3.35-1.32a44.58,44.58,0,0,1,13.79-2.77,28.52,28.52,0,0,1,6.91.64,25.48,25.48,0,0,1,3.3,1l1.59.66,1.63.75a55.31,55.31,0,0,1,12,7.42,39,39,0,0,1,8.85,10.77c4.61,8.21,6.91,17.64,8.47,27.06a266.17,266.17,0,0,1,2.81,28.72c1,18.23,1.35,36.61-1.32,54.64l-1.07,1.82c-.25,1.76-.57,3.49-.93,5.18-14.61,29.67-25.7,34.91-32,34.62,1.72-1.62,4-4.52,6.39-9.74a46.48,46.48,0,0,0,3.75-10,98.09,98.09,0,0,0,2.12-11.85c.25-2,.47-4,.67-5.95l.31-3a24.75,24.75,0,0,0,.15-3.14,11.12,11.12,0,0,0-1.92-6.49,8.23,8.23,0,0,0-2.78-2.34,11.08,11.08,0,0,0-3.29-1.06,21.56,21.56,0,0,0-6.42,0,48.28,48.28,0,0,0-6,1.26,142.78,142.78,0,0,0-22.43,8.82c-3.6,1.75-7.15,3.58-10.67,5.45s-7,3.71-10.53,5.43-7.16,3.27-10.81,4.75-7.35,2.85-11.07,4.14a188.87,188.87,0,0,1-22.83,6.27q-4.86,1.06-9.8,1.85c-3.2-.26-6.44-.55-9.67-.85h0c-3.32-.31-6.65-.64-9.93-1-84.74-10.33-137-65.6-137.61-70-.31-2.1.78-2.77,2.07-2.88l3.38.53c6.37,1.08,13.91,2.66,20.4,4.11l.16.11c2.07.64,4.1,1.23,6.12,1.81l1.43.47,3.81,1.09c2.54.71,5.07,1.47,7.63,2.13,5.14,1.21,10.24,2.58,15.44,3.48A256.77,256.77,0,0,0,879,391.73v-.1c14.81,1.11,22.95.24,22.95.24a379.41,379.41,0,0,1-62.62-7.9c14.71,1.95,32.19,2,46.75-4.4,32-14,40.22-24,45.41-27.87C936.44,348,1011.63,304.3,1022.18,295Zm19.25,165.14a40,40,0,0,0-13.89-5.7,62.75,62.75,0,0,0-8.34-1.06h-.15c-7.07-.81-8.2-.87-19.62-1.35-3.44-.14-11.55-.48-22.13-1.07-3.42-.7-6-1.51-6.25-2.42-.49-1.63,6.47-5.41,15.37-9.65,4.48-1.69,8.91-3.54,13.25-5.57,3.52-1.66,7-3.46,10.43-5.28a112.77,112.77,0,0,0,10.11-5.08c.25-.12.49-.25.74-.36a142.69,142.69,0,0,1,22.06-8.85,46.11,46.11,0,0,1,5.8-1.26,20.06,20.06,0,0,1,5.89-.08,7.53,7.53,0,0,1,5,2.71,9.74,9.74,0,0,1,1.68,5.52,56.26,56.26,0,0,1-.33,5.93c-.1,1.27-.23,2.53-.34,3.8l.38-5.51c-1,10.53-4.84,37-19.66,35.28ZM824.22,380.25c.88.22,1.76.45,2.64.64l-.92-.16ZM784.81,73a17.93,17.93,0,0,1,6.48-1h.07c6.6,0,13.25.44,19.83,1.13s13.15,1.64,19.63,3c1.62.36,3.25.66,4.85,1.07s3.26.73,4.74,1.23a44,44,0,0,1,8.74,4.23,135,135,0,0,1,15.92,11.73c10.11,8.55,19.65,17.81,29,27.28,4.66,4.74,9.24,9.55,13.8,14.38s9.06,9.71,13.77,14.51c1.24,1.21,2.38,2.27,3.48,3.49a28.16,28.16,0,0,1,3,3.74,7.62,7.62,0,0,1,1.45,3.9,2,2,0,0,1-.62,1.39,4.67,4.67,0,0,1-1.7.93,16.44,16.44,0,0,1-4.57.63h-1.14q-.54,0-1.11-.15a17.32,17.32,0,0,1-2.25-.58,50.61,50.61,0,0,1-8.8-4.14c-5.71-3.28-11.18-7.05-16.58-10.89S882,141,876.65,137.05c-2.68-2-5.37-4-8.11-5.87-1.38-1-2.76-1.9-4.2-2.79-.72-.45-1.44-.89-2.21-1.3a12.84,12.84,0,0,0-2.5-1,7.46,7.46,0,0,0-5.57.41,9.71,9.71,0,0,0-3.78,4,26.66,26.66,0,0,0-2.82,9.88,94.15,94.15,0,0,0-1,20.08,50.25,50.25,0,0,0,1.68,10,30.21,30.21,0,0,0,1.77,4.81,20.93,20.93,0,0,0,1.23,2.28,11.91,11.91,0,0,0,1.67,2.15l.08.08.12.06A99.32,99.32,0,0,0,867.6,185c4.94,1.41,9.93,2.63,14.94,3.74,10,2.22,20.11,4.05,30.23,5.69l7.59,1.17c1.26.17,2.55.4,3.83.51l3.8.47c5.07.66,10.11,1.46,15.15,2.35,5.79,1,11.55,2.22,17.28,3.58,11.47,3.87,43.24,15.19,48.91,23.89,3.48,5.33,8.11,8.7,9.73,18-2.39,13.37-13.46,58.27-57.14,84.88q-18.25,11.36-36.64,22.46l-1.79,1.07C829.53,396,790,366.46,790,366.46s-.55.07-1.25.22l-.49-.22c-3.53-1.55-7-3.19-10.5-4.88,21.11-1.06,34.17-9.19,39.48-13.29,1.16-.58,2.3-1.18,3.43-1.8A116.84,116.84,0,0,0,843.34,330a160,160,0,0,0,18.85-20.78l0,0,0,0c1.53-2.32,3.11-4.59,4.75-6.84a119.4,119.4,0,0,0,10.39-11c6.49-8.14,10.65-11.08,10.65-11.08,15.55-16.38,29.19-26.28,40.28-32.23.57-.27,1.12-.56,1.69-.82a104.14,104.14,0,0,1,14.55-5.31,87.61,87.61,0,0,1,15.27-2.57V239c-.37,0-.74.07-1.11.1a42.6,42.6,0,0,0-13.17,1.75,80.55,80.55,0,0,1,9.22-1.36,90.63,90.63,0,0,0-10.31,1.88c-1.95.52-3.89,1.12-5.81,1.76a69.93,69.93,0,0,1,6.9-2.28c-34.1,7.12-57.36,34.75-57.36,34.75-2.87-15,4.27-26.05,10.18-32.31l1.48-1.5.77-.73,2.81-2.39c1.13-.88,1.84-1.33,1.84-1.33-.36.21-.7.44-1,.66l.62-.53-.91.71c-18.58,12-19.7,29.94-19.7,29.94-10.4-10.29-13.44-20.48-14.32-25.76.14,1.18.29,2.34.47,3.43l-.17-.71L870,244l-.32-2.18L870,244l.12,1.1.22,1.09.44,2.17.23.8a52.05,52.05,0,0,0,4.31,12.68L856.7,257.5l-1.21-.31c-1.11-.27-2.22-.54-3.33-.79h0c-1.47-.34-2.94-.67-4.42-1l-.74-.17h0q-4.07-.87-8.15-1.63c-47-12.51-43.57-44.35-43.57-44.35v0c.48-1.66.93-3.32,1.4-5,.59-2.21,1-4.48,1.51-6.71l0,.13a32.24,32.24,0,0,0,.43-11.31,42,42,0,0,0-3-10.78c-.73-1.72-1.58-3.4-2.44-5l-2.59-4.8-5.23-9.52q-3.16-5.72-6.35-11.41c-3.09-9.89-.78-16.43-3.6-37.43S781.48,76.11,784.81,73ZM195.32,249.41c.62-13.33,6.22-16.87,10.26-23.06,5.67-8.7,37.43-20,48.91-23.89,5.72-1.36,11.49-2.54,17.28-3.58,5-.89,10.08-1.69,15.15-2.35l3.8-.47c1.27-.11,2.56-.34,3.82-.51l7.6-1.17c10.12-1.64,20.21-3.47,30.23-5.69,5-1.11,10-2.33,14.94-3.74a99.32,99.32,0,0,0,14.59-5.17l.12-.06.08-.08a11.4,11.4,0,0,0,1.66-2.15,19.42,19.42,0,0,0,1.24-2.28,31.21,31.21,0,0,0,1.77-4.81,50.23,50.23,0,0,0,1.67-10,93.5,93.5,0,0,0-1-20.08,26.66,26.66,0,0,0-2.82-9.88,9.67,9.67,0,0,0-3.79-4,7.46,7.46,0,0,0-5.57-.41,13,13,0,0,0-2.49,1c-.77.41-1.5.85-2.22,1.3-1.43.89-2.82,1.84-4.19,2.79-2.74,1.92-5.43,3.89-8.11,5.87-5.36,4-10.68,7.94-16.08,11.8s-10.87,7.61-16.58,10.89a51.3,51.3,0,0,1-8.8,4.14,17.05,17.05,0,0,1-2.26.58,10.74,10.74,0,0,1-1.1.15H292.3a16.39,16.39,0,0,1-4.57-.63,4.67,4.67,0,0,1-1.7-.93,2,2,0,0,1-.62-1.39,7.53,7.53,0,0,1,1.45-3.9,28.92,28.92,0,0,1,3-3.74c1.1-1.22,2.24-2.28,3.48-3.49,4.72-4.8,9.18-9.69,13.77-14.51s9.15-9.64,13.8-14.38c9.32-9.47,18.85-18.73,29-27.28a135.77,135.77,0,0,1,15.91-11.73,44.33,44.33,0,0,1,8.75-4.23c1.48-.5,3.15-.83,4.74-1.23s3.23-.71,4.84-1.07c6.48-1.33,13.05-2.27,19.64-3S417,72,423.55,72h.06a17.91,17.91,0,0,1,6.64,1.06c3.54,3.22,13,13.92,10.18,34.76s-1,27.23-4.16,36.88q-3.28,5.82-6.54,11.66l-5.26,9.52-2.6,4.78c-.86,1.59-1.71,3.26-2.44,5a42.26,42.26,0,0,0-3,10.76,32.52,32.52,0,0,0,.4,11.28l0-.12c.5,2.24.91,4.51,1.49,6.71.33,1.17.65,2.34,1,3.52l-.36,1.49s3.52,32.85-45.83,44.93q-4.19.81-8.34,1.75l-2.77.46.14.15-2.72.64a213,213,0,0,0-20.86,6.29c3.12-5,6.14-12.76,7.11-24.26a28.49,28.49,0,0,1-.51,3l0-.39-.07.51c-1.2,5.33-4.72,15.33-15,25.47,0,0-.77-18.83-20.65-30.79a33.37,33.37,0,0,1,3.46,2.72l-2.88-2.24,4.54,3.86c.78.81,1.58,1.61,2.37,2.41,5.64,6.38,11.95,17.11,9.2,31.52,0,0-22.46-26.94-56-34.26a72.11,72.11,0,0,1,7.13,2.47c-2.26-.77-4.54-1.48-6.85-2.1a87.24,87.24,0,0,0-10.36-1.88A78.15,78.15,0,0,1,270.2,241c-7.24-2.07-12.08-2-14.07-1.91l-1-.09v.2a87.61,87.61,0,0,1,15.27,2.57,104.14,104.14,0,0,1,14.55,5.31c.74.34,1.47.71,2.2,1.07,10.84,6,24.09,15.7,39.22,31.64,0,0,4.16,2.94,10.65,11.08A139.82,139.82,0,0,0,348.46,303c1.45,2,2.86,4,4.21,6.1l0,0,0,0A159.25,159.25,0,0,0,371.57,330a116.54,116.54,0,0,0,22.71,16.54q1.7.93,3.42,1.8c5.32,4.1,18.38,12.23,39.49,13.29-3.48,1.69-7,3.33-10.5,4.88-4.79,2.17-9.64,4.16-14.48,6.2l-.7.28c-20,5.53-60.6,8.19-126.4-23.95q-22.58-13.67-44.93-27.71l-1.32-.83C209.33,296.72,198.82,264.73,195.32,249.41Zm-62.75,180c-.34-1.6-.64-3.24-.88-4.91l-.38-1.94c-2.67-18-2.35-36.41-1.31-54.64a266.17,266.17,0,0,1,2.81-28.72c1.56-9.42,3.86-18.85,8.47-27.06a39,39,0,0,1,8.85-10.77,54.84,54.84,0,0,1,12-7.42l1.62-.75,1.6-.66a24.58,24.58,0,0,1,3.3-1,28.44,28.44,0,0,1,6.9-.64,44.47,44.47,0,0,1,13.79,2.77q1.69.61,3.36,1.32c4.71,4.16,22.33,15.18,40.83,26.43l11.52,7.92h1.56c18.28,11,34.59,20.69,36.82,22.37,5.2,3.89,13.46,13.84,45.41,27.87,14.31,6.28,31.42,6.34,46,4.5a380.34,380.34,0,0,1-62.19,7.8s8.26.89,23.29-.26v.12a256.61,256.61,0,0,0,31.35-4.11c5.21-.9,10.31-2.27,15.45-3.48,2.56-.66,5.08-1.42,7.63-2.13l3.81-1.09,3.76-1.23.91-.29,2.53-.76c6.77-1.51,14.77-3.2,21.41-4.3l-.25.08.3-.09,2.9-.45c1.36.07,2.58.7,2.25,2.89-.65,4.4-52.09,58.89-135.71,69.8-7.93.88-16.11,1.64-24.06,2.28-2.56-.37-5.12-.79-7.66-1.25A187.71,187.71,0,0,1,215.39,433c-3.59-1.7-7.11-3.53-10.62-5.39s-7.06-3.65-10.64-5.37A142.29,142.29,0,0,0,172,413.38a46.49,46.49,0,0,0-5.85-1.26,20.31,20.31,0,0,0-6-.07,7.86,7.86,0,0,0-5.2,2.85,10,10,0,0,0-1.74,5.7,59,59,0,0,0,.34,6c.17,2,.35,4,.56,5.94A99.89,99.89,0,0,0,156,444.28a44.69,44.69,0,0,0,4,11.2,28.24,28.24,0,0,0,6.77,8.33C161.06,465.38,149.05,462.91,132.57,429.38Zm37.8,32.56c-7.27-3.52-11.25-11.53-13.36-18.12a99.29,99.29,0,0,1-1.56-11.46c-.17-2-.3-3.94-.43-5.92l-.18-3a21.93,21.93,0,0,1,0-2.8,8.58,8.58,0,0,1,1.5-4.74,6.17,6.17,0,0,1,4.13-2.16,19,19,0,0,1,5.46.12,45,45,0,0,1,5.6,1.25c2.86.83,5.7,1.84,8.5,2.94,8.72,4.84,26.31,14.72,34.39,20.17,8.66,5.85,23.07,9.71,23.88,12.64-10.9.62-19.28,1-22.8,1.11-11.42.48-11.42.48-19.61,1.35h-.15a49.81,49.81,0,0,0-8.34,1.06A43.71,43.71,0,0,0,172,461.08c-.47.32-.92.66-1.38,1a2.53,2.53,0,0,0-.23-.12l.2-.25S170.52,461.8,170.37,461.94ZM110.94,652.79l-.44,0c-.76.06-1.48.11-2.22.11a38.74,38.74,0,0,1,0-77.48l32.22,0c.46,3.17,1,6.33,1.69,9.47s1.57,6.2,2.46,9.26c-2.49-.08-5-.15-7.48-.18l-8,0-8,.06q-4,.06-8,.2,4,.13,8,.19l8,.05,8-.06q3.74-.06,7.49-.19,1,3.39,2,6.77c1.17,3.74,2.44,7.45,3.75,11.14q-5.35-.12-10.71-.17l-11.32-.05L117.1,612c-3.78,0-7.55.1-11.32.2q5.66.14,11.32.18l11.32.06,11.32-.07c3.57,0,7.14-.1,10.72-.19.54,1.53,1.06,3.06,1.63,4.58,1.89,5.06,3.9,10.08,6.1,15q-4.12-.12-8.25-.17l-9.11-.05-9.12.06q-4.56.06-9.11.2c3,.09,6.07.16,9.11.19l9.12,0,9.11-.06c2.76,0,5.52-.1,8.27-.18a165.8,165.8,0,0,0,7.72,15.29c1.16,2,2.4,3.95,3.68,5.88ZM528.71,822.13c-1.33.23-2.67.43-4,.55C526.14,822.53,527.5,822.33,528.71,822.13Zm104.4-172.56c-4.93.5-37,.89-48.33,0-3.37-.27-7.5-3.32-11.64-7.46-2-3.56-4-7.09-6-10.52l7,.07,11,0,22,.06,22-.09,11,0,7.71-.1c-1.81,3.1-3.62,6.28-5.4,9.49C638.42,645.72,634.83,649.39,633.11,649.57ZM557.73,594.1l16.87,0,33.75.07,33.75-.11L659,594l12.5-.1c-2.21,3.77-4.56,7.53-7,11.12-1.36,2-2.88,4.27-4.5,6.76l-10.38-.08-14.07,0-28.13-.06-28.13.1-14.07,0-10.23.09c-1.64-2.51-3.17-4.81-4.54-6.82-2.43-3.57-4.77-7.31-7-11.06ZM543.44,594c-3.7-6.3-7-12.61-9.8-18.19l147.57.12c-2.75,5.52-6,11.76-9.69,18L659,593.8l-16.88,0-33.75-.06-33.75.1-16.87.05ZM565.2,612l14.07,0,28.13.06,28.13-.1,14.07,0,10.34-.09c-3.67,5.63-7.89,12.38-12.11,19.56l-7.76-.08-11,0-22-.06-22,.09-11,.06-7,.08c-4.22-7.18-8.43-13.92-12.1-19.55Zm125,210.65c-1.36-.12-2.7-.32-4-.55C687.41,822.33,688.76,822.52,690.22,822.68ZM1042,652.42c-1.55,2.21-3.28,4.38-5,6.54-3.41,4.3-7,8.5-10.6,12.61-7.32,8.2-15,16.12-23,23.66S987.1,710,978.52,716.86s-17.45,13.38-26.51,19.6a458.55,458.55,0,0,1-57,33.21l-.55.4,0,0,0,0-.15.11a4.27,4.27,0,0,1-.38.22l-.05,0c-123.87-52.06-114.55-82.27-114-83.58,17.35-24.19,59.32-28.5,78.9-29.16-18.48,18.95-45.66,31.57-51.27,34-.39.11-.79.23-1.19.33a.11.11,0,0,0-.07.12.1.1,0,0,0,.11.08,75.4,75.4,0,0,0,12.57-3.76c4.09-1.55,8.08-3.35,12-5.26s7.81-3.94,11.64-6,7.57-4.38,11.29-6.68c7.42-4.62,14.69-9.51,21.66-14.8a231.07,231.07,0,0,0,20.09-16.87c3.19-3,6.27-6.1,9.22-9.34a110.77,110.77,0,0,0,8.34-10.13A55.72,55.72,0,0,0,919.66,608a106.75,106.75,0,0,0,4.55-12.31A69.28,69.28,0,0,0,927,582.81a45.87,45.87,0,0,0,.1-9.94h0c-.12-1.09-.27-2.18-.48-3.26a29.33,29.33,0,0,0-5.25-12.22,26.75,26.75,0,0,0-4.66-4.85,24.22,24.22,0,0,0-2.77-1.95,18.21,18.21,0,0,0-3.09-1.55h0l-.1,0a225.08,225.08,0,0,1-33.43-10,289,289,0,0,1-32-14.15q-6.09-3.08-12-6.47c-8.13-5-32.6-21.68-55.58-53.78-1.31-2.82-3.65-5.62-5.27-7.82-13.16-17.9-21.13-29.49-21.13-29.49.3,4.41,5.59,17.95,8.79,21l54.6,78.49c5.92,8.78,11.15,16.69,14.77,22.44,5.16,11.71,8.62,27.55,1.27,43.48l-37.28,44.74c-1.36,1.63-5.38,5.9-10.68,11.58l0,0-6,6.43,0,0c-13.74,14.83-31.63,34.67-37.56,45.07-1.88,2.2-4.34,5.36-7.5,9.9a13.25,13.25,0,0,0-3.83,10.06l-.34.75c-2.17,10.43,28,62.94,36.48,77.41,3.16,7.45,5.57,13.47,5.65,14.7.27,3.67-7.34,19.68-8.66,20.47s-10.76,16.8-12.86,18.37-50.93,1-56.18,1.5c-4.1.41-22.46.85-34.17.78l33.37.84c-20-.4-38.26-.82-38.63-.82-.07,0-.37,0-.84-.14,1.65.07,3.74.1,6.1.12l-6.31-.16c-2.74-.62-10-3.28-12-14.47-2.47-14-7.82-86.61-7.88-87.26,0,0,.34-3.15,2.65-4.32,1.89-1,4.61-.4,8.07,1.65,10.45,6.2,15.11,23.15,18.59,40.54,3.57,17.85,11.81,29.56,22.6,32.12,10,2.36,21.6,1.26,28.73-2.63a18.84,18.84,0,0,0,3.23,5.44s-1.46-4.69-.72-7.83a4,4,0,0,0,.27-.86c0-.1,0-.22.05-.33,4.85,5.77,12.37,8.25,12.37,8.25a50.29,50.29,0,0,1-13.33-14.21,50.83,50.83,0,0,0-4.41-8.76h0c-5.14-8.41-13.53-18.89-23.51-29.81-17.71-19.35-51.41-62-57.29-73.15-3.15-6-2.91-13.83-2-19.8a45.16,45.16,0,0,1,5.82-12.89s45-72.19,52-85.33a46.27,46.27,0,0,0,4.89-14.47h0a32.74,32.74,0,0,0,.56-5.8l.2.29c5.51,34.45-4.31,62.14-4.31,62.14,35.65-70.5-37.22-126-37.22-126h0c-22.29-18.83-41.34-20.56-41.34-20.56-16.45,3.55-30.35,11.52-41.84,21.16l.39-.61S539.86,516.81,526.56,548a55.54,55.54,0,0,0-4.19,10.27h0a74.34,74.34,0,0,0-3.29,21.22c-.64,13.49,2,28.1,9.72,43.43,0,0-9.82-27.69-4.3-62.14l.38-.58h0a43.41,43.41,0,0,0,5.34,20.55c5.31,10,32.9,54.64,45.58,75.06h0c3.9,6.28,6.39,10.27,6.39,10.27a48.85,48.85,0,0,1,7.2,19A29.49,29.49,0,0,1,585,702.16c-9.19,17.31-69.14,91.4-79,102.26a40.59,40.59,0,0,0-2.73,3.31c-3.36,3.89-9,10.17-16.2,17.43,0,0,7.95-2.62,12.78-8.75a.59.59,0,0,0,0,.14l-.38.69c1.32,3-.44,8.69-.44,8.69a19.52,19.52,0,0,0,3.45-6c7.16,4,18.88,5.1,28.9,2.72,10.8-2.56,19-14.27,22.61-32.12,3.48-17.39,8.14-34.34,18.58-40.54,3.47-2.05,6.18-2.61,8.08-1.65,2.29,1.16,2.64,4.23,2.64,4.23,0,.73-5.4,70.77-7.88,84.74-2.32,13.13-12.15,16.94-13,17.26l-9.39.21c-10.83-.52-25.42-1.87-29.22-2.25-5.25-.52-54.86,1.31-57-.26s-11.54-17.58-12.86-18.37-8.92-16.8-8.66-20.47c.09-1.23,2.5-7.25,5.66-14.7,8-13.61,35.14-60.87,36.53-75.12h0c2.63-12-16.75-30.49-16.75-30.49v0h0l0-.06c-7.88-10.56-20.88-25-31.61-36.57l0,0h0c-8.56-9.25-15.67-16.71-17.58-19-4.67-5.61-33.2-39.84-37.27-44.74-7.36-15.93-3.9-31.77,1.27-43.48,3.62-5.75,8.86-13.68,14.79-22.48L455,448c3.7-3.8,11.47-20.56,10.61-23.86,0,0-8.84,11.73-23,32.43-1.54,2.25-3.13,5-5.43,8-23,32.1-47.45,48.78-55.57,53.78q-5.91,3.39-12,6.47a289,289,0,0,1-32,14.15,225.2,225.2,0,0,1-33.44,10l-.09,0h0a18.21,18.21,0,0,0-3.09,1.55,24.22,24.22,0,0,0-2.77,1.95,26.81,26.81,0,0,0-4.67,4.85,29.46,29.46,0,0,0-5.25,12.22,44,44,0,0,0-.37,13.21,67.82,67.82,0,0,0,2.3,11.32h0c.14.52.28,1,.44,1.54A104.93,104.93,0,0,0,295.25,608c.28.7.59,1.39.92,2.08v.05l0,0a60.48,60.48,0,0,0,5.53,9.25,114.17,114.17,0,0,0,8.34,10.13c2.95,3.24,6,6.34,9.22,9.34q7,6.6,14.55,12.58h0c1.62,1.44,4,2.86,5.71,4.26a20,20,0,0,0,2.37,1.86c6.21,4.59,12.62,8.88,19.17,13,3.71,2.3,7.48,4.54,11.29,6.68s7.7,4.14,11.64,6,7.93,3.71,12,5.26a75.58,75.58,0,0,0,12.56,3.76.1.1,0,0,0,.12-.08.11.11,0,0,0-.08-.12l-.58-.16c-4.56-2-32.73-14.78-51.71-34.26,19,.52,62.44,4.46,80.19,29.2.52,1.31,9.86,31.64-114.74,83.87a5.79,5.79,0,0,1-.8-.31l-.37-.22a1,1,0,0,1-.15-.11l-.05,0s0,0,0,0l-.56-.4a457.7,457.7,0,0,1-57-33.21q-13.59-9.33-26.52-19.6c-8.57-6.89-16.91-14.07-24.89-21.63s-15.65-15.46-23-23.66Q183,665.41,177.92,659c-1.69-2.16-3.41-4.33-5-6.54s-3-4.52-4.4-6.87a206,206,0,0,1-13.9-29.79q-2.94-7.69-5.49-15.56c-1.55-4.82-3-9.7-4.3-14.58-5-72.93,4.94-81.63,18.08-107.91,8.69-17.38,28.47-21.83,41.07-22.84h0l10-.16,1.21.06-.94-.07q11.43-.18,22.86-.47c9.29-.24,18.58-.53,27.87-.93,13.68.51,46-2.1,87.24-17.1,13.37-4.86,25.5-12.64,37.19-20.68,1.7-1.17,3.38-2.37,5-3.58A197.26,197.26,0,0,0,418,392.67q3.71-3.39,7.29-6.9,6.35-6.28,12.25-13c7.68-7.27,16.15-15.2,19.33-17.91,9.49,28.81,17.07,35,17.07,35C463.17,372,459,348.45,457.53,336.19c0-.52,0-1,.05-1.54.07-1.37.19-2.73.32-4.1,12.06,25.66,29.66,31.63,29.66,31.63-16.85-14.45-24.51-28.82-27.5-35.82.58.56,1.18,1.11,1.79,1.64a63.16,63.16,0,0,0,14.81,9.8c-4.43-3.91-8.72-7.84-12.63-12a63.35,63.35,0,0,1-5.35-6.58,31.3,31.3,0,0,1-2.12-3.52c-.28-.54-.53-1.08-.76-1.63v-.14h-.06a17.44,17.44,0,0,1-.63-1.89,12.48,12.48,0,0,1,.29-7.47,24.45,24.45,0,0,1,3.92-7.09,51.65,51.65,0,0,1,5.81-6.24,87.48,87.48,0,0,1,6.71-5.62,41.72,41.72,0,0,0-7.91,4.08,43,43,0,0,0-4.67,3.56c-1.91-.94-5.58-4.78-12-18.2l-6.19-13c-.13-.3-.25-.61-.37-.92-1.7-4.18-3.35-8.39-5-12.6-.49-1.26-1-2.53-1.45-3.8h.06l-2.72-7.48-.13.08q-2.62-7.08-5.07-14.23l-2.12-6.42-2-6.46c-.64-2.15-1.17-4.33-1.77-6.5s-.93-4.36-1.41-6.54l0-.08v0a25.26,25.26,0,0,1-.58-5.09,36.72,36.72,0,0,1,.32-5.23,39.68,39.68,0,0,1,2.87-10.09,52.64,52.64,0,0,1,2.38-4.75l2.61-4.74,5.31-9.47,21.25-37.89,21.11-38c7.05-12.65,14-25.32,21.14-37.92A12.06,12.06,0,0,1,498,41.6a23.58,23.58,0,0,1,3-1.8,36.19,36.19,0,0,1,6.59-2.45,60.79,60.79,0,0,1,14-1.75c2.37-.05,4.76,0,7.15,0h7.15l14.31-.08,57.24-.7,7.15-.11,3.56-.05c1.12,0,2.36.09,3.54.13l14.3.55q14.31.52,28.62.84c9.52.22,19.13.34,28.61.31a59.73,59.73,0,0,1,13.83,1.73,34.51,34.51,0,0,1,6.42,2.38,22.12,22.12,0,0,1,2.86,1.72,16.36,16.36,0,0,1,1.28,1c.18.18.4.36.56.54s.34.37.42.47l21.28,37.77,21.45,37.78,21.38,37.81,5.33,9.46,2.63,4.73c.89,1.59,1.68,3.14,2.39,4.75A39.25,39.25,0,0,1,796,186.71a38.12,38.12,0,0,1,.33,5.22,25.17,25.17,0,0,1-.56,5.08l0,.06v.07c-.48,2.18-.85,4.37-1.4,6.54s-1.12,4.34-1.76,6.5l-2,6.46-2.12,6.42q-2.44,7.16-5.06,14.24l0,0-2.73,7.44c-.48,1.27-1,2.53-1.45,3.8q-2.53,6.5-5.12,13L767.6,275c-6.37,13.42-10,17.26-12,18.2a43,43,0,0,0-4.67-3.56,41.72,41.72,0,0,0-7.91-4.08c2.34,1.8,4.6,3.64,6.71,5.62a50.77,50.77,0,0,1,5.8,6.24,24.25,24.25,0,0,1,3.93,7.09,12.41,12.41,0,0,1,.28,7.47,15.44,15.44,0,0,1-.62,1.89h-.06V314c-.23.55-.48,1.09-.77,1.63a28.59,28.59,0,0,1-2.12,3.52,62,62,0,0,1-5.34,6.58c-3.91,4.19-8.21,8.12-12.63,12a63.58,63.58,0,0,0,14.81-9.8c.5-.44,1-.89,1.49-1.35-3.08,7.1-10.76,21.28-27.39,35.53,0,0,17.75-6,29.81-31.95.15,1.47.28,2.95.35,4.42,0,.13,0,.27,0,.4-1.38,11.9-5.44,36.37-16.58,54.88,0,0,7.6-6.25,17.1-35.16,3.08,2.6,11.69,10.66,19.48,18q5.91,6.68,12.25,13a269.89,269.89,0,0,0,35.8,29.75c11.7,8,23.76,16,37.19,20.68,41.75,14.5,73.57,17.61,87.24,17.1,9.3.4,18.59.69,27.88.93q16.57.43,33.16.64l7.4.7c18,3.09,26.35,7.45,33.7,22.14,13.13,26.28,23.1,35,18.07,107.91-1.24,4.88-2.74,9.76-4.29,14.58q-2.55,7.86-5.5,15.56a205,205,0,0,1-13.9,29.79C1045,647.9,1043.49,650.19,1042,652.42Zm-201-75.9,35.9.05c27.1,6,43.21,1.68,48.45-.25a11.94,11.94,0,0,1,0,1.25c0-.4.08-.78.12-1.17a56,56,0,0,1-2.12,17.36l-10.78-.11-11.62,0-23.24-.07-23.24.09-11.62.06-9.88.1c.53-.74,1-1.44,1.42-2.07A43.56,43.56,0,0,0,841,576.52Zm-1.15-26.78a377.67,377.67,0,0,1-24.39-34.54s-1.28-3.41,10.38.68q9.08,5.72,18.56,10.74A286.09,286.09,0,0,0,876.5,541q8.26,3.06,16.72,5.55c2.72.79,5.44,1.54,8.18,2.24,14.52,6.69,20.26,15.19,22.5,21.22C878.41,581,847.74,557,839.81,549.74Zm-6.28,41.45c-.51.77-1.13,1.66-1.83,2.63h0c.74-1,1.48-2.11,2.22-3.23C833.77,590.79,833.66,591,833.53,591.19Zm-.62,2.65,9.91.1,11.62,0,23.24.07,23.24-.1,11.62-.05,10.78-.12a65.73,65.73,0,0,1-8.09,17.91l-10.46-.1-12.56,0-25.12-.07-25.12.1-12.57,0-10.74.11C824.85,604.36,829.86,598.12,832.91,593.84Zm-3.51,18,12.57,0,25.12.07,25.12-.1,12.56,0,10.43-.11a80.21,80.21,0,0,1-18.14,19.58l-7.74-.07-12.67,0-25.33-.06-25.33.1-12.67,0-11.46.12c6.07-7,11.79-13.68,16.77-19.62Zm-16.07,19.65,12.66,0,25.33.07,25.33-.1,12.67-.06,7.62-.08a120.64,120.64,0,0,1-27.91,16L786.52,649c5.18-5.9,10.36-11.82,15.32-17.53ZM344.57,576.1l29.3,0a43.44,43.44,0,0,0,6.67,15.58c.46.7,1,1.48,1.61,2.32l-9.89-.09-11.76,0L337,593.85l-23.5.1-11.76,0-4.84,0a93.78,93.78,0,0,1-5.1-14.6C312.48,582.92,331.39,579.8,344.57,576.1Zm-55.19-3.42c1.45-5.84,6.32-15.78,22.44-23.48,3.31-.81,6.59-1.7,9.87-2.65q8.44-2.5,16.72-5.55a286.09,286.09,0,0,0,32.14-14.38q9.48-5,18.56-10.74c11.65-4.09,10.37-.68,10.37-.68A102.21,102.21,0,0,1,389,541.1l-7.25,10.42c-7.7,9.26-15.35,13.65-19.29,15.46l-.15.06-5.15,1.7c-2.9.85-5.84,1.63-8.79,2.32l-31.07,4-3.15.12q-5.91.13-11.82-.08A95.4,95.4,0,0,1,289.38,572.68ZM381,590.61c.8,1.2,1.61,2.36,2.39,3.46h0c-.78-1.07-1.46-2-2-2.88C381.25,591,381.14,590.8,381,590.61Zm-79.28,3.63,11.76,0,23.5.07,23.51-.1,11.76,0,9.91-.11c3.1,4.32,8.12,10.55,14.27,17.9l-11.09-.1-12.58,0-25.16-.07-25.15.1-12.58,0-4.21,0c-3.81-7-6.63-12.92-8.71-17.77Zm8.15,17.93,12.58,0,25.15.07,25.16-.1,12.58,0,11.12-.11c5,5.94,10.7,12.61,16.76,19.6l-11.9-.11-12.73,0-25.44-.07-25.45.1-12.72,0-5.15.06a54.67,54.67,0,0,1-8.58-9.77c-2-3.45-3.85-6.68-5.5-9.7ZM325,631.8l12.72,0,25.45.07,25.44-.1,12.73,0,11.91-.12c5.61,6.47,11.51,13.19,17.37,19.85l-77.69-1.16A83.45,83.45,0,0,1,320,631.75Zm718.68,23.53c.27-.38.55-.75.81-1.14q2.38-3.48,4.49-7.11a164.85,164.85,0,0,0,7.93-15.77c3.87.06,7.73.12,11.59.14l14.73,0,14.73-.07q7.36,0,14.73-.2-7.37-.13-14.73-.18l-14.73,0-14.73.07c-3.85,0-7.7.09-11.55.16,2.11-4.78,4-9.62,5.88-14.5.62-1.68,1.21-3.37,1.8-5.06,2.17.06,4.33.12,6.49.15l8.25,0,8.25-.06q4.13-.06,8.25-.2c-2.75-.09-5.5-.16-8.25-.19l-8.25,0-8.25.06c-2.15,0-4.3.09-6.46.16,1.24-3.52,2.44-7.05,3.55-10.6.76-2.42,1.49-4.83,2.19-7.25,2.2,0,4.4.11,6.59.14l8.72,0,8.73-.06q4.35-.06,8.72-.2c-2.91-.09-5.82-.16-8.73-.19l-8.72-.05-8.72.06c-2.19,0-4.37.09-6.56.15.83-2.87,1.61-5.76,2.3-8.7s1.16-5.9,1.6-8.87a.91.91,0,0,0,.46.13l40.91,0,.35.19,11.6,21-24.32,13.41,23.54,16.26-12.27,28.1.84.37Zm72,.19h-.14l12.59-28.82-22.9-15.81L1129,597.77l-11.33-20.45,42.16,23V626.6l14-7.3Z"/></g></svg>