<?xml version="1.0" encoding="utf-8"?>
<!-- Generator: Adobe Illustrator 26.0.3, SVG Export Plug-In . SVG Version: 6.00 Build 0)  -->
<svg version="1.1" id="Layer_1" xmlns="http://www.w3.org/2000/svg" xmlns:xlink="http://www.w3.org/1999/xlink" x="0px" y="0px"
	 viewBox="0 0 713.55 541.43" style="enable-background:new 0 0 713.55 541.43;" xml:space="preserve">
<style type="text/css">
	.st0{fill:#2A7D91;}
	.st1{fill:#68287A;}
	.st2{fill:#180F1B;}
</style>
<g>
	<path class="st0" d="M655.44,352.73l-620.29-0.35c0,0-20.04,2.32-21.86,24.24c0,0,0.85,23.95,21.08,24.14l620.32,1.54l7.82-17.9
		l-14.21-9.87l14.72-8.09L655.44,352.73z"/>
	<path class="st1" d="M618.37,293.68c10.48-10.9,19.71-22.36,19.35-60.68c-0.36-38.32-8.66-43.78-8.66-43.78s-6.51-6.76-11.85-9.41
		c-5.07-2.51-12.44-1.57-12.44-1.57l-13.53,5.19c7.14-21.86,10.2-31.81-1.53-45.89c-11.73-14.08-58-18.39-67.59-20.06
		c-9.59-1.67-23.83-5.89-23.83-5.89l-4.24-2.04c-7.1-9.63-0.97-30.17-0.97-30.17l4.9-1.63l15.51,10.92l16.53,12.04l7.75,1.49
		l3.67-1.6v-3.03l-6.24-7.25l-32.85-32.54l-12.43-8.7l-13.5-3.81l-21.11-1.29l-3.71,0.92l-4.85,3.83l-2.82,4.64l-3.35,22.67
		l-27.32-47.9l-4.1-3.74c-9.16-4.18-63.72-3.44-63.72-3.44v0.27l-3.57,0.06v-0.33c0,0-36.4,0.81-54.72,1.05
		c-0.26-0.25-1.32,0.23-1.85,0.24c-7.27,0.21-10.51,4.71-10.51,4.71l-11.18,19.69l-0.34,0.59l-10.57,18.5l-5.99,10.29l-3.35-22.67
		l-2.81-5.29l-4.81-3.38l-4.36-0.75l-7.99,0.23l-13.74,1.27l-12.28,3.62l-12.43,8.7L152.1,90.32l-6.24,7.25v3.03l3.67,1.6l7.75-2.1
		l16.54-11.43l15.51-10.92l4.9,1.63c0,0,6.13,20.54-0.97,30.17l-4.24,2.04c0,0-14.23,4.22-23.83,5.89
		c-9.59,1.67-55.86,5.98-67.59,20.06c-11.73,14.08-8.67,24.03-1.53,45.89l-13.53-5.19c0,0-7.51-1.21-12.44,1.57
		c-5.02,2.83-11.6,8.76-11.6,8.76s-8.56,6.11-8.92,44.43s8.87,49.78,19.35,60.68c0,0-15.35,11.26-11.07,58.33
		c4.66,51.25,64.85,104.1,110.08,121.88c0,0,6.08-0.29,15.07-4.91c8.99-4.61,76.62-42.24,76.62-42.24l6.26,6.81l3.21,6.92
		c0,0,1.81,4.96-2.48,11.6c-4.28,6.65-22.72,44.79-22.72,44.79s-3.08,2.93,0.72,7.98c3.8,5.05,11.39,18.81,11.39,18.81l9.39,0.89
		l47.74-0.06c0,0,8.78,0.75,11.3-10.86c2.13-9.77,4.65-51.95,4.65-51.95s-0.82-6.18-7.66-1.28c-7.74,5.53-9.76,20.43-9.76,20.43
		l-3.26,11.4c0,0-4.38,17.42-22.61,11.24l-6.85-2.03l-0.43-3.73l25.07-30.89l25.49-34.19c0,0,6.71-9.56,2.05-20.1
		c-4.67-10.53-35.21-61.37-35.21-61.37s-4.6-8.18-2.15-12.76c2.45-4.58,23.32-40.82,48.08-42.64v-0.19
		c1.08-0.11,2.27-0.17,3.57-0.13v0.32c24.76,1.82,45.63,38.06,48.08,42.64c2.45,4.58-2.15,12.76-2.15,12.76
		s-30.54,50.84-35.21,61.37c-4.67,10.53,2.05,20.1,2.05,20.1l25.49,34.19l25.07,30.89l-0.43,3.73l-6.85,2.03
		c-18.24,6.18-22.61-11.24-22.61-11.24l-3-11.43c0,0-2.47-15.36-9.74-20.6c-6.86-4.94-7.93,1.49-7.93,1.49s3.64,43.66,4.84,53.58
		c1.2,9.93,8.24,9.23,8.24,9.23l50.61,0.06l9.39-0.89c0,0,7.59-13.76,11.39-18.81c3.8-5.05,0.72-7.98,0.72-7.98
		s-18.44-38.15-22.72-44.79c-4.28-6.65-2.3-12.69-2.3-12.69l8.79-12.85c0,0,68.12,37.84,77.11,42.45
		c8.99,4.61,15.07,4.91,15.07,4.91c59.41-29.32,106.24-74.77,110.08-121.88C633.28,304.91,618.37,293.68,618.37,293.68z
		 M235.26,402.31c-1.16,0.23-2.32,0.38-3.48,0.47c-0.17,0.03-0.34,0.03-0.52,0.03c-3.02,0.19-6.04,0-9.08-0.26
		c-4.41-0.38-8.75-0.52-13.18-0.32c-9.14,0.41-18.63,1.87-27.73,0.39c-0.84-0.14-1.42-0.89-1.62-1.7c-3.21-1.42-6.03-3.62-8.68-5.89
		c-0.38-0.33-0.59-0.8-0.65-1.31c-0.71-0.51-1.41-1.03-2.09-1.58c-3.85-3.13-7.38-6.74-10.45-10.64
		c-6.19-7.88-9.69-17.38-9.45-27.58c0.05-1.92,1.11-2.51,2.48-1.98c2.13-0.3,3.97,0.27,6.07,0.63c3.44,0.59,6.98,0.41,10.46,0.21
		c7.83-0.45,15.45-1.13,23.28-1.24c3.15-2.43,10.13-1.78,10.9,3.61c1.11,0.68,1.42,2.7,1.81,4.4c0.96,4.56,6.61,9.61,9.46,13.29
		c0.1,0.13,0.19,0.26,0.29,0.39c1.03,0.04,1.55,0.99,2.26,2.09c0.84,1.29,2.14,2.16,2.82,3.56c0.58,0.39,1.93,1.25,2.23,2.05
		c1.04,2.76,3.23,5.2,5.25,7.28c2.77,2.86,5.43,5.82,8.29,8.59c0.32,0.31,0.55,0.65,0.72,0.99
		C237.11,397.92,237.97,401.76,235.26,402.31z M250.71,208.22c0.1,0.37,0.24,0.71,0.38,1.06c0.14,0.35,0.15,0.73,0.16,1.1
		c0,0.23-0.08,0.4-0.2,0.52c0.27,0.71,0.51,1.41,0.6,2.19c0.05,0.42-0.4,0.78-0.78,0.78c-0.05,0-0.09-0.02-0.14-0.03
		c-0.14,1.21-0.57,2.35-1.56,3.31c-1.5,1.46-3.61,2.25-5.6,2.75c-3.73,0.95-8.34,1.46-12.1,0.32c-2.27-0.69-4.31-2.08-6.33-3.38
		c-0.8,0.42-1.83,0.46-2.71-0.27c-0.58-0.48-1.18-0.94-1.8-1.36c-0.16,0.01-0.33,0-0.48-0.08c-1.52-0.71-2.97-1.57-4.5-2.28
		c-1.5-0.69-2.98-1.41-4.37-2.31c-0.26-0.17-0.36-0.41-0.36-0.65c-1.15-0.59-2.28-1.21-3.37-1.89c-2.52-1.56-4.65-3.51-6.64-5.61
		c-0.73-0.3-1.44-0.67-1.96-1.28c-0.04-0.05-0.07-0.1-0.1-0.16c-0.33-0.02-0.65-0.11-0.95-0.3c-2.49-1.56-4.34-3.8-5.93-6.24
		c-0.45-0.68-0.87-1.38-1.29-2.08c-0.94-0.09-1.69-0.72-2.05-1.68c-0.03-0.09-0.05-0.13-0.05-0.15c0-0.01-0.01-0.01-0.01-0.02
		c-0.08-0.18-0.17-0.35-0.26-0.52c-0.17-0.32-0.35-0.63-0.55-0.93c-0.22-0.35-0.46-0.69-0.7-1.03c-0.12-0.17-0.25-0.34-0.38-0.51
		c-0.02-0.02-0.08-0.11-0.12-0.16c-1.01-1.3-2.14-2.54-3.03-3.93c-0.74-1.16-1.35-2.4-2.06-3.58c-0.02-0.03-0.04-0.07-0.06-0.1
		c-0.42-0.09-0.83-0.29-1.18-0.62c-1.03-0.96-1.81-2.17-2.56-3.34c-0.4-0.26-0.67-0.67-1-1.04c-0.41-0.46-0.99-0.76-1.26-1.34
		c-0.06-0.12-0.08-0.23-0.09-0.35c-0.63-0.53-1.26-1.11-1.62-1.85c-0.04,0.01-0.08,0.01-0.13,0.01c-0.44,0-0.75-0.36-0.78-0.78
		c-0.05-0.81,0.04-1.65,0.27-2.43c0.22-0.72,0.46-1.46,1.07-1.94c0.58-0.46,0.9-1.18,1.4-1.71c0.26-0.27,0.53-0.53,0.81-0.78
		c0.11-0.1,0.23-0.19,0.33-0.29c0.04-0.03,0.11-0.11,0.14-0.14c0.02-0.02,0.06-0.12,0.03-0.04c0.02-0.06,0.05-0.12,0.08-0.17
		c0-0.15,0.04-0.3,0.1-0.41c0.1-0.17,0.28-0.31,0.47-0.36c0.41-0.1,0.83-0.17,1.23-0.31c0.09-0.04,0.19-0.09,0.27-0.15
		c-0.01,0.01-0.01,0.01-0.02,0.02c0.13-0.11,0.29-0.15,0.45-0.16c0.6-0.27,1.23-0.48,1.87-0.64c0.09-0.1,0.2-0.18,0.36-0.23
		c0.9-0.28,1.82-0.52,2.73-0.76c0.92-0.24,1.81-0.56,2.72-0.83c0.41-0.12,0.83-0.15,1.25-0.22c0.49-0.08,0.96-0.25,1.45-0.35
		c0.4-0.08,0.8-0.15,1.2-0.19c0.32-0.04,0.65-0.06,0.92-0.25c0.26-0.18,0.51-0.17,0.71-0.06c0.29-0.31,0.62-0.55,1.06-0.67
		c0.41-0.11,0.92-0.1,1.36,0.04c0.01,0,0.02-0.01,0.04-0.01c2.27-0.49,4.57-0.74,6.86-1.09c3.07-0.71,6.19-1.19,9.31-1.63
		c7.43-1.04,14.96-1.82,22-4.58c0.57-0.22,1.19-0.11,1.71,0.2c0.35-0.06,0.68-0.17,1.05-0.1c0.43,0.07,0.77,0.31,1.01,0.67
		c0.17,0.25,0.29,0.51,0.49,0.74c0.26,0.3,0.54,0.58,0.76,0.91c0.43,0.65,0.59,1.49,0.74,2.25c0.16,0.79,0.23,1.6,0.4,2.4
		c0.05,0.12,0.11,0.25,0.14,0.39c0.02,0.09,0.06,0.18,0.09,0.28c0.07,0.08,0.15,0.14,0.21,0.22c0.61,0.85,0.96,1.95,1.18,2.96
		c0.06,0.28,0.11,0.56,0.15,0.84c1.13,2.43,2.45,4.78,3.35,7.31c1.41,3.97,3.76,7.46,5.22,11.41c0.02,0.05,0.02,0.1,0.03,0.15
		c0.42,0.8,0.43,1.8-0.37,2.64c-0.1,0.11-0.32,0.99-0.36,1.58c-0.07,1.13,0.02,2.27,0.15,3.39c0.24,2.14,0.71,4.19,1.41,6.23
		c0.9,2.61,1.27,5.16,0.87,7.97c-0.2,1.41-0.03,2.88-0.52,4.2c-0.15,0.42-0.26,0.81-0.33,1.2
		C250.67,208.03,250.69,208.12,250.71,208.22z M438.14,217.15c-1.89-1.84-1.74-4.32-1.45-6.73c0.16-1.35,0.12-2.41-0.36-3.69
		c-0.49-1.33-0.05-3.45-0.25-4.86c-0.4-2.81-0.3-4.7,0.6-7.31c0.7-2.04,1.17-4.09,1.41-6.23c0.13-1.12,0.22-2.26,0.15-3.39
		c-0.04-0.58-0.25-1.47-0.36-1.58c-0.8-0.84-0.79-1.85-0.37-2.64c0.01-0.05,0.02-0.1,0.03-0.15c1.46-3.94,3.81-7.44,5.22-11.41
		c0.9-2.53,2.22-4.88,3.35-7.31c0.04-0.28,0.09-0.56,0.15-0.84c0.21-1.02,0.57-2.11,1.18-2.96c0.06-0.09,0.14-0.15,0.21-0.22
		c0.03-0.09,0.06-0.18,0.09-0.28c0.18-0.68-0.11-1.54,0.37-1.8c0.41-1.87,1.1-4.34,2.49-5.77c0.18-0.18,1.25-0.53,1.34-0.05
		c0.59-0.56,1.34-0.14,2.11,0.16c7.04,2.76,14.57,3.54,22,4.58c3.76,0.52,7.58,0.94,11.26,1.92c1.4,0.37,2.7,0.16,4.1,0.5
		c0.13-0.12,0.27,0.61,0.41,0.52c0.5-0.32,1.24-0.39,1.8-0.23c0.48,0.13,0.84,0.4,1.14,0.75c-0.01-0.01-0.02-0.02-0.02-0.03
		c0.15,0.19,0.49-0.13,0.66,0.03c0.38,0.05,0.8,0.06,1.19,0.11c0.63,0.03,1.07,0.41,1.67,0.56c0.14,0.02,0.28,0.04,0.41,0.06
		c0.19,0.03,0.36,0.1,0.52,0.19c1.27,0.37,1.88,0.31,3.49,0.8c1.68,0.52,3.69,0.96,5.37,1.8c0.04-0.01,0.07-0.01,0.11-0.01
		c0.16,0,0.35,0.07,0.49,0.17c0.09,0.03,0.19,0.05,0.29,0.07c0.16,0.04,0.31,0.1,0.47,0.17c0.06,0.02,0.12,0.05,0.18,0.06
		c0.2,0.06,0.35,0.19,0.47,0.36c0.01,0.01,0.01,0.03,0.01,0.04c0.03,0.02,0.06,0.04,0.09,0.06c0.61,0.56,1.07,1.29,1.58,1.93
		c0.52,0.65,0.97,1.33,1.57,1.91c0.32,0.31,0.65,0.65,0.79,1.09c0.11,0.36,0.15,0.78,0.21,1.15c0.07,0.39,0.11,0.75,0.04,1.14
		c0.26,0.27,0.36,0.7,0.05,1.05c0,0.02-0.01,0.05-0.03,0.11c-0.09,0.38-0.53,0.64-0.91,0.56c-0.01,0.02-0.02,0.03-0.04,0.05
		c-0.01,0.01-0.01,0.03-0.02,0.04c-0.51,0.78-1.14,1.47-1.82,2.12c-0.71,0.68-1.3,1.45-1.96,2.16c-0.02,0.02-0.04,0.02-0.06,0.04
		c-0.72,1.13-1.48,2.27-2.46,3.19c-0.2,0.19-0.43,0.33-0.66,0.44c-0.02,0.05-0.05,0.11-0.07,0.16c-0.05,0.1-0.13,0.19-0.2,0.28
		c-0.03,0.04-0.07,0.07-0.11,0.11c-0.09,0.07-0.18,0.14-0.28,0.21c-0.1,0.06-0.2,0.11-0.3,0.17c-0.56,0.99-1.08,1.99-1.69,2.94
		c-0.89,1.39-2.02,2.63-3.03,3.93c-0.04,0.05-0.1,0.14-0.12,0.16c-0.13,0.17-0.25,0.34-0.38,0.51c-0.24,0.34-0.48,0.68-0.7,1.03
		c-0.19,0.3-0.38,0.61-0.55,0.93c-0.09,0.17-0.18,0.34-0.26,0.52c0,0.01-0.01,0.01-0.01,0.02c-0.01,0.02-0.02,0.06-0.05,0.15
		c-0.35,0.96-1.11,1.59-2.05,1.68c-0.42,0.7-0.85,1.39-1.29,2.08c-1.59,2.44-3.45,4.67-5.93,6.24c-0.52,0.32-1.1,0.38-1.64,0.25
		c-2.39,2.66-4.9,5.18-8.01,7.1c-0.59,0.37-1.2,0.71-1.81,1.05c0.18,0.27,0.19,0.63-0.12,0.92c-1,0.93-2.21,0.95-3.42,1.44
		c-1.19,0.49-2.2,1.33-3.39,1.83c-0.63,0.26-1.26,0.49-1.85,0.83c-0.57,0.32-1.11,0.69-1.72,0.95c-0.33,0.14-0.67,0.25-1.01,0.34
		c-0.54,0.38-1.07,0.78-1.58,1.21c-0.88,0.73-1.9,0.7-2.71,0.27c-2.02,1.3-4.06,2.7-6.33,3.38c-3.76,1.14-8.36,0.63-12.1-0.32
		C441.75,219.4,439.64,218.61,438.14,217.15z M529.51,381.49c-3.06,3.9-6.6,7.51-10.45,10.64c-0.68,0.55-1.38,1.07-2.09,1.58
		c-0.06,0.5-0.27,0.98-0.65,1.31c-2.65,2.27-5.48,4.47-8.68,5.89c-0.2,0.82-0.85,0.76-1.69,0.89c-9.1,1.49-18.51,0.84-27.65,0.42
		c-4.43-0.2-8.76-0.06-13.18,0.32c-3.04,0.26-6.07-0.26-9.09-0.45c-0.17,0-0.35-0.01-0.52-0.03c-1.16-0.09-2.31,0.47-3.47,0.24
		c-2.71-0.54-1.86-4.39,0.58-4.53c0.17-0.34,0.39-0.67,0.72-0.99c2.86-2.77,5.52-5.73,8.29-8.59c2.02-2.08,4.4-4.72,5.43-7.48
		c0.3-0.8,2.07-1.59,2.65-1.98c0.68-1.4,1.37-2.14,2.21-3.43c0.72-1.1,1.81-2.83,2.84-2.87c0.1-0.13,0.19-0.26,0.29-0.39
		c2.85-3.68,7.92-7.94,8.88-12.5c0.39-1.7,0.79-4.54,1.9-5.22c0.77-5.39,7.66-5.22,10.81-2.79c7.84,0.11,15.46,0.79,23.28,1.24
		c3.48,0.2,7.03,0.38,10.46-0.21c2.1-0.36,3.94-0.93,6.07-0.63c1.36-0.53,2.82-0.29,2.87,1.63
		C539.59,363.76,535.7,373.61,529.51,381.49z"/>
	<polygon class="st1" points="655.44,352.73 686.27,369.57 686.27,383.37 654.19,403.05 662.52,384.39 648.31,374.52 663.03,366.43 
			"/>
	<polyline class="st1" points="525.67,470.46 518.42,473.96 512.05,473.21 430.72,426.36 	"/>
	<path class="st0" d="M137.22,276.22c0,0-22.9-4.65-32.2-8.85c-9.31-4.2-25.82-13.74-35.99-14.49c0,0-3.33,1.63-3.14,6.55
		c0.18,4.93,1,12.04,2.46,16.01c1.46,3.97,2.65,7.8,7.02,9.9l6.66-4.2c0,0,8.94-3.01,22.17-2.92
		C117.42,278.31,137.22,276.22,137.22,276.22z"/>
	<path class="st0" d="M218.91,318.19l-14.42,21.74l-7.07,11l-20.71,2c0,0-23.01,3.04-28.69-0.45c0,0,1.15-13.02,10.57-15.42
		c6.48-1.65,38.26-10.57,62.95-30.12L218.91,318.19z"/>
	<path class="st0" d="M550.53,275.48c0,0,23.09-5.12,32.59-9.31c9.5-4.2,19.7-13.36,34.34-13.92c0,0,5.31,1.33,5.12,6.26
		c-0.19,4.93-0.71,11.19-2.2,15.16s-3.15,9.06-7.62,11.16l-6.36-3.99c0,0-9.09-3.37-22.6-3.27
		C570.29,277.65,550.53,275.48,550.53,275.48z"/>
	<path class="st0" d="M468.1,318.19l14.42,21.74l7.07,11l20.71,2c0,0,23.36,1.69,29.04-1.79c0,0-2.11-11.86-9.85-13.95
		c-6.46-1.74-39.33-10.7-64.02-30.26L468.1,318.19z"/>
	<path class="st0" d="M267.49,193.12c0,0,8.65,25.35,39.5,19.52l3.03-2.22C310.02,210.42,289.63,187.44,267.49,193.12z"/>
	<path class="st0" d="M419.95,193.12c0,0-8.65,25.35-39.5,19.52l-3.03-2.22C377.42,210.42,397.81,187.44,419.95,193.12z"/>
	<polygon class="st0" points="267.84,77.46 260.44,75.99 254.26,79.74 252.9,86.53 257.18,92.37 264.57,93.84 270.76,90.09 
		272.12,83.31 	"/>
	<polygon class="st0" points="272.44,102.98 267.8,102.06 263.91,104.41 263.06,108.67 265.75,112.34 270.39,113.27 274.28,110.91 
		275.13,106.65 	"/>
	<polygon class="st0" points="241.46,302.34 237.96,301.65 235.03,303.42 234.39,306.63 236.41,309.39 239.91,310.09 242.84,308.32 
		243.48,305.11 	"/>
	<polygon class="st0" points="257.75,118.09 254.25,117.4 251.32,119.17 250.68,122.38 252.7,125.14 256.2,125.84 259.13,124.07 
		259.77,120.86 	"/>
	<polygon class="st0" points="264.31,278.9 256.04,277.25 249.07,281.74 247.48,289.73 252.19,296.55 260.46,298.19 267.43,293.71 
		269.03,285.72 	"/>
	<polygon class="st0" points="245.88,105.39 243.27,104.87 241.08,106.2 240.6,108.59 242.11,110.66 244.73,111.18 246.91,109.85 
		247.39,107.46 	"/>
	<polygon class="st0" points="270.49,54.42 267.87,53.9 265.68,55.23 265.2,57.62 266.72,59.69 269.33,60.21 271.52,58.88 
		272,56.49 	"/>
	<polygon class="st0" points="250.04,136.37 247.42,135.85 245.24,137.17 244.76,139.57 246.27,141.64 248.88,142.16 251.07,140.83 
		251.55,138.43 	"/>
	<g>
		<polygon class="st2" points="291.53,342.3 291.53,342.3 291.53,342.3 		"/>
		<path class="st2" d="M326.24,203.06c0.02,1.09,0.02,2.18-0.09,3.25c-0.12,1.07-0.3,2.13-0.67,3.12c-0.35,0.99-0.91,1.89-1.66,2.53
			c-0.38,0.32-0.81,0.57-1.26,0.74c-0.44,0.17-0.97,0.26-1.38,0.24l-0.06,0l-0.06,0.01c-1.7,0.22-3.4-0.12-5.01-0.74l-2.08-0.98
			c-0.55-0.31-1.08-0.64-1.6-0.99l-4.27-3.41c-0.91-0.83-1.79-1.7-2.68-2.59c-0.94-0.87-1.87-1.75-2.85-2.58
			c-1.93-1.68-3.92-3.28-6.02-4.75c-4.17-2.95-8.66-5.48-13.44-7.29c-2.39-0.9-4.84-1.64-7.34-2.15c-2.5-0.49-5.05-0.82-7.6-0.68
			l0.01,0.12c0,0,3.21,0.09,7.46,1.89c-5.58,0.41-11.33,2.13-11.33,2.13c0.29,3.17,1.45,5.84,2.68,7.86
			c2.81,5.51,8.43,12.34,19.46,14.93c0.79,0.22,1.57,0.44,2.36,0.65c2.64,0.55,5.32,1.05,8.03,1.1c2.7,0.09,5.44-0.09,8.09-0.77
			c1.12-0.31,2.22-0.65,3.29-1.12c1.67-0.22,4.05-0.46,6.72-0.5c1.95,0.81,4.11,1.23,6.25,0.88l-0.11,0
			c0.69,0.01,1.24-0.13,1.81-0.36c0.56-0.23,1.07-0.56,1.5-0.98c0.86-0.83,1.41-1.9,1.72-2.98c0.33-1.08,0.44-2.2,0.46-3.31
			c0.01-1.1-0.07-2.2-0.22-3.28L326.24,203.06z M303.99,212.84c-10.08,1.85-16.43-1.27-16.43-1.27
			c-11.76-2.5-15.41-14.94-15.41-14.94c12.52-5.83,19.92,1.55,28.33,8.27l-0.02-0.01c0,0,0.05,0.04,0.12,0.09
			c0.25,0.2,0.5,0.39,0.74,0.59c1.15,0.96,3.14,2.85,4.05,5.11C305.25,212.4,303.99,212.84,303.99,212.84z"/>
		<path class="st2" d="M421.45,196.78c0.01-0.02,0.02-0.04,0.03-0.06c0,0-0.01,0.01-0.01,0.01c0.77-1.67,1.4-3.62,1.6-5.82
			c0,0-5.45-1.63-10.89-2.09c3.61-1.55,7.01-1.93,7.01-1.93c-1.26,0-2.51,0.07-3.72,0.2c1.24-0.15,2.48-0.23,3.72-0.2l0.01-0.12
			c-2.55-0.14-5.1,0.19-7.6,0.68c-2.5,0.51-4.95,1.25-7.34,2.15c-0.19,0.07-0.39,0.16-0.58,0.23c-0.31,0.12-0.49,0.19-0.49,0.19
			l0.01,0c-4.38,1.78-8.52,4.14-12.38,6.87c-2.09,1.47-4.09,3.07-6.02,4.75c-0.98,0.82-1.91,1.71-2.85,2.58
			c-0.89,0.89-1.77,1.75-2.68,2.59l-4.27,3.41c-0.52,0.35-1.06,0.68-1.6,0.99l-2.08,0.98c-1.61,0.63-3.31,0.96-5.01,0.74l-0.06-0.01
			l-0.06,0c-0.41,0.02-0.94-0.07-1.38-0.24c-0.45-0.17-0.88-0.42-1.26-0.74c-0.76-0.64-1.31-1.54-1.66-2.53
			c-0.36-0.98-0.55-2.05-0.67-3.12c-0.11-1.07-0.12-2.16-0.09-3.25l-0.12-0.01c-0.16,1.08-0.24,2.18-0.22,3.28
			c0.01,1.1,0.13,2.22,0.46,3.31c0.31,1.08,0.86,2.15,1.72,2.98c0.43,0.42,0.94,0.75,1.5,0.98c0.57,0.23,1.13,0.37,1.81,0.36
			l-0.11,0c2.14,0.35,4.3-0.06,6.25-0.88c2.68,0.04,5.05,0.28,6.72,0.5c1.07,0.46,2.18,0.81,3.29,1.12c0.91,0.23,1.83,0.4,2.75,0.53
			c4.95,0.76,12.5,0.37,23.27-3.99c0,0,5.63-2.05,11.46-11.73C420.45,198.71,420.98,197.8,421.45,196.78z M399.84,211.56
			c0,0-6.36,3.12-16.44,1.27c0,0-1.26-0.44-1.38-2.16c0.91-2.26,2.9-4.15,4.05-5.11c0.25-0.2,0.5-0.39,0.74-0.59
			c0.07-0.05,0.12-0.09,0.12-0.09l-0.02,0.01c8.41-6.72,15.81-14.11,28.33-8.27C415.25,196.62,411.03,206.85,399.84,211.56z"/>
		<path class="st2" d="M621.99,257.94l-0.18,2.58C621.95,258.93,621.99,257.94,621.99,257.94z"/>
		<path class="st2" d="M183.19,146.72c0.04-0.33,0.05-0.51,0.05-0.51C183.23,146.39,183.21,146.55,183.19,146.72z"/>
		<path class="st2" d="M504.58,148.66c-0.09-0.73-0.16-1.49-0.22-2.28C504.36,146.38,504.34,147.23,504.58,148.66z"/>
		<path class="st2" d="M655.6,352.12l-25.4-0.02h0c-0.04,0-0.08,0.02-0.13,0.03c0.62-4.57,0.91-9.17,0.94-13.76
			c0.03-6.81-0.54-13.61-1.7-20.32c-0.26-1.45-0.55-2.89-0.88-4.33c-1.08-6.6-3-13.06-6.74-18.35c-0.02-0.03-0.05-0.07-0.07-0.1
			c-0.36-0.65-0.74-1.29-1.14-1.92c2.68-2.58,4.99-5.9,6.94-9.48c1.32-1.81,2.5-3.72,3.53-5.7c2.74-5.33,4.49-11.12,5.64-16.98
			c1.16-5.87,1.63-11.85,1.85-17.8c0.2-5.96,0.09-11.92-0.2-17.87c-0.31-5.93-0.71-11.91-1.69-17.82c-0.5-2.96-1.13-5.9-2-8.79
			c-0.44-1.44-0.92-2.88-1.51-4.28c-0.57-1.41-1.23-2.78-2.01-4.1c-1.53-2.65-3.51-5.07-5.89-7.02c-2.37-1.96-5.06-3.44-7.78-4.7
			l-1.02-0.47l-1.08-0.44c-0.74-0.26-1.49-0.48-2.25-0.64c-1.52-0.32-3.08-0.44-4.61-0.38c-3.08,0.1-6.07,0.84-8.91,1.87
			c-2.2,0.81-4.31,1.81-6.35,2.96l0.61-1.84c0.77-1.87,1.47-3.76,2.11-5.68c0.98-2.98,1.81-6.02,2.41-9.11
			c0.6-3.09,0.97-6.23,0.98-9.38c0-0.96-0.03-1.92-0.11-2.88c-0.05-1.12-0.18-2.18-0.39-3.13c-0.2-1.12-0.47-2.24-0.82-3.33
			c-0.95-3.01-2.59-5.84-4.84-8.09c-2.27-2.22-4.92-3.99-7.66-5.54c-5.51-3.08-11.46-5.27-17.47-7.09
			c-6.03-1.81-12.17-3.22-18.35-4.36c-3.09-0.57-6.2-1.07-9.31-1.5l-2.34-0.3c-0.78-0.08-1.53-0.21-2.32-0.32l-4.64-0.74
			c-6.18-1.03-12.35-2.18-18.46-3.57c-3.05-0.69-6.09-1.45-9.1-2.32c-2.97-0.87-5.92-1.83-8.69-3.12c-0.27-0.28-0.55-0.68-0.79-1.06
			c-0.25-0.41-0.49-0.84-0.69-1.29c-0.42-0.89-0.74-1.83-1.01-2.79c-0.53-1.92-0.82-3.92-0.96-5.92c-0.26-4.02,0.05-8.06,0.66-12.09
			c0.04-0.25,0.08-0.5,0.11-0.76c0.03-0.24,0.07-0.48,0.11-0.73c0.09-0.49,0.2-0.97,0.32-1.44c0.26-0.95,0.6-1.87,1.07-2.7
			c0.47-0.82,1.08-1.55,1.84-1.94c0.76-0.4,1.66-0.42,2.54-0.15c0.88,0.25,1.72,0.76,2.57,1.3c0.85,0.53,1.68,1.11,2.51,1.69
			c1.66,1.17,3.29,2.39,4.92,3.61c3.26,2.44,6.52,4.91,9.83,7.31c3.32,2.39,6.68,4.74,10.24,6.81c1.79,1.02,3.62,2,5.65,2.69
			c0.51,0.17,1.03,0.31,1.57,0.42c0.27,0.05,0.55,0.09,0.84,0.11l0.44,0.02l0.4-0.01c1.06-0.02,2.14-0.1,3.24-0.44
			c0.55-0.18,1.11-0.44,1.61-0.9c0.5-0.46,0.83-1.19,0.86-1.86c0.03-0.67-0.14-1.27-0.34-1.81c-0.21-0.54-0.48-1.02-0.77-1.48
			c-1.17-1.81-2.7-3.31-4.14-4.71c-2.82-2.89-5.58-5.93-8.38-8.89c-2.8-2.97-5.63-5.92-8.5-8.83c-5.75-5.81-11.62-11.51-17.95-16.73
			c-3.17-2.6-6.44-5.1-9.99-7.23c-1.78-1.05-3.63-2.02-5.66-2.67c-1.03-0.33-2.02-0.51-3.02-0.76c-1-0.24-2.01-0.42-3.01-0.64
			c-4.03-0.79-8.09-1.34-12.17-1.7c-4.08-0.36-8.17-0.56-12.28-0.51l0.04,0c-1.77-0.04-3.46,0.33-5.04,1.03
			c-0.79,0.35-1.53,0.8-2.21,1.32l-0.97,0.82l-0.91,0.88c-2.38,2.43-3.97,5.51-4.99,8.69c-1.02,3.16-1.47,6.47-1.7,9.75
			c-0.35,3.09-0.42,5.85-0.41,7.81c-0.18-0.32-0.36-0.63-0.53-0.95l-13.1-23.2l-13.22-23.13l-0.03-0.04l-0.02-0.02
			c-0.18-0.24-0.3-0.36-0.45-0.52c-0.14-0.16-0.3-0.28-0.44-0.43c-0.3-0.26-0.61-0.52-0.94-0.74c-0.64-0.46-1.32-0.84-2-1.19
			c-1.38-0.69-2.83-1.17-4.28-1.56c-2.93-0.74-5.92-1.02-8.89-1.06c-1.5-0.02-2.94,0.01-4.4,0.02l-4.38,0.01
			c-2.92,0-5.84-0.03-8.76-0.06c-5.84-0.06-11.69-0.19-17.53-0.3l-8.77-0.19c-0.74-0.01-1.44-0.04-2.21-0.05l-2.2,0.07l-4.38,0.13
			c-11.69,0.33-23.38,0.67-35.07,0.81c-5.85,0.08-11.68,0.15-17.54,0.09c-2.94,0.03-5.89,0.32-8.76,1.04
			c-1.43,0.39-2.84,0.86-4.18,1.52c-0.66,0.34-1.32,0.7-1.93,1.15c-0.62,0.44-1.19,0.9-1.7,1.55l0,0.01l-0.01,0.02l-13.33,23.06
			c-4.44,7.69-8.91,15.37-13.3,23.08c-0.23,0.41-0.46,0.81-0.69,1.22c0.03-1.97-0.03-4.89-0.4-8.17c-0.23-3.28-0.68-6.58-1.7-9.75
			c-1.02-3.18-2.61-6.26-4.98-8.69l-0.91-0.88l-0.97-0.82c-0.68-0.53-1.43-0.97-2.21-1.32c-1.58-0.7-3.27-1.06-5.04-1.03l0.04,0
			c-4.11-0.04-8.2,0.15-12.28,0.51c-4.08,0.36-8.15,0.91-12.17,1.7c-1,0.21-2.01,0.39-3.01,0.64c-1,0.25-1.99,0.43-3.02,0.76
			c-2.02,0.65-3.87,1.62-5.66,2.67c-3.55,2.12-6.82,4.63-9.99,7.23c-6.33,5.22-12.21,10.92-17.95,16.73
			c-2.87,2.91-5.7,5.85-8.5,8.83c-2.8,2.96-5.56,6-8.38,8.89c-1.45,1.4-2.97,2.89-4.14,4.71c-0.29,0.46-0.56,0.95-0.77,1.48
			c-0.21,0.54-0.37,1.13-0.34,1.81c0.02,0.67,0.36,1.4,0.86,1.86c0.5,0.46,1.07,0.72,1.61,0.9c1.1,0.34,2.18,0.42,3.24,0.44
			l0.4,0.01l0.44-0.02c0.29-0.03,0.57-0.06,0.84-0.11c0.54-0.1,1.07-0.25,1.57-0.42c2.02-0.69,3.85-1.67,5.65-2.69
			c3.57-2.08,6.93-4.42,10.24-6.81c3.31-2.4,6.57-4.86,9.83-7.31c1.63-1.22,3.27-2.44,4.92-3.61c0.83-0.58,1.66-1.16,2.51-1.69
			c0.86-0.53,1.7-1.05,2.57-1.3c0.88-0.26,1.78-0.24,2.54,0.15c0.76,0.39,1.38,1.12,1.84,1.94c0.47,0.83,0.81,1.75,1.07,2.7
			c0.13,0.47,0.24,0.96,0.32,1.44c0.04,0.24,0.08,0.49,0.11,0.73c0.03,0.26,0.07,0.51,0.11,0.76c0.61,4.02,0.92,8.06,0.66,12.09
			c-0.14,2-0.42,4-0.96,5.92c-0.27,0.96-0.59,1.9-1.01,2.79c-0.2,0.45-0.44,0.88-0.69,1.29c-0.23,0.38-0.52,0.78-0.79,1.06
			c-2.77,1.29-5.72,2.25-8.69,3.12c-3,0.87-6.04,1.62-9.1,2.32c-6.11,1.39-12.28,2.54-18.46,3.57l-4.64,0.74
			c-0.78,0.11-1.54,0.25-2.32,0.32l-2.34,0.3c-3.12,0.42-6.22,0.92-9.31,1.5c-6.18,1.15-12.32,2.55-18.35,4.36
			c-6.01,1.83-11.96,4.01-17.47,7.09c-2.74,1.56-5.39,3.32-7.66,5.54c-2.25,2.25-3.88,5.07-4.84,8.09c-0.35,1.09-0.62,2.2-0.82,3.32
			c-0.21,0.95-0.34,2.01-0.39,3.13c-0.07,0.96-0.11,1.92-0.11,2.88c0.01,3.15,0.38,6.29,0.98,9.38c0.6,3.09,1.42,6.13,2.41,9.11
			c0.64,1.92,1.34,3.81,2.11,5.68l0.61,1.84c-2.03-1.15-4.15-2.14-6.35-2.96c-2.84-1.03-5.83-1.77-8.91-1.87
			c-1.54-0.05-3.09,0.06-4.61,0.38c-0.76,0.16-1.51,0.38-2.25,0.64l-1.08,0.44L70,178.79c-2.72,1.26-5.41,2.74-7.78,4.7
			c-2.38,1.95-4.36,4.38-5.89,7.02c-0.78,1.32-1.43,2.7-2.01,4.1c-0.59,1.4-1.07,2.84-1.51,4.28c-0.86,2.89-1.5,5.84-2,8.79
			c-0.97,5.91-1.38,11.89-1.69,17.82c-0.29,5.94-0.4,11.91-0.2,17.87c0.22,5.96,0.69,11.93,1.85,17.8
			c1.15,5.86,2.89,11.65,5.64,16.98c1.03,1.98,2.21,3.9,3.53,5.7c1.96,3.58,4.26,6.89,6.94,9.47c-0.39,0.63-0.77,1.27-1.14,1.92
			c-0.02,0.03-0.05,0.06-0.07,0.1c-3.73,5.29-5.66,11.75-6.74,18.35c-0.32,1.44-0.62,2.88-0.88,4.33c-1.16,6.7-1.73,13.51-1.7,20.32
			c0.03,4.44,0.3,8.88,0.88,13.29l-19.58-0.02c-13.77,0-24.98,11.2-24.98,24.98s11.2,24.98,24.98,24.98c0.5,0,0.98-0.03,1.45-0.07
			l0.22-0.02l36.77,0.1h0c0.89,1.25,1.79,2.45,2.71,3.66c2.08,2.7,4.23,5.34,6.46,7.92c4.44,5.16,9.16,10.08,14.07,14.8
			c19.59,18.84,42.34,34.36,66.86,46.04c0.03,0.02,0.06,0.05,0.09,0.07c0.08,0.06,0.16,0.12,0.24,0.16c0.16,0.1,0.31,0.19,0.47,0.26
			c0.31,0.15,0.62,0.27,0.94,0.36c0.63,0.17,1.26,0.28,1.87,0.29c1.23,0.04,2.4-0.17,3.51-0.47c1.11-0.3,2.17-0.73,3.17-1.2
			c0.97-0.49,1.97-0.97,2.9-1.49c3.8-2.02,7.52-4.11,11.25-6.2c7.46-4.19,14.89-8.4,22.29-12.69l14.78-8.58l31.8-17.51
			c0.97,1.13,1.86,2.16,2.66,3.11c0.59,0.52,1.12,1.09,1.61,1.7c1.1,1.34,2.04,2.81,2.75,4.4c0.51,1.14,1,2.37,1.25,3.62
			c0.66,2.18,0.81,4.46,0,6.64c-2.01,4.48-6.29,13.19-10.79,22.2c0.2-0.44,0.31-0.69,0.31-0.69s-0.39,0.81-1.04,2.14
			c-4.99,9.98-10.1,20.04-12.56,24.87c-0.33,0.55-0.6,1.09-0.82,1.61c-0.41,0.81-0.65,1.28-0.68,1.32
			c-0.04,0.08-0.75,1.56-0.13,3.98c0.05,0.32,0.1,0.51,0.1,0.51s0.04,0.07,0.12,0.21c0.2,0.58,0.47,1.2,0.84,1.87
			c0.23,0.44,4.5,8.4,8.78,14.36c0.66,1.04,1.19,1.83,1.51,2.24c0.33,0.42,0.73,0.81,1.17,1.18c0.42,0.48,0.84,0.93,1.24,1.32
			c0.16,0.41,1.02,1.7,5.42,1.9c0.42,0.02,1.18,0.03,2.22,0.03c10.86,0,52.19-0.95,52.64-0.96l0.09-0.01
			c0.07-0.02,6.9-2.3,8.45-11.07c1.52-8.6,4.81-51.58,4.84-52.07c-0.01-0.09-0.24-2.26-1.95-3.13c-1.36-0.69-3.23-0.35-5.54,1.03
			c-6.61,3.92-9.52,14.46-11.68,25.26c-2.09,10.47-6.82,17.39-13,19.1c-10.12,1.94-15.17-2.21-17.24-3.41
			c0.41-1.75,0.58-3.35,0.64-4.3c0.48-0.94,1.06-1.9,1.61-2.76c7.07-7.98,42.58-51.95,48.1-62.34c0.04-0.06,2.58-3.61,2.81-9.31
			c0.02-0.28,0.02-0.57,0.02-0.87c0-3.02-0.68-6.58-2.65-10.51c-0.97-2.5-2.15-5.16-3.48-7.9l33.13,0.1
			c-1.31,2.71-2.48,5.34-3.44,7.8c-1.99,3.95-2.66,7.52-2.65,10.55c0,0.27,0,0.53,0.01,0.78c0.07,1.84,0.38,3.45,0.77,4.8
			c0.01,0.02,0.01,0.04,0.01,0.04l0,0.01c0.82,2.81,1.98,4.45,2,4.47c0.72,1.36,1.96,3.29,3.57,5.64l0,0l0,0
			c5.81,8.45,16.55,22.3,26.16,34.35l0,0l0,0c8.19,10.25,15.56,19.19,18.38,22.38c0.05,0.07,0.09,0.15,0.14,0.22l1.08,1.81
			l0.14,0.36c0.07,1.01,0.25,2.81,0.74,4.75c-2.17,1.3-7.21,5.22-17.09,3.32c-6.18-1.71-10.9-8.63-13-19.1
			c-2.16-10.8-5.07-21.34-11.68-25.26c-2.32-1.37-4.18-1.72-5.54-1.03c-1.72,0.87-1.94,3.04-1.95,3.18
			c0.03,0.45,3.32,45.01,4.84,53.61c1.56,8.81,8.45,9.48,8.54,9.49c0.46,0.01,41.79,0.96,52.64,0.96c1.04,0,1.8-0.01,2.22-0.03
			c4.4-0.2,5.26-1.49,5.42-1.9c5.14-4.97,12.39-18.52,12.7-19.09c0.38-0.68,0.65-1.31,0.85-1.89c0.07-0.12,0.11-0.19,0.11-0.19
			s0.05-0.19,0.1-0.52c0.61-2.42-0.09-3.9-0.13-3.98c-0.02-0.05-0.26-0.51-0.68-1.32c-0.22-0.52-0.49-1.05-0.82-1.61
			c-2.46-4.82-7.57-14.89-12.56-24.87c-0.65-1.34-1.04-2.14-1.04-2.14s0.11,0.24,0.31,0.69c-5.38-10.78-10.46-21.14-11.69-24.32
			l0.03-1.17c0.67-3.94,2.96-8.15,5.05-11.37c1.12-1.35,2.5-2.97,4.1-4.81l31.8,17.51l14.78,8.58c7.4,4.28,14.83,8.5,22.29,12.69
			c3.74,2.09,7.46,4.18,11.25,6.2c0.93,0.52,1.93,0.99,2.9,1.49c1,0.47,2.06,0.9,3.17,1.2c1.11,0.31,2.28,0.51,3.51,0.47
			c0.61-0.01,1.25-0.11,1.87-0.29c0.31-0.09,0.63-0.21,0.94-0.36c0.16-0.08,0.31-0.16,0.47-0.26c0.08-0.04,0.16-0.11,0.24-0.16
			c0.03-0.02,0.06-0.04,0.09-0.07c24.52-11.69,47.27-27.2,66.86-46.04c4.91-4.71,9.63-9.63,14.07-14.8
			c2.22-2.58,4.38-5.22,6.46-7.92c0.56-0.74,1.12-1.48,1.67-2.22c0.02,0,0.03,0.01,0.05,0.01l45.31,0.12l43.67-27.2L655.6,352.12z
			 M597.96,180.91c0.68-0.29,1.36-0.56,2.05-0.81c2.74-0.98,5.59-1.63,8.46-1.7c1.43-0.03,2.85,0.09,4.23,0.39
			c0.69,0.15,1.36,0.36,2.02,0.6l0.98,0.4l1,0.46c2.64,1.26,5.18,2.7,7.37,4.55c2.2,1.84,4.01,4.1,5.42,6.6
			c2.83,5.03,4.24,10.81,5.19,16.59c0.96,5.8,1.4,11.69,1.73,17.61c0.64,11.18,0.83,22.45-0.81,33.5l-0.66,1.11
			c-0.16,1.08-0.35,2.14-0.57,3.18c-8.96,18.19-15.76,21.41-19.63,21.23c1.06-0.99,2.45-2.77,3.92-5.97c1.02-1.93,1.75-4,2.3-6.1
			c0.6-2.4,0.99-4.83,1.3-7.27c0.15-1.22,0.29-2.43,0.41-3.65l0.19-1.82c0.06-0.61,0.11-1.27,0.09-1.93
			c-0.03-1.3-0.27-2.75-1.18-3.98c-0.45-0.6-1.05-1.1-1.7-1.44c-0.65-0.34-1.34-0.54-2.02-0.65c-1.36-0.22-2.67-0.14-3.93,0.02
			c-1.27,0.17-2.5,0.45-3.7,0.77c-4.81,1.34-9.32,3.32-13.76,5.41c-2.2,1.07-4.38,2.19-6.54,3.34c-2.17,1.17-4.27,2.28-6.46,3.33
			c-2.18,1.04-4.39,2.01-6.63,2.91c-2.25,0.89-4.5,1.74-6.79,2.54c-4.57,1.58-9.25,2.85-14,3.85c-1.99,0.44-3.99,0.81-6.01,1.13
			c-1.97-0.16-3.95-0.34-5.93-0.52v0c0,0-0.01,0-0.01,0c-2.04-0.19-4.07-0.39-6.09-0.61c-51.95-6.33-83.96-40.22-84.37-42.94
			c-0.19-1.28,0.48-1.69,1.27-1.76c0.66,0.1,1.35,0.21,2.07,0.33c3.91,0.66,8.53,1.63,12.5,2.52l0.1,0.07
			c1.27,0.39,2.52,0.75,3.75,1.11l0.88,0.29l2.33,0.67c1.56,0.43,3.11,0.9,4.68,1.31c3.15,0.74,6.28,1.58,9.47,2.13
			c6.34,1.32,12.79,1.99,19.22,2.52l0-0.06c9.08,0.68,14.07,0.15,14.07,0.15c-16.1-0.77-28.93-2.78-38.39-4.84
			c9.02,1.19,19.74,1.22,28.67-2.7c19.59-8.6,24.65-14.7,27.84-17.09C545.39,213.39,591.49,186.63,597.96,180.91z M609.76,282.16
			c-2.61-1.65-5.48-2.93-8.52-3.49c-1.67-0.31-3.4-0.57-5.12-0.65l-0.09,0c-4.33-0.5-5.02-0.54-12.02-0.83
			c-2.11-0.09-7.08-0.3-13.57-0.66c-2.1-0.43-3.66-0.92-3.83-1.48c-0.3-1,3.96-3.31,9.42-5.91c2.75-1.04,5.46-2.17,8.12-3.42
			c2.16-1.02,4.29-2.12,6.4-3.24c2.74-1.27,4.99-2.36,6.2-3.12c0.15-0.07,0.3-0.15,0.45-0.22c4.39-2.09,8.85-4.09,13.53-5.42
			c1.17-0.32,2.35-0.6,3.55-0.77c1.2-0.17,2.42-0.24,3.61-0.05c1.18,0.18,2.35,0.7,3.07,1.66c0.72,0.96,0.99,2.19,1.03,3.38
			c0.05,1.21-0.12,2.42-0.2,3.63c-0.06,0.78-0.14,1.55-0.21,2.33l0.23-3.38C621.22,266.98,618.85,283.23,609.76,282.16
			L609.76,282.16z M476.59,233.19c0.54,0.14,1.08,0.28,1.62,0.39c-0.19-0.03-0.38-0.07-0.57-0.1
			C477.28,233.38,476.94,233.29,476.59,233.19z M452.43,44.82c1.28-0.45,2.66-0.67,3.97-0.62l0.03,0l0.01,0
			c4.05,0.02,8.12,0.27,12.16,0.69c4.04,0.43,8.06,1,12.04,1.82c0.99,0.22,1.99,0.4,2.97,0.65c0.97,0.25,2,0.45,2.91,0.75
			c1.86,0.62,3.64,1.56,5.36,2.6c3.44,2.09,6.64,4.6,9.76,7.19c6.2,5.24,12.05,10.92,17.76,16.72c2.85,2.9,5.66,5.86,8.46,8.82
			c2.82,2.96,5.55,5.95,8.44,8.89c0.76,0.75,1.46,1.4,2.13,2.14c0.67,0.73,1.3,1.49,1.82,2.29c0.51,0.79,0.92,1.68,0.89,2.39
			c-0.02,0.35-0.14,0.61-0.38,0.85c-0.25,0.24-0.63,0.43-1.04,0.57c-0.85,0.27-1.83,0.37-2.8,0.39l-0.37,0.01l-0.33-0.01
			c-0.22-0.02-0.45-0.05-0.68-0.09c-0.46-0.08-0.92-0.21-1.38-0.36c-1.85-0.61-3.65-1.55-5.4-2.54c-3.5-2.01-6.85-4.32-10.17-6.68
			c-3.31-2.36-6.57-4.81-9.86-7.23c-1.64-1.21-3.29-2.42-4.97-3.6c-0.84-0.59-1.69-1.16-2.57-1.71c-0.44-0.27-0.89-0.54-1.36-0.79
			c-0.48-0.25-0.99-0.47-1.53-0.63c-1.07-0.32-2.36-0.31-3.42,0.26c-1.06,0.56-1.79,1.48-2.32,2.42c-1.05,1.91-1.49,4.02-1.73,6.06
			c-0.59,4.04-0.9,8.19-0.61,12.31c0.15,2.06,0.46,4.12,1.03,6.13c0.29,1,0.63,1.99,1.09,2.95c0.22,0.48,0.48,0.95,0.76,1.4
			c0.3,0.46,0.58,0.88,1.02,1.32l0.05,0.05l0.08,0.04c2.9,1.34,5.91,2.3,8.94,3.17c3.03,0.86,6.09,1.61,9.16,2.29
			c6.14,1.36,12.33,2.49,18.53,3.49l4.66,0.72c0.77,0.11,1.56,0.24,2.35,0.32l2.33,0.29c3.11,0.41,6.2,0.89,9.29,1.44
			c3.55,0.64,7.09,1.36,10.59,2.2c7.04,2.37,26.51,9.31,29.99,14.65c2.13,3.27,4.97,5.33,5.97,11.06
			c-1.47,8.2-8.25,35.73-35.03,52.04c-7.46,4.64-14.94,9.23-22.46,13.77c-0.36,0.22-0.73,0.44-1.1,0.66
			c-57.6,26.5-81.87,8.38-81.87,8.38s-0.33,0.04-0.77,0.13c-0.1-0.04-0.2-0.09-0.3-0.13c-2.17-0.95-4.31-1.96-6.44-2.99
			c12.94-0.66,20.95-5.64,24.21-8.15c0.71-0.36,1.41-0.72,2.1-1.1c5.05-2.78,9.7-6.24,13.92-10.14c4.24-3.89,8.07-8.19,11.56-12.74
			l0.01-0.02l0.01-0.02c0.93-1.42,1.91-2.81,2.91-4.19c1.87-1.84,4.14-3.99,6.37-6.78c3.98-4.99,6.53-6.79,6.53-6.79
			c9.54-10.04,17.9-16.11,24.7-19.76c0.34-0.17,0.69-0.34,1.03-0.5c2.89-1.3,5.86-2.4,8.92-3.26c3.07-0.8,6.2-1.33,9.36-1.58
			l-0.01-0.12c-0.23,0.01-0.45,0.04-0.68,0.06c-1.21-0.07-3.98-0.04-8.07,1.08c1.84-0.38,3.72-0.66,5.66-0.83
			c-2.13,0.26-4.24,0.64-6.32,1.15c-1.2,0.32-2.38,0.69-3.56,1.08c1.53-0.59,2.95-1.05,4.23-1.4c-20.91,4.36-35.17,21.3-35.17,21.3
			c-1.76-9.21,2.62-15.97,6.24-19.81c0.3-0.31,0.61-0.61,0.91-0.92c0.16-0.16,0.32-0.31,0.47-0.45l1.72-1.47
			c0.69-0.54,1.13-0.82,1.13-0.82c-0.22,0.13-0.43,0.27-0.64,0.41l0.38-0.33l-0.56,0.44c-11.39,7.35-12.08,18.36-12.08,18.36
			c-6.38-6.31-8.24-12.55-8.78-15.79c0.08,0.72,0.18,1.43,0.29,2.1l-0.1-0.44l-0.1-0.67l-0.19-1.34l0.15,1.35l0.08,0.67l0.13,0.66
			l0.27,1.33l0.14,0.49c0.69,3.23,1.63,5.78,2.64,7.78l-11.4-2.66c-0.25-0.06-0.49-0.13-0.74-0.19c-0.68-0.17-1.36-0.33-2.05-0.49
			l0,0c-0.01,0-0.01,0-0.02,0c-0.9-0.21-1.81-0.41-2.71-0.61l-0.45-0.11l-0.01,0.01c-1.66-0.35-3.33-0.69-4.99-1
			c-28.81-7.67-26.71-27.19-26.71-27.19l0-0.02c0.29-1.02,0.57-2.04,0.86-3.05c0.36-1.35,0.62-2.74,0.93-4.11l-0.02,0.08
			c0.56-2.36,0.52-4.63,0.26-6.93c-0.3-2.28-0.92-4.51-1.81-6.61c-0.45-1.05-0.97-2.08-1.49-3.05l-1.59-2.94l-3.21-5.84
			c-1.29-2.33-2.59-4.66-3.89-6.99c-1.89-6.07-0.48-10.08-2.21-22.95C444.91,53.14,450.39,46.72,452.43,44.82z M91.02,152.97
			c0.38-8.17,3.82-10.34,6.29-14.14c3.48-5.33,22.95-12.28,29.99-14.65c3.51-0.83,7.04-1.56,10.59-2.2
			c3.08-0.55,6.18-1.04,9.29-1.44l2.33-0.29c0.78-0.07,1.57-0.21,2.35-0.32l4.66-0.72c6.2-1,12.39-2.13,18.53-3.49
			c3.07-0.68,6.13-1.43,9.16-2.29c3.03-0.87,6.04-1.83,8.94-3.17l0.08-0.04l0.05-0.05c0.44-0.44,0.72-0.86,1.02-1.32
			c0.28-0.45,0.54-0.92,0.76-1.4c0.45-0.95,0.8-1.95,1.09-2.95c0.57-2.01,0.87-4.07,1.03-6.13c0.29-4.12-0.02-8.27-0.61-12.31
			c-0.24-2.04-0.68-4.16-1.73-6.06c-0.53-0.94-1.26-1.86-2.32-2.42c-1.06-0.57-2.35-0.58-3.42-0.26c-0.54,0.16-1.05,0.37-1.53,0.63
			c-0.47,0.25-0.92,0.52-1.36,0.79c-0.88,0.55-1.73,1.13-2.57,1.71c-1.68,1.17-3.33,2.38-4.97,3.6c-3.28,2.43-6.54,4.87-9.86,7.23
			c-3.31,2.36-6.67,4.67-10.17,6.68c-1.75,0.99-3.55,1.92-5.4,2.54c-0.46,0.15-0.92,0.27-1.38,0.36c-0.23,0.04-0.45,0.07-0.68,0.09
			l-0.33,0.01l-0.37-0.01c-0.98-0.02-1.95-0.12-2.8-0.39c-0.42-0.14-0.79-0.33-1.04-0.57c-0.24-0.24-0.36-0.51-0.38-0.85
			c-0.03-0.71,0.39-1.6,0.89-2.39c0.52-0.8,1.14-1.56,1.82-2.29c0.68-0.74,1.37-1.4,2.13-2.14c2.89-2.94,5.63-5.94,8.44-8.89
			c2.8-2.96,5.61-5.91,8.46-8.82c5.71-5.8,11.56-11.48,17.76-16.72c3.11-2.6,6.32-5.1,9.76-7.19c1.72-1.03,3.5-1.98,5.36-2.6
			c0.91-0.3,1.93-0.5,2.91-0.75c0.98-0.25,1.98-0.43,2.97-0.65c3.97-0.82,8-1.39,12.04-1.82c4.04-0.42,8.11-0.68,12.16-0.69l0.01,0
			l0.03,0c1.34-0.05,2.76,0.18,4.07,0.65c2.17,1.97,7.96,8.53,6.24,21.31c-1.71,12.75-0.59,16.7-2.55,22.61
			c-1.34,2.38-2.68,4.76-4.01,7.15l-3.22,5.83l-1.59,2.93c-0.53,0.97-1.05,2-1.5,3.05c-0.9,2.1-1.52,4.33-1.82,6.6
			c-0.27,2.29-0.31,4.56,0.25,6.92l-0.02-0.07c0.31,1.37,0.56,2.76,0.92,4.11c0.2,0.72,0.4,1.44,0.59,2.16l-0.22,0.92
			c0,0,2.16,20.14-28.09,27.54c-1.71,0.33-3.42,0.69-5.12,1.07c-0.56,0.1-1.12,0.19-1.7,0.28l0.09,0.1
			c-0.56,0.13-1.11,0.25-1.67,0.39c-4.32,1.1-8.61,2.32-12.79,3.85c1.91-3.09,3.76-7.82,4.36-14.87c-0.05,0.4-0.14,1.02-0.31,1.83
			l0.03-0.24l-0.04,0.32c-0.74,3.27-2.89,9.4-9.17,15.61c0,0-0.48-11.54-12.66-18.87c0,0,0.88,0.57,2.12,1.67l-1.76-1.38l2.78,2.37
			c0.48,0.5,0.97,0.99,1.46,1.48c3.45,3.91,7.33,10.49,5.64,19.32c0,0-13.77-16.51-34.33-21c1.33,0.38,2.79,0.87,4.37,1.51
			c-1.39-0.48-2.78-0.91-4.2-1.29c-2.09-0.51-4.21-0.89-6.35-1.16c2.12,0.18,4.18,0.49,6.18,0.93c-4.44-1.27-7.41-1.26-8.63-1.17
			c-0.21-0.02-0.42-0.04-0.62-0.05l-0.01,0.12c3.16,0.25,6.3,0.78,9.36,1.58c3.05,0.86,6.03,1.96,8.92,3.26
			c0.46,0.21,0.9,0.44,1.35,0.66c6.65,3.65,14.77,9.63,24.04,19.4c0,0,2.55,1.8,6.53,6.79c2.5,3.13,5.06,5.45,7.03,7.44
			c0.89,1.23,1.75,2.47,2.58,3.74l0.01,0.02l0.01,0.02c3.49,4.55,7.32,8.86,11.56,12.74c4.23,3.89,8.88,7.36,13.92,10.14
			c0.69,0.38,1.39,0.75,2.1,1.1c3.26,2.51,11.27,7.49,24.21,8.15c-2.13,1.03-4.27,2.04-6.44,2.99c-2.93,1.33-5.91,2.55-8.87,3.8
			l-0.43,0.17c-12.27,3.39-37.15,5.02-77.49-14.68c-9.23-5.59-18.4-11.26-27.55-16.99l-0.81-0.51
			C99.61,181.98,93.17,162.36,91.02,152.97z M52.55,263.31c-0.21-0.98-0.39-1.99-0.54-3.01l-0.23-1.19
			c-1.64-11.05-1.44-22.32-0.81-33.5c0.33-5.92,0.77-11.8,1.73-17.61c0.96-5.77,2.36-11.56,5.19-16.59c1.41-2.5,3.22-4.76,5.42-6.6
			c2.19-1.85,4.73-3.29,7.37-4.55l1-0.46l0.98-0.4c0.66-0.24,1.34-0.44,2.02-0.6c1.38-0.31,2.8-0.43,4.23-0.39
			c2.86,0.07,5.72,0.73,8.46,1.7c0.69,0.25,1.38,0.52,2.05,0.81c2.89,2.55,13.69,9.31,25.03,16.2l7.07,4.85h0.96
			c11.21,6.75,21.2,12.69,22.58,13.71c3.18,2.39,8.25,8.49,27.84,17.09c8.77,3.85,19.26,3.89,28.19,2.76
			c-9.43,2.04-22.17,4.02-38.12,4.78c0,0,5.06,0.54,14.28-0.16l0.01,0.08c6.44-0.53,12.88-1.2,19.22-2.52
			c3.19-0.55,6.32-1.39,9.47-2.13c1.57-0.41,3.12-0.87,4.68-1.31l2.33-0.67l2.31-0.75l0.56-0.18c0.52-0.15,1.03-0.3,1.55-0.46
			c4.15-0.93,9.05-1.96,13.12-2.64c-0.09,0.03-0.15,0.05-0.15,0.05l0.18-0.06c0.61-0.1,1.21-0.2,1.78-0.28
			c0.84,0.04,1.58,0.43,1.38,1.77c-0.4,2.7-31.94,36.11-83.21,42.8c-4.86,0.54-9.87,1-14.75,1.4c-1.57-0.22-3.14-0.48-4.69-0.77
			c-4.78-0.9-9.51-2.1-14.14-3.6c-4.63-1.49-9.16-3.29-13.57-5.36c-2.2-1.04-4.36-2.16-6.51-3.31c-2.16-1.13-4.33-2.23-6.53-3.29
			c-4.4-2.09-8.87-4.08-13.57-5.41c-1.18-0.32-2.37-0.6-3.58-0.77c-1.21-0.17-2.45-0.24-3.67-0.04c-1.21,0.18-2.43,0.73-3.19,1.75
			c-0.76,1.01-1.02,2.28-1.06,3.49c-0.04,1.23,0.13,2.44,0.21,3.66c0.1,1.21,0.21,2.43,0.34,3.64c0.26,2.42,0.6,4.84,1.15,7.22
			c0.55,2.37,1.32,4.72,2.48,6.87c1.05,1.94,2.45,3.7,4.15,5.11C70.02,285.38,62.66,283.87,52.55,263.31z M75.72,283.27
			c-4.45-2.15-6.89-7.07-8.19-11.11c-0.47-2.31-0.75-4.66-0.95-7.03c-0.1-1.21-0.19-2.41-0.26-3.63l-0.11-1.82
			c-0.04-0.6-0.06-1.16-0.02-1.72c0.06-1.11,0.35-2.17,0.92-2.9c0.56-0.74,1.47-1.17,2.53-1.32c1.05-0.16,2.2-0.09,3.35,0.07
			c1.15,0.17,2.29,0.44,3.43,0.76c1.76,0.51,3.49,1.12,5.21,1.8c5.35,2.97,16.13,9.02,21.08,12.36c5.31,3.58,14.15,5.95,14.64,7.75
			c-6.68,0.38-11.82,0.59-13.98,0.68c-7,0.29-7,0.29-12.02,0.83l-0.09,0c-1.72,0.08-3.43,0.28-5.12,0.65
			c-3.37,0.73-6.58,2.14-9.42,4.08c-0.29,0.2-0.56,0.4-0.84,0.61c-0.05-0.02-0.09-0.05-0.14-0.07l0.13-0.15
			C75.87,283.13,75.82,283.19,75.72,283.27z M39.29,400.28l-0.27,0.02c-0.47,0.03-0.91,0.06-1.36,0.06
			c-13.1,0-23.75-10.65-23.75-23.75s10.65-23.75,23.75-23.75l19.76,0.02c0.28,1.94,0.62,3.88,1.03,5.8
			c0.45,1.92,0.97,3.81,1.51,5.68c-1.53-0.05-3.06-0.09-4.59-0.11l-4.93-0.03l-4.93,0.04c-1.64,0.02-3.28,0.06-4.93,0.12
			c1.64,0.06,3.28,0.1,4.93,0.11l4.93,0.03l4.93-0.04c1.53-0.02,3.06-0.06,4.6-0.11c0.4,1.39,0.82,2.77,1.25,4.15
			c0.72,2.29,1.49,4.57,2.3,6.83c-2.19-0.05-4.38-0.09-6.57-0.11l-6.94-0.03l-6.94,0.04c-2.31,0.02-4.63,0.06-6.94,0.12
			c2.31,0.05,4.63,0.09,6.94,0.11l6.94,0.03l6.94-0.04c2.19-0.02,4.38-0.06,6.57-0.12c0.33,0.94,0.66,1.88,1,2.81
			c1.16,3.1,2.39,6.18,3.74,9.21c-1.69-0.05-3.37-0.09-5.06-0.1l-5.59-0.03l-5.59,0.04c-1.86,0.02-3.73,0.06-5.59,0.12
			c1.86,0.06,3.73,0.09,5.59,0.11l5.59,0.03l5.59-0.04c1.69-0.02,3.38-0.06,5.07-0.11c1.42,3.19,2.98,6.33,4.73,9.38
			c0.71,1.22,1.47,2.42,2.25,3.6L39.29,400.28z M295.42,504.1c-0.82,0.14-1.64,0.27-2.47,0.34
			C293.85,504.34,294.68,504.22,295.42,504.1z M359.43,398.3c-3.02,0.31-22.68,0.55-29.63,0c-2.06-0.16-4.6-2.03-7.14-4.57
			c-1.2-2.18-2.43-4.34-3.67-6.45l4.28,0.04l6.74,0.02l13.47,0.04l13.47-0.06l6.74-0.03l4.73-0.06c-1.12,1.9-2.22,3.85-3.31,5.81
			C362.68,395.94,360.48,398.2,359.43,398.3z M313.21,364.3l10.35,0.02l20.69,0.04l20.69-0.06l10.35-0.03l7.67-0.06
			c-1.36,2.31-2.8,4.62-4.3,6.82c-0.83,1.22-1.76,2.62-2.76,4.14l-6.36-0.05l-8.62-0.02l-17.25-0.04l-17.25,0.06l-8.62,0.03
			l-6.27,0.06c-1-1.54-1.94-2.95-2.78-4.18c-1.49-2.19-2.92-4.48-4.27-6.78L313.21,364.3z M304.45,364.22
			c-2.27-3.86-4.31-7.73-6-11.15l90.47,0.07c-1.68,3.39-3.7,7.21-5.94,11.03l-7.69-0.05l-10.35-0.02l-20.69-0.04l-20.69,0.06
			l-10.35,0.03L304.45,364.22z M317.79,375.29l8.62,0.02l17.25,0.04l17.25-0.06l8.62-0.03l6.34-0.06c-2.25,3.45-4.84,7.59-7.42,12
			l-4.76-0.05l-6.74-0.02l-13.47-0.04l-13.47,0.06l-6.74,0.03l-4.31,0.05c-2.58-4.4-5.17-8.53-7.42-11.98L317.79,375.29z
			 M394.44,504.43c-0.83-0.07-1.65-0.19-2.46-0.34C392.71,504.22,393.54,504.34,394.44,504.43z M610.07,400.05
			c-0.95,1.35-2,2.69-3.04,4.01c-2.09,2.64-4.27,5.21-6.5,7.73c-4.49,5.03-9.17,9.88-14.08,14.5c-4.89,4.64-10.01,9.04-15.26,13.26
			c-5.27,4.2-10.7,8.2-16.26,12.02c-11.13,7.61-22.8,14.42-34.92,20.36l-0.34,0.25c0.03-0.03,0.02-0.02,0.01-0.01
			c-0.01,0.01-0.01,0.01-0.03,0.03c-0.03,0.02-0.05,0.04-0.09,0.07c-0.07,0.05-0.15,0.09-0.23,0.13c-0.01,0.01-0.02,0.01-0.03,0.01
			c-75.94-31.91-70.23-50.44-69.91-51.24c10.64-14.83,36.37-17.47,48.37-17.88c-11.33,11.62-28,19.35-31.43,20.87
			c-0.24,0.07-0.49,0.14-0.73,0.21c-0.03,0.01-0.05,0.04-0.05,0.07c0.01,0.03,0.04,0.06,0.07,0.05c2.64-0.5,5.19-1.36,7.7-2.3
			c2.51-0.95,4.96-2.06,7.37-3.23c2.41-1.17,4.79-2.41,7.14-3.71c2.34-1.31,4.64-2.68,6.92-4.1c4.55-2.83,9.01-5.83,13.28-9.07
			c4.29-3.21,8.41-6.67,12.32-10.34c1.95-1.84,3.84-3.74,5.65-5.73c1.8-1.99,3.55-4.02,5.11-6.21c1.56-2.18,2.97-4.5,3.98-7
			c1.09-2.45,2.01-4.98,2.79-7.54c0.8-2.56,1.39-5.2,1.69-7.88c0.23-2.02,0.27-4.07,0.06-6.1c0,0,0,0,0,0l0,0
			c-0.07-0.67-0.17-1.34-0.29-2c-0.49-2.68-1.57-5.28-3.22-7.49c-0.82-1.11-1.79-2.11-2.86-2.98c-0.54-0.43-1.1-0.84-1.7-1.19
			c-0.6-0.36-1.19-0.68-1.9-0.95l-0.03-0.01l-0.06-0.01c-6.96-1.42-13.81-3.63-20.5-6.12c-6.7-2.49-13.25-5.39-19.6-8.68
			c-2.48-1.26-4.93-2.58-7.35-3.96c-4.98-3.07-19.99-13.3-34.07-32.97c-0.81-1.73-2.24-3.45-3.23-4.79
			c-8.07-10.98-12.96-18.08-12.96-18.08c0.19,2.7,3.43,11,5.39,12.87l33.48,48.12c3.63,5.39,6.83,10.24,9.05,13.76
			c3.17,7.18,5.29,16.89,0.78,26.66c-2.5,3-19.99,23.99-22.85,27.42c-0.83,1-3.3,3.62-6.55,7.1l-0.01,0.01
			c-1.14,1.22-2.37,2.54-3.67,3.94l-0.02,0.02c-8.42,9.09-19.39,21.26-23.03,27.63c-1.15,1.35-2.66,3.29-4.6,6.07
			c-0.94,0.97-2.54,3.1-2.34,6.17l-0.21,0.46c-1.33,6.4,17.17,38.59,22.36,47.46c1.94,4.57,3.42,8.26,3.47,9.01
			c0.16,2.25-4.51,12.07-5.31,12.55c-0.8,0.48-6.6,10.3-7.88,11.26c-1.29,0.97-31.23,0.6-34.44,0.92
			c-2.51,0.25-13.77,0.52-20.95,0.48l20.46,0.52c-12.25-0.25-23.46-0.5-23.69-0.51c-0.04,0-0.23-0.02-0.52-0.08
			c1.01,0.04,2.29,0.06,3.74,0.07l-3.87-0.1c-1.68-0.38-6.11-2.01-7.32-8.87c-1.52-8.57-4.8-53.1-4.83-53.5
			c0-0.02,0.21-1.93,1.62-2.65c1.16-0.59,2.83-0.25,4.95,1.01c6.41,3.8,9.26,14.19,11.4,24.85c2.19,10.94,7.24,18.12,13.86,19.69
			c6.11,1.45,13.24,0.77,17.61-1.61c0.49,1.22,1.13,2.38,1.97,3.33c0,0-0.89-2.87-0.44-4.8c0.07-0.16,0.13-0.33,0.17-0.53
			c0.01-0.07,0.02-0.14,0.03-0.2c2.97,3.54,7.59,5.06,7.59,5.06c-3.81-2.69-6.45-5.98-8.17-8.71c-0.56-1.56-1.49-3.37-2.71-5.37
			c0,0,0,0,0,0l0,0c-3.15-5.16-8.3-11.58-14.42-18.28c-10.85-11.87-31.52-38-35.12-44.85c-1.93-3.67-1.79-8.48-1.24-12.14
			c0.7-2.47,1.81-5.29,3.57-7.9c0,0,27.61-44.26,31.86-52.32c1.78-3.36,2.62-6.43,2.99-8.87l0,0c0,0,0.3-1.41,0.35-3.56l0.12,0.18
			c3.38,21.12-2.64,38.1-2.64,38.1c21.86-43.22-22.82-77.25-22.82-77.25l0,0c-13.66-11.54-25.34-12.6-25.34-12.6
			c-10.08,2.17-18.61,7.06-25.65,12.97l0.24-0.37c0,0-16.04,12.23-24.2,31.32c-0.95,1.81-1.86,3.9-2.57,6.29l0,0
			c-1.04,3.53-2.03,8.02-2.02,13.01c-0.39,8.27,1.21,17.23,5.96,26.63c0,0-6.02-16.98-2.64-38.1l0.23-0.36c0,0,0,0,0,0.01
			c-0.03,2.45,0.39,7.14,3.27,12.6c3.25,6.16,20.17,33.5,27.94,46.02l0,0h0c2.39,3.85,3.92,6.3,3.92,6.3
			c2.76,4.09,3.93,8.69,4.41,11.66c0.21,6.36-2.66,10.4-2.72,10.48c-5.64,10.61-42.39,56.03-48.42,62.69
			c-0.64,0.71-1.2,1.38-1.68,2.03c-2.06,2.39-5.49,6.24-9.93,10.69c0,0,4.87-1.6,7.83-5.36c0,0.03,0.01,0.06,0.01,0.09l-0.23,0.42
			c0.8,1.87-0.27,5.32-0.27,5.32c0.93-1.05,1.61-2.35,2.11-3.69c4.39,2.43,11.58,3.13,17.72,1.67c6.62-1.57,11.67-8.75,13.86-19.69
			c2.13-10.66,4.99-21.05,11.4-24.85c2.12-1.26,3.79-1.6,4.95-1.01c1.4,0.71,1.62,2.59,1.62,2.59c-0.03,0.45-3.31,43.39-4.83,51.95
			c-1.43,8.04-7.45,10.38-8,10.58c-0.35,0.01-2.5,0.06-5.76,0.13c-6.64-0.31-15.58-1.14-17.92-1.38c-3.22-0.32-33.63,0.8-34.92-0.16
			c-1.29-0.97-7.08-10.78-7.88-11.26c-0.8-0.48-5.47-10.3-5.31-12.55c0.05-0.75,1.53-4.44,3.47-9.01
			c4.89-8.34,21.54-37.32,22.39-46.05h0c1.61-7.34-10.27-18.69-10.27-18.69l0,0.01c0,0,0-0.01-0.01-0.01l0,0l-0.03-0.04
			c-4.83-6.48-12.8-15.31-19.38-22.42l-0.02-0.02l0,0c-5.25-5.67-9.61-10.24-10.78-11.64c-2.87-3.44-20.35-24.43-22.85-27.42
			c-4.51-9.77-2.39-19.48,0.78-26.66c2.22-3.53,5.43-8.39,9.07-13.78l33.57-48.26c2.27-2.33,7.03-12.61,6.5-14.63
			c0,0-5.42,7.19-14.09,19.88c-0.94,1.38-1.91,3.06-3.32,4.91c-14.09,19.68-29.09,29.91-34.07,32.97c-2.42,1.38-4.86,2.71-7.35,3.96
			c-6.35,3.29-12.9,6.18-19.6,8.68c-6.68,2.5-13.53,4.71-20.5,6.12l-0.06,0.01l-0.03,0.01c-0.7,0.26-1.29,0.59-1.9,0.95
			c-0.6,0.36-1.16,0.76-1.7,1.19c-1.07,0.87-2.04,1.87-2.86,2.98c-1.64,2.21-2.73,4.81-3.22,7.49c-0.51,2.68-0.54,5.42-0.23,8.1
			c0.26,2.35,0.76,4.67,1.42,6.93l-0.17,0l0.17,0c0.09,0.32,0.18,0.63,0.27,0.95c0.78,2.57,1.69,5.1,2.79,7.54
			c0.17,0.43,0.37,0.86,0.56,1.28c0,0.01,0.01,0.03,0.01,0.03c0,0.01,0.01,0.01,0.01,0.02c0.94,2,2.11,3.88,3.39,5.67
			c1.56,2.19,3.31,4.23,5.11,6.21c1.81,1.98,3.7,3.89,5.65,5.73c2.86,2.69,5.84,5.27,8.92,7.71c-0.01,0-0.01,0-0.02,0.01
			c0.99,0.88,2.47,1.75,3.5,2.61c0.5,0.42,0.9,0.79,1.45,1.14c3.81,2.81,7.74,5.44,11.75,7.94c2.28,1.41,4.58,2.78,6.92,4.1
			c2.35,1.3,4.72,2.54,7.14,3.71c2.41,1.17,4.86,2.27,7.37,3.23c2.51,0.95,5.06,1.8,7.7,2.3c0.03,0.01,0.06-0.01,0.07-0.05
			c0.01-0.03-0.01-0.07-0.05-0.07c-0.12-0.03-0.24-0.07-0.36-0.1c-2.8-1.22-20.07-9.06-31.7-21c11.62,0.31,38.28,2.73,49.16,17.9
			c0.32,0.8,6.05,19.39-70.34,51.42c-0.17-0.06-0.34-0.12-0.49-0.2c-0.08-0.04-0.16-0.09-0.23-0.13c-0.04-0.02-0.06-0.04-0.09-0.07
			c-0.02-0.01-0.03-0.02-0.03-0.03c-0.01-0.01-0.02-0.02,0.01,0.01l-0.34-0.25c-12.11-5.94-23.79-12.75-34.92-20.36
			c-5.55-3.82-10.99-7.81-16.26-12.02c-5.25-4.22-10.37-8.63-15.26-13.26c-4.91-4.62-9.6-9.47-14.08-14.5
			c-2.24-2.52-4.41-5.1-6.5-7.73c-1.03-1.32-2.09-2.65-3.04-4.01c-0.95-1.37-1.85-2.77-2.7-4.21c-3.37-5.79-6.1-11.97-8.52-18.26
			c-1.2-3.15-2.33-6.33-3.37-9.54c-0.95-2.96-1.87-5.95-2.63-8.94c-3.08-44.71,3.03-50.05,11.08-66.16
			c5.33-10.66,17.46-13.39,25.18-14l0.01,0c2.05-0.03,4.1-0.07,6.16-0.1c0.25,0.01,0.49,0.02,0.74,0.04c0,0-0.2-0.02-0.58-0.04
			c4.67-0.08,9.34-0.17,14.02-0.29c5.7-0.15,11.39-0.33,17.09-0.57c8.38,0.31,28.22-1.29,53.49-10.48
			c8.19-2.98,15.63-7.75,22.8-12.68c1.04-0.72,2.07-1.45,3.09-2.2c4.83-3.39,9.7-7.3,14.39-11.81c1.51-1.39,3-2.8,4.47-4.23
			c2.6-2.56,5.09-5.22,7.51-7.95c4.71-4.46,9.9-9.32,11.86-10.98c5.82,17.66,10.46,21.48,10.46,21.48
			c-6.62-11-9.16-25.43-10.08-32.95c0.01-0.31,0.02-0.63,0.04-0.94c0.04-0.84,0.11-1.68,0.2-2.51
			c7.39,15.74,18.19,19.39,18.19,19.39c-10.33-8.86-15.03-17.67-16.86-21.96c0.36,0.34,0.72,0.68,1.1,1.01
			c2.76,2.42,5.8,4.46,9.08,6.01c-2.71-2.39-5.35-4.8-7.74-7.37c-1.18-1.3-2.32-2.63-3.28-4.04c-0.49-0.7-0.93-1.42-1.3-2.16
			c-0.17-0.33-0.33-0.66-0.47-1c0-0.03,0-0.06,0-0.09l-0.04,0c-0.15-0.38-0.28-0.77-0.38-1.16c-0.43-1.49-0.33-3.05,0.17-4.58
			c0.49-1.53,1.37-2.98,2.41-4.34c1.05-1.35,2.26-2.63,3.56-3.83c1.29-1.21,2.67-2.34,4.11-3.45c-1.7,0.63-3.31,1.51-4.85,2.5
			c-0.99,0.66-1.95,1.38-2.86,2.18c-1.17-0.57-3.42-2.93-7.33-11.16l-3.8-7.97c-0.07-0.19-0.15-0.38-0.23-0.56
			c-1.04-2.57-2.05-5.15-3.06-7.73c-0.3-0.77-0.59-1.55-0.89-2.33c0.02-0.01,0.04-0.01,0.04-0.01l-1.67-4.58
			c-0.03,0.02-0.05,0.03-0.08,0.05c-1.07-2.9-2.11-5.81-3.11-8.73l-1.3-3.94l-1.21-3.96c-0.39-1.32-0.72-2.66-1.09-3.98
			c-0.34-1.33-0.57-2.67-0.87-4.01l-0.01-0.05l-0.01-0.03c-0.22-0.95-0.33-2.07-0.35-3.12c-0.02-1.07,0.06-2.14,0.19-3.21
			c0.3-2.13,0.9-4.21,1.76-6.19c0.43-0.99,0.92-1.94,1.46-2.92l1.6-2.91l3.26-5.8l13.03-23.23l12.94-23.28
			c4.32-7.75,8.6-15.52,12.96-23.25c0.39-0.5,0.95-0.98,1.52-1.39c0.57-0.42,1.2-0.77,1.83-1.1c1.28-0.65,2.65-1.11,4.04-1.5
			c2.8-0.72,5.71-1.02,8.61-1.08c1.45-0.03,2.92-0.01,4.38,0l4.39,0.01l8.77-0.05l35.09-0.43l4.39-0.06l2.18-0.03
			c0.69,0.01,1.45,0.06,2.17,0.08l8.77,0.33c5.85,0.22,11.69,0.38,17.54,0.51c5.84,0.13,11.73,0.21,17.54,0.19
			c2.87,0.05,5.74,0.35,8.48,1.06c1.36,0.38,2.7,0.83,3.93,1.46c0.61,0.32,1.21,0.66,1.76,1.06c0.28,0.19,0.53,0.41,0.78,0.62
			c0.11,0.11,0.24,0.22,0.35,0.33c0.1,0.1,0.21,0.23,0.25,0.29l13.05,23.15l13.15,23.16l13.11,23.18l3.27,5.8l1.61,2.9
			c0.54,0.97,1.03,1.92,1.46,2.91c0.86,1.97,1.46,4.05,1.77,6.17c0.14,1.06,0.22,2.13,0.2,3.2c-0.02,1.05-0.12,2.16-0.34,3.11
			l-0.01,0.04l-0.01,0.04c-0.29,1.34-0.52,2.68-0.86,4.01c-0.36,1.33-0.69,2.66-1.08,3.98l-1.2,3.96l-1.3,3.94
			c-1,2.92-2.03,5.83-3.1,8.73c-0.03-0.02,0,0-0.03-0.02l-1.67,4.56c-0.3,0.78-0.59,1.55-0.89,2.33c-1.03,2.66-2.08,5.31-3.14,7.96
			l-3.96,8.3c-3.91,8.23-6.16,10.59-7.33,11.16c-0.91-0.8-1.87-1.52-2.86-2.18c-1.54-0.99-3.14-1.87-4.85-2.5
			c1.44,1.1,2.82,2.23,4.11,3.45c1.3,1.19,2.51,2.47,3.56,3.83c1.03,1.36,1.92,2.82,2.41,4.34c0.51,1.53,0.61,3.09,0.17,4.58
			c-0.1,0.39-0.23,0.78-0.38,1.16l-0.04,0c0,0.03,0,0.06,0,0.09c-0.14,0.34-0.29,0.67-0.47,1c-0.37,0.74-0.81,1.46-1.3,2.16
			c-0.96,1.41-2.1,2.73-3.28,4.04c-2.4,2.57-5.03,4.98-7.74,7.37c3.28-1.55,6.32-3.58,9.08-6.01c0.31-0.27,0.61-0.55,0.91-0.83
			c-1.89,4.35-6.59,13.04-16.79,21.78c0,0,10.88-3.69,18.28-19.59c0.09,0.9,0.17,1.81,0.21,2.71c0,0.08,0.01,0.17,0.01,0.25
			c-0.85,7.29-3.33,22.3-10.16,33.64c0,0,4.66-3.83,10.49-21.56c1.89,1.6,7.16,6.54,11.94,11.06c2.42,2.73,4.92,5.39,7.51,7.95
			c6.78,6.67,14.1,12.82,21.95,18.24c7.17,4.93,14.56,9.82,22.8,12.68c25.59,8.89,45.1,10.79,53.48,10.48
			c5.7,0.24,11.39,0.42,17.09,0.57c6.78,0.18,13.55,0.3,20.33,0.39l4.54,0.43c11.05,1.89,16.15,4.57,20.66,13.58
			c8.05,16.11,14.17,21.44,11.08,66.16c-0.76,2.99-1.68,5.98-2.63,8.94c-1.04,3.21-2.16,6.39-3.37,9.54
			c-2.42,6.29-5.15,12.47-8.52,18.26C611.92,397.28,611.02,398.69,610.07,400.05z M486.85,353.52l22.01,0.03
			c16.62,3.7,26.49,1.03,29.7-0.15c0.03,0.49,0.01,0.76,0.01,0.76c0.03-0.24,0.05-0.48,0.07-0.72c0.1,2.02,0.03,5.87-1.3,10.64
			l-6.61-0.07l-7.12-0.02l-14.25-0.04l-14.25,0.06l-7.12,0.03l-6.06,0.07c0.33-0.46,0.62-0.89,0.87-1.27
			C485.12,359.32,486.31,356.19,486.85,353.52z M486.15,337.1c-4.37-5.51-9.68-12.72-14.95-21.18c0,0-0.78-2.09,6.36,0.42
			c3.71,2.34,7.5,4.53,11.38,6.58c6.37,3.35,12.97,6.28,19.7,8.81c3.38,1.25,6.8,2.38,10.25,3.41c1.67,0.48,3.33,0.95,5.01,1.37
			c8.9,4.1,12.42,9.32,13.8,13.01C509.82,356.27,491.01,341.52,486.15,337.1z M482.3,362.51c-0.31,0.48-0.69,1.02-1.12,1.61l-0.01,0
			c0.45-0.63,0.91-1.29,1.36-1.98C482.45,362.27,482.38,362.39,482.3,362.51z M481.92,364.14l6.07,0.06l7.12,0.02l14.25,0.04
			l14.25-0.06l7.12-0.03l6.61-0.07c-0.92,3.32-2.46,7.09-4.96,10.98l-6.41-0.06l-7.7-0.02l-15.4-0.04l-15.4,0.06l-7.7,0.03
			l-6.59,0.07C476.98,370.59,480.05,366.76,481.92,364.14z M479.77,375.2l7.7,0.02l15.4,0.04l15.4-0.06l7.7-0.03l6.39-0.07
			c-2.56,3.98-6.14,8.09-11.12,12l-4.75-0.04l-7.77-0.02L493.21,387l-15.53,0.06l-7.77,0.03l-7.03,0.07
			c3.72-4.29,7.23-8.39,10.28-12.03L479.77,375.2z M469.91,387.25l7.77,0.02l15.53,0.04l15.53-0.06l7.77-0.03l4.67-0.05
			c-4.48,3.51-10.09,6.85-17.11,9.8l-50.58,0.96c3.18-3.62,6.35-7.24,9.39-10.75L469.91,387.25z M182.53,353.26l17.96,0.03
			c0.52,2.72,1.71,5.93,4.09,9.55c0.28,0.42,0.61,0.9,0.98,1.42l-6.06-0.06l-7.21-0.02l-14.41-0.04l-14.41,0.06l-7.21,0.03
			l-2.97,0.03c-1.79-4.19-2.69-7.11-3.13-8.95C162.85,357.44,174.45,355.53,182.53,353.26z M148.69,351.16
			c0.89-3.58,3.87-9.67,13.76-14.39c2.03-0.49,4.04-1.04,6.05-1.62c3.45-1.02,6.87-2.15,10.25-3.41c6.74-2.54,13.33-5.47,19.7-8.81
			c3.88-2.05,7.67-4.25,11.38-6.58c7.15-2.51,6.36-0.42,6.36-0.42c-1.69,6.47-3.95,11.68-6.41,15.88l-4.44,6.39
			c-4.72,5.68-9.41,8.37-11.83,9.48c-0.03,0.01-0.06,0.02-0.09,0.03l-3.16,1.04c-1.78,0.52-3.58,1-5.39,1.43l-19.05,2.46
			c-0.64,0.03-1.29,0.06-1.93,0.08c-2.41,0.05-4.83,0.04-7.25-0.05C152.73,352.18,149.96,351.51,148.69,351.16z M204.87,362.16
			c0.49,0.74,0.98,1.45,1.47,2.12l-0.01,0c-0.48-0.66-0.9-1.25-1.23-1.77C205.01,362.39,204.95,362.27,204.87,362.16z
			 M156.26,364.39l7.21,0.02l14.41,0.04l14.41-0.06l7.21-0.03l6.08-0.07c1.9,2.65,4.98,6.47,8.75,10.97l-6.8-0.06l-7.71-0.02
			l-15.42-0.04l-15.42,0.06l-7.71,0.03l-2.58,0.03c-2.34-4.31-4.07-7.92-5.35-10.9L156.26,364.39z M161.26,375.38l7.71,0.02
			l15.42,0.04l15.42-0.06l7.71-0.03l6.82-0.07c3.05,3.65,6.56,7.73,10.28,12.02l-7.3-0.07l-7.8-0.02l-15.6-0.04l-15.6,0.06
			l-7.8,0.03l-3.16,0.03c-3.32-3.09-5.03-5.59-5.26-5.99c-1.25-2.12-2.36-4.1-3.37-5.95L161.26,375.38z M170.52,387.41l7.8,0.02
			l15.6,0.04l15.6-0.06l7.8-0.03l7.31-0.07c3.44,3.96,7.05,8.09,10.65,12.17l-47.63-0.71c-9.4-2.8-16.03-7.54-20.18-11.38
			L170.52,387.41z M611.13,401.83c0.17-0.23,0.34-0.46,0.5-0.69c0.97-1.42,1.89-2.88,2.75-4.36c1.81-3.14,3.4-6.38,4.86-9.67
			c2.37,0.04,4.74,0.07,7.11,0.09l9.03,0.03l9.03-0.04c3.01-0.02,6.02-0.07,9.03-0.12c-3.01-0.05-6.02-0.09-9.03-0.11l-9.03-0.03
			l-9.03,0.04c-2.36,0.02-4.72,0.06-7.08,0.1c1.29-2.93,2.48-5.9,3.6-8.89c0.38-1.03,0.74-2.07,1.11-3.1
			c1.33,0.04,2.65,0.07,3.98,0.09l5.06,0.03l5.06-0.04c1.69-0.02,3.37-0.06,5.06-0.12c-1.69-0.06-3.37-0.09-5.06-0.11l-5.06-0.03
			l-5.06,0.04c-1.32,0.02-2.64,0.06-3.96,0.09c0.76-2.16,1.49-4.32,2.18-6.5c0.46-1.48,0.91-2.96,1.34-4.45
			c1.35,0.04,2.7,0.07,4.04,0.09l5.35,0.03l5.35-0.04c1.78-0.02,3.56-0.06,5.35-0.12c-1.78-0.06-3.56-0.1-5.35-0.11l-5.35-0.03
			l-5.35,0.04c-1.34,0.02-2.68,0.05-4.03,0.09c0.51-1.76,0.99-3.53,1.41-5.34c0.39-1.8,0.71-3.61,0.98-5.43
			c0.09,0.05,0.18,0.08,0.28,0.08l25.08,0.02l0.21,0.11l7.11,12.85l-14.91,8.23l14.44,9.97l-7.57,17.42L611.13,401.83z
			 M655.27,401.95l-0.09,0l7.72-17.67l-14.04-9.69l14.58-8.04l-6.94-12.54l25.85,14.12v17.16L655.27,401.95z"/>
	</g>
</g>
</svg>
